SplineFontDB: 3.0
FontName: Jinko-Regular
FullName: Jinko Regular
FamilyName: Jinko
Weight: Book
Copyright: Copyright (c) 2012, vernon adams (vern@newtypography.co.uk), with Reserved Font Name 'Jinko'
Version: 1.000;
ItalicAngle: 0
UnderlinePosition: -50
UnderlineWidth: 50
Ascent: 1638
Descent: 410
sfntRevision: 0x00010000
LayerCount: 2
Layer: 0 1 "Back"  1
Layer: 1 1 "Fore"  0
XUID: [1021 332 1330122705 9086861]
FSType: 0
OS2Version: 1
OS2_WeightWidthSlopeOnly: 0
OS2_UseTypoMetrics: 1
CreationTime: 1337175247
ModificationTime: 1348687994
PfmFamily: 17
TTFWeight: 400
TTFWidth: 5
LineGap: 0
VLineGap: 0
Panose: 2 0 5 3 0 0 0 0 0 0
OS2TypoAscent: 2064
OS2TypoAOffset: 0
OS2TypoDescent: -631
OS2TypoDOffset: 0
OS2TypoLinegap: 0
OS2WinAscent: 2064
OS2WinAOffset: 0
OS2WinDescent: 631
OS2WinDOffset: 0
HheadAscent: 2064
HheadAOffset: 0
HheadDescent: -631
HheadDOffset: 0
OS2SubXSize: 1331
OS2SubYSize: 1433
OS2SubXOff: 0
OS2SubYOff: 286
OS2SupXSize: 1331
OS2SupYSize: 1433
OS2SupXOff: 0
OS2SupYOff: 983
OS2StrikeYSize: 102
OS2StrikeYPos: 530
OS2Vendor: 'newt'
OS2CodePages: 00000093.00000000
OS2UnicodeRanges: a000006f.4000204a.00000000.00000000
Lookup: 258 0 0 "'kern' Horizontal Kerning in Latin lookup 0"  {"'kern' Horizontal Kerning in Latin lookup 0 per glyph data 0"  "'kern' Horizontal Kerning in Latin lookup 0 kerning class 1"  } ['kern' ('DFLT' <'dflt' > 'latn' <'dflt' > ) ]
MarkAttachClasses: 1
DEI: 91125
KernClass2: 33 26 "'kern' Horizontal Kerning in Latin lookup 0 kerning class 1" 
 89 A Agrave Aacute Acircumflex Atilde Adieresis Aring Amacron Abreve Aogonek uni0200 uni0202
 1 B
 111 D O Q Eth Ograve Oacute Ocircumflex Otilde Odieresis Oslash Dcaron Omacron Obreve Ohungarumlaut uni020C uni020E
 1 F
 1 K
 1 L
 1 P
 44 R Racute Rcommaaccent Rcaron uni0210 uni0212
 16 T Tcaron uni021A
 103 U Ugrave Uacute Ucircumflex Udieresis Utilde Umacron Ubreve Uring Uhungarumlaut Uogonek uni0214 uni0216
 1 V
 37 W Wcircumflex Wgrave Wacute Wdieresis

StartChar: .notdef
Encoding: 65536 -1 0
Width: 748
Flags: W
LayerCount: 2
Fore
SplineSet
68 0 m 1,0,-1
 68 1365 l 1,1,-1
 612 1365 l 1,2,-1
 612 0 l 1,3,-1
 68 0 l 1,0,-1
136 68 m 1,4,-1
 544 68 l 1,5,-1
 544 1297 l 1,6,-1
 136 1297 l 1,7,-1
 136 68 l 1,4,-1
EndSplineSet
EndChar

StartChar: exclam
Encoding: 33 33 4
Width: 451
Flags: W
LayerCount: 2
Fore
SplineSet
225 -2 m 128,-1,1
 162 -2 162 -2 118.5 41 c 128,-1,2
 75 84 75 84 75 147 c 0,3,4
 75 209 75 209 119 252.5 c 128,-1,5
 163 296 163 296 225 296 c 128,-1,6
 287 296 287 296 331.5 252.5 c 128,-1,7
 376 209 376 209 376 147 c 0,8,9
 376 84 376 84 332 41 c 128,-1,0
 288 -2 288 -2 225 -2 c 128,-1,1
194 485 m 1,10,-1
 105 1481 l 1,11,-1
 348 1481 l 1,12,-1
 260 485 l 1,13,-1
 194 485 l 1,10,-1
EndSplineSet
EndChar

StartChar: quotedbl
Encoding: 34 34 5
Width: 768
Flags: W
LayerCount: 2
Fore
SplineSet
130 944 m 1,0,-1
 88 1481 l 1,1,-1
 293 1481 l 1,2,-1
 251 944 l 1,3,-1
 130 944 l 1,0,-1
519 944 m 1,4,-1
 475 1481 l 1,5,-1
 681 1481 l 1,6,-1
 637 944 l 1,7,-1
 519 944 l 1,4,-1
EndSplineSet
EndChar

StartChar: numbersign
Encoding: 35 35 6
Width: 1253
Flags: W
LayerCount: 2
Fore
SplineSet
190 55 m 1,0,-1
 277 455 l 1,1,-1
 32 455 l 1,2,-1
 32 544 l 1,3,-1
 296 544 l 1,4,-1
 400 997 l 1,5,-1
 114 997 l 1,6,-1
 114 1082 l 1,7,-1
 419 1082 l 1,8,-1
 492 1410 l 1,9,-1
 627 1410 l 1,10,-1
 556 1082 l 1,11,-1
 868 1082 l 1,12,-1
 939 1410 l 1,13,-1
 1073 1410 l 1,14,-1
 1002 1082 l 1,15,-1
 1219 1082 l 1,16,-1
 1219 997 l 1,17,-1
 979 997 l 1,18,-1
 877 544 l 1,19,-1
 1153 544 l 1,20,-1
 1153 455 l 1,21,-1
 855 455 l 1,22,-1
 768 55 l 1,23,-1
 639 55 l 1,24,-1
 724 455 l 1,25,-1
 409 455 l 1,26,-1
 323 55 l 1,27,-1
 190 55 l 1,0,-1
431 543 m 1,28,-1
 747 543 l 1,29,-1
 851 999 l 1,30,-1
 534 999 l 1,31,-1
 431 543 l 1,28,-1
EndSplineSet
EndChar

StartChar: dollar
Encoding: 36 36 7
Width: 1145
Flags: W
LayerCount: 2
Fore
SplineSet
634 656 m 1,0,-1
 634 122 l 1,1,2
 784 138 784 138 853.5 208.5 c 128,-1,3
 923 279 923 279 923 373 c 0,4,5
 923 432 923 432 913 469.5 c 128,-1,6
 903 507 903 507 872 542 c 128,-1,7
 841 577 841 577 784.5 603 c 128,-1,8
 728 629 728 629 634 656 c 1,0,-1
533 844 m 1,9,-1
 533 1357 l 1,10,11
 390 1339 390 1339 316.5 1267 c 128,-1,12
 243 1195 243 1195 243 1102 c 0,13,14
 243 1057 243 1057 253.5 1024 c 128,-1,15
 264 991 264 991 293.5 957 c 128,-1,16
 323 923 323 923 382.5 895 c 128,-1,17
 442 867 442 867 533 844 c 1,9,-1
533 682 m 1,18,19
 293 735 293 735 184 829.5 c 128,-1,20
 75 924 75 924 75 1098 c 0,21,22
 75 1269 75 1269 203 1377 c 128,-1,23
 331 1485 331 1485 533 1501 c 1,24,-1
 533 1617 l 1,25,-1
 634 1617 l 1,26,-1
 634 1502 l 1,27,28
 882 1494 882 1494 1045 1397 c 1,29,-1
 1030 1259 l 1,30,-1
 1013 1259 l 1,31,32
 956 1296 956 1296 847.5 1328 c 128,-1,33
 739 1360 739 1360 634 1362 c 1,34,-1
 634 820 l 1,35,36
 762 789 762 789 844 756 c 128,-1,37
 926 723 926 723 985.5 673 c 128,-1,38
 1045 623 1045 623 1071 554 c 128,-1,39
 1097 485 1097 485 1097 387 c 0,40,41
 1097 296 1097 296 1062 222 c 128,-1,42
 1027 148 1027 148 964.5 98 c 128,-1,43
 902 48 902 48 818.5 18 c 128,-1,44
 735 -12 735 -12 634 -20 c 1,45,-1
 634 -134 l 1,46,-1
 533 -134 l 1,47,-1
 533 -23 l 1,48,49
 253 -17 253 -17 45 126 c 1,50,-1
 69 266 l 1,51,-1
 98 266 l 1,52,53
 175 196 175 196 297.5 158.5 c 128,-1,54
 420 121 420 121 533 118 c 1,55,-1
 533 682 l 1,18,19
EndSplineSet
EndChar

StartChar: percent
Encoding: 37 37 8
Width: 1719
Flags: W
LayerCount: 2
Fore
SplineSet
380 824 m 0,0,1
 471 824 471 824 516 893 c 128,-1,2
 561 962 561 962 561 1115 c 0,3,4
 561 1261 561 1261 517 1325.5 c 128,-1,5
 473 1390 473 1390 378 1390 c 0,6,7
 285 1390 285 1390 239.5 1322 c 128,-1,8
 194 1254 194 1254 194 1100 c 0,9,10
 194 955 194 955 239 889.5 c 128,-1,11
 284 824 284 824 380 824 c 0,0,1
378 725 m 0,12,13
 66 725 66 725 66 1100 c 0,14,15
 66 1166 66 1166 75.5 1221 c 128,-1,16
 85 1276 85 1276 108 1325 c 128,-1,17
 131 1374 131 1374 166.5 1408 c 128,-1,18
 202 1442 202 1442 256 1461.5 c 128,-1,19
 310 1481 310 1481 380 1481 c 0,20,21
 687 1481 687 1481 687 1110 c 0,22,23
 687 1027 687 1027 670.5 959.5 c 128,-1,24
 654 892 654 892 619 838 c 128,-1,25
 584 784 584 784 523 754.5 c 128,-1,26
 462 725 462 725 378 725 c 0,12,13
404 0 m 1,27,-1
 1173 1481 l 1,28,-1
 1313 1481 l 1,29,-1
 551 0 l 1,30,-1
 404 0 l 1,27,-1
1343 98 m 0,31,32
 1435 98 1435 98 1481 167 c 128,-1,33
 1527 236 1527 236 1527 388 c 0,34,35
 1527 534 1527 534 1482.5 598 c 128,-1,36
 1438 662 1438 662 1343 662 c 0,37,38
 1250 662 1250 662 1205 595 c 128,-1,39
 1160 528 1160 528 1160 374 c 0,40,41
 1160 230 1160 230 1204.5 164 c 128,-1,42
 1249 98 1249 98 1343 98 c 0,31,32
1343 -1 m 0,43,44
 1031 -1 1031 -1 1031 374 c 0,45,46
 1031 457 1031 457 1047.5 523.5 c 128,-1,47
 1064 590 1064 590 1099 643.5 c 128,-1,48
 1134 697 1134 697 1196 726.5 c 128,-1,49
 1258 756 1258 756 1343 756 c 0,50,51
 1653 756 1653 756 1653 385 c 0,52,53
 1653 302 1653 302 1636.5 234.5 c 128,-1,54
 1620 167 1620 167 1585 113 c 128,-1,55
 1550 59 1550 59 1488.5 29 c 128,-1,56
 1427 -1 1427 -1 1343 -1 c 0,43,44
EndSplineSet
EndChar

StartChar: ampersand
Encoding: 38 38 9
Width: 1420
Flags: W
LayerCount: 2
Fore
SplineSet
594 -23 m 0,0,1
 355 -23 355 -23 203 86.5 c 128,-1,2
 51 196 51 196 51 388 c 0,3,4
 51 472 51 472 81 549 c 128,-1,5
 111 626 111 626 181 697 c 128,-1,6
 251 768 251 768 354 814 c 1,7,8
 152 1002 152 1002 152 1172 c 0,9,10
 152 1224 152 1224 165.5 1270 c 128,-1,11
 179 1316 179 1316 212 1359.5 c 128,-1,12
 245 1403 245 1403 295.5 1434 c 128,-1,13
 346 1465 346 1465 426.5 1484 c 128,-1,14
 507 1503 507 1503 609 1503 c 128,-1,15
 711 1503 711 1503 789.5 1476 c 128,-1,16
 868 1449 868 1449 915.5 1403 c 128,-1,17
 963 1357 963 1357 986 1297.5 c 128,-1,18
 1009 1238 1009 1238 1006 1170 c 1,19,20
 1006 1118 1006 1118 987 1070.5 c 128,-1,21
 968 1023 968 1023 923 971 c 128,-1,22
 878 919 878 919 793 868 c 128,-1,23
 708 817 708 817 587 771 c 1,24,25
 591 768 591 768 820.5 535 c 128,-1,26
 1050 302 1050 302 1053 298 c 1,27,28
 1100 348 1100 348 1138 450 c 128,-1,29
 1176 552 1176 552 1189 670 c 1,30,-1
 1328 654 l 1,31,32
 1318 520 1318 520 1273 401.5 c 128,-1,33
 1228 283 1228 283 1152 205 c 1,34,-1
 1209 154 l 2,35,36
 1266 102 1266 102 1324 51 c 2,37,-1
 1381 0 l 1,38,-1
 1166 0 l 1,39,40
 1107 55 1107 55 1047 111 c 1,41,42
 868 -23 868 -23 594 -23 c 0,0,1
614 119 m 0,43,44
 722 119 722 119 789.5 138.5 c 128,-1,45
 857 158 857 158 941 207 c 1,46,47
 935 213 935 213 690 459.5 c 128,-1,48
 445 706 445 706 439 712 c 1,49,50
 353 670 353 670 281 583.5 c 128,-1,51
 209 497 209 497 209 392 c 0,52,53
 209 270 209 270 307.5 194.5 c 128,-1,54
 406 119 406 119 614 119 c 0,43,44
493 870 m 1,55,56
 678 930 678 930 768.5 1007.5 c 128,-1,57
 859 1085 859 1085 859 1169 c 0,58,59
 859 1379 859 1379 586 1379 c 1,60,61
 449 1374 449 1374 384 1321 c 128,-1,62
 319 1268 319 1268 313 1170 c 1,63,64
 313 1107 313 1107 351.5 1044.5 c 128,-1,65
 390 982 390 982 493 870 c 1,55,56
EndSplineSet
EndChar

StartChar: quotesingle
Encoding: 39 39 10
Width: 386
Flags: W
LayerCount: 2
Fore
SplineSet
127 893 m 1,0,-1
 87 1481 l 1,1,-1
 304 1481 l 1,2,-1
 229 893 l 1,3,-1
 127 893 l 1,0,-1
EndSplineSet
EndChar

StartChar: parenleft
Encoding: 40 40 11
Width: 577
Flags: W
LayerCount: 2
Fore
SplineSet
413 -225 m 1,0,1
 296 -100 296 -100 220 20 c 128,-1,2
 144 140 144 140 97 298.5 c 128,-1,3
 50 457 50 457 50 640 c 0,4,5
 50 1091 50 1091 413 1481 c 1,6,-1
 534 1481 l 1,7,-1
 534 1445 l 1,8,9
 215 1081 215 1081 215 637 c 128,-1,10
 215 193 215 193 534 -187 c 1,11,-1
 534 -225 l 1,12,-1
 413 -225 l 1,0,1
EndSplineSet
EndChar

StartChar: parenright
Encoding: 41 41 12
Width: 578
Flags: W
LayerCount: 2
Fore
SplineSet
166 -225 m 1,0,-1
 45 -225 l 1,1,-1
 45 -187 l 1,2,3
 364 193 364 193 364 637 c 128,-1,4
 364 1081 364 1081 45 1445 c 1,5,-1
 45 1481 l 1,6,-1
 166 1481 l 1,7,8
 529 1091 529 1091 529 640 c 0,9,10
 529 457 529 457 482 298.5 c 128,-1,11
 435 140 435 140 359 20 c 128,-1,12
 283 -100 283 -100 166 -225 c 1,0,-1
EndSplineSet
EndChar

StartChar: asterisk
Encoding: 42 42 13
Width: 981
Flags: W
LayerCount: 2
Fore
SplineSet
83 1211 m 1,0,1
 85 1254 85 1254 112.5 1282.5 c 128,-1,2
 140 1311 140 1311 180 1312 c 0,3,4
 208 1312 208 1312 234 1297 c 0,5,6
 267 1278 267 1278 303 1247 c 128,-1,7
 339 1216 339 1216 391.5 1163.5 c 128,-1,8
 444 1111 444 1111 452 1103 c 1,9,10
 448 1120 448 1120 435 1168.5 c 128,-1,11
 422 1217 422 1217 415 1247 c 128,-1,12
 408 1277 408 1277 401 1318.5 c 128,-1,13
 394 1360 394 1360 394 1389 c 0,14,15
 394 1438 394 1438 423.5 1464.5 c 128,-1,16
 453 1491 453 1491 492 1491 c 128,-1,17
 531 1491 531 1491 560.5 1464 c 128,-1,18
 590 1437 590 1437 590 1389 c 0,19,20
 590 1360 590 1360 583 1318.5 c 128,-1,21
 576 1277 576 1277 569 1247 c 128,-1,22
 562 1217 562 1217 549 1168.5 c 128,-1,23
 536 1120 536 1120 532 1103 c 1,24,25
 540 1111 540 1111 592.5 1163.5 c 128,-1,26
 645 1216 645 1216 681 1247 c 128,-1,27
 717 1278 717 1278 750 1297 c 0,28,29
 778 1313 778 1313 805 1313 c 0,30,31
 846 1312 846 1312 873.5 1283.5 c 128,-1,32
 901 1255 901 1255 901 1212 c 0,33,34
 901 1156 901 1156 848 1127 c 0,35,36
 815 1108 815 1108 770.5 1092.5 c 128,-1,37
 726 1077 726 1077 653.5 1057.5 c 128,-1,38
 581 1038 581 1038 571 1035 c 1,39,40
 581 1032 581 1032 653.5 1012.5 c 128,-1,41
 726 993 726 993 770.5 977.5 c 128,-1,42
 815 962 815 962 848 943 c 0,43,44
 901 914 901 914 901 859 c 1,45,46
 899 816 899 816 871.5 787.5 c 128,-1,47
 844 759 844 759 804 758 c 0,48,49
 776 758 776 758 750 773 c 0,50,51
 717 792 717 792 681 823 c 128,-1,52
 645 854 645 854 592.5 906.5 c 128,-1,53
 540 959 540 959 532 967 c 1,54,55
 536 950 536 950 549 901.5 c 128,-1,56
 562 853 562 853 569 823 c 128,-1,57
 576 793 576 793 583 751.5 c 128,-1,58
 590 710 590 710 590 681 c 0,59,60
 590 632 590 632 560.5 605.5 c 128,-1,61
 531 579 531 579 492 579 c 128,-1,62
 453 579 453 579 423.5 606 c 128,-1,63
 394 633 394 633 394 681 c 0,64,65
 394 710 394 710 401 751.5 c 128,-1,66
 408 793 408 793 415 823 c 128,-1,67
 422 853 422 853 435 901.5 c 128,-1,68
 448 950 448 950 452 967 c 1,69,70
 444 959 444 959 391.5 906.5 c 128,-1,71
 339 854 339 854 303 823 c 128,-1,72
 267 792 267 792 234 773 c 0,73,74
 206 757 206 757 179 757 c 0,75,76
 138 758 138 758 110.5 786.5 c 128,-1,77
 83 815 83 815 83 858 c 0,78,79
 83 914 83 914 136 943 c 0,80,81
 169 962 169 962 213.5 977.5 c 128,-1,82
 258 993 258 993 330.5 1012.5 c 128,-1,83
 403 1032 403 1032 413 1035 c 1,84,85
 403 1038 403 1038 330.5 1057.5 c 128,-1,86
 258 1077 258 1077 213.5 1092.5 c 128,-1,87
 169 1108 169 1108 136 1127 c 0,88,89
 83 1156 83 1156 83 1211 c 1,0,1
EndSplineSet
EndChar

StartChar: plus
Encoding: 43 43 14
Width: 1200
Flags: W
LayerCount: 2
Fore
SplineSet
525 76 m 1,0,-1
 525 495 l 1,1,-1
 93 495 l 1,2,-1
 93 632 l 1,3,-1
 525 632 l 1,4,-1
 525 1038 l 1,5,-1
 663 1038 l 1,6,-1
 663 632 l 1,7,-1
 1106 632 l 1,8,-1
 1106 495 l 1,9,-1
 663 495 l 1,10,-1
 663 76 l 1,11,-1
 525 76 l 1,0,-1
EndSplineSet
EndChar

StartChar: comma
Encoding: 44 44 15
Width: 401
Flags: W
LayerCount: 2
Fore
SplineSet
103 -232 m 1,0,-1
 132 279 l 1,1,-1
 325 279 l 1,2,-1
 212 -232 l 1,3,-1
 103 -232 l 1,0,-1
EndSplineSet
EndChar

StartChar: hyphen
Encoding: 45 45 16
Width: 792
Flags: W
LayerCount: 2
Fore
SplineSet
98 562 m 1,0,-1
 98 717 l 1,1,-1
 694 717 l 1,2,-1
 694 562 l 1,3,-1
 98 562 l 1,0,-1
EndSplineSet
EndChar

StartChar: period
Encoding: 46 46 17
Width: 484
Flags: W
LayerCount: 2
Fore
SplineSet
246 -1 m 0,0,1
 184 -1 184 -1 141 41.5 c 128,-1,2
 98 84 98 84 98 145 c 0,3,4
 98 205 98 205 141.5 248 c 128,-1,5
 185 291 185 291 246 291 c 128,-1,6
 307 291 307 291 349.5 248 c 128,-1,7
 392 205 392 205 392 145 c 0,8,9
 392 84 392 84 349.5 41.5 c 128,-1,10
 307 -1 307 -1 246 -1 c 0,0,1
EndSplineSet
EndChar

StartChar: slash
Encoding: 47 47 18
Width: 852
Flags: W
LayerCount: 2
Fore
SplineSet
-5 0 m 1,0,-1
 684 1481 l 1,1,-1
 856 1481 l 1,2,-1
 170 0 l 1,3,-1
 -5 0 l 1,0,-1
EndSplineSet
EndChar

StartChar: zero
Encoding: 48 48 19
Width: 1320
Flags: W
LayerCount: 2
Fore
SplineSet
667 118 m 0,0,1
 737 118 737 118 792.5 135.5 c 128,-1,2
 848 153 848 153 886 182 c 128,-1,3
 924 211 924 211 951.5 258 c 128,-1,4
 979 305 979 305 995 353.5 c 128,-1,5
 1011 402 1011 402 1020 469.5 c 128,-1,6
 1029 537 1029 537 1031.5 595.5 c 128,-1,7
 1034 654 1034 654 1034 732 c 0,8,9
 1034 811 1034 811 1031 874 c 128,-1,10
 1028 937 1028 937 1018 1004.5 c 128,-1,11
 1008 1072 1008 1072 991.5 1122.5 c 128,-1,12
 975 1173 975 1173 947.5 1220 c 128,-1,13
 920 1267 920 1267 882 1297 c 128,-1,14
 844 1327 844 1327 789.5 1344.5 c 128,-1,15
 735 1362 735 1362 667 1362 c 128,-1,16
 599 1362 599 1362 544.5 1344.5 c 128,-1,17
 490 1327 490 1327 452 1298 c 128,-1,18
 414 1269 414 1269 386 1222.5 c 128,-1,19
 358 1176 358 1176 341.5 1126 c 128,-1,20
 325 1076 325 1076 315.5 1007.5 c 128,-1,21
 306 939 306 939 303 876 c 128,-1,22
 300 813 300 813 300 732 c 0,23,24
 300 661 300 661 302 607.5 c 128,-1,25
 304 554 304 554 310 493 c 128,-1,26
 316 432 316 432 328 387.5 c 128,-1,27
 340 343 340 343 358 298 c 128,-1,28
 376 253 376 253 404 222 c 128,-1,29
 432 191 432 191 468.5 166.5 c 128,-1,30
 505 142 505 142 555 130 c 128,-1,31
 605 118 605 118 667 118 c 0,0,1
667 -23 m 0,32,33
 514 -23 514 -23 406 27 c 128,-1,34
 298 77 298 77 235 176 c 128,-1,35
 172 275 172 275 143.5 409 c 128,-1,36
 115 543 115 543 115 725 c 0,37,38
 115 915 115 915 142 1053 c 128,-1,39
 169 1191 169 1191 231.5 1295 c 128,-1,40
 294 1399 294 1399 402.5 1451 c 128,-1,41
 511 1503 511 1503 667 1503 c 0,42,43
 790 1503 790 1503 883.5 1469 c 128,-1,44
 977 1435 977 1435 1040 1372.5 c 128,-1,45
 1103 1310 1103 1310 1143 1214 c 128,-1,46
 1183 1118 1183 1118 1200.5 1001.5 c 128,-1,47
 1218 885 1218 885 1218 736 c 0,48,49
 1218 589 1218 589 1202 475 c 128,-1,50
 1186 361 1186 361 1147.5 265 c 128,-1,51
 1109 169 1109 169 1046.5 107 c 128,-1,52
 984 45 984 45 889 11 c 128,-1,53
 794 -23 794 -23 667 -23 c 0,32,33
EndSplineSet
EndChar

StartChar: one
Encoding: 49 49 20
Width: 961
Flags: W
LayerCount: 2
Fore
SplineSet
168 0 m 1,0,-1
 168 137 l 1,1,-1
 444 137 l 1,2,-1
 444 1265 l 1,3,-1
 166 1191 l 1,4,-1
 166 1317 l 1,5,6
 266 1338 266 1338 327.5 1363.5 c 128,-1,7
 389 1389 389 1389 415.5 1415.5 c 128,-1,8
 442 1442 442 1442 459 1481 c 1,9,-1
 626 1481 l 1,10,-1
 626 137 l 1,11,-1
 898 137 l 1,12,-1
 898 0 l 1,13,-1
 168 0 l 1,0,-1
EndSplineSet
EndChar

StartChar: two
Encoding: 50 50 21
Width: 1172
Flags: W
LayerCount: 2
Fore
SplineSet
112 0 m 1,0,-1
 112 156 l 1,1,2
 438 459 438 459 536 557 c 0,3,4
 790 811 790 811 855 966 c 0,5,6
 883 1033 883 1033 883 1090 c 0,7,8
 883 1134 883 1134 876.5 1171 c 128,-1,9
 870 1208 870 1208 851 1244.5 c 128,-1,10
 832 1281 832 1281 802 1306 c 128,-1,11
 772 1331 772 1331 721 1346.5 c 128,-1,12
 670 1362 670 1362 603 1362 c 0,13,14
 527 1362 527 1362 447.5 1345.5 c 128,-1,15
 368 1329 368 1329 311.5 1306 c 128,-1,16
 255 1283 255 1283 218.5 1264.5 c 128,-1,17
 182 1246 182 1246 172 1237 c 1,18,-1
 135 1371 l 1,19,20
 192 1421 192 1421 330.5 1462 c 128,-1,21
 469 1503 469 1503 591 1503 c 0,22,23
 821 1503 821 1503 943.5 1400 c 128,-1,24
 1066 1297 1066 1297 1066 1115 c 0,25,26
 1066 1067 1066 1067 1054.5 1017.5 c 128,-1,27
 1043 968 1043 968 1026.5 923.5 c 128,-1,28
 1010 879 1010 879 975 825 c 128,-1,29
 940 771 940 771 908.5 728 c 128,-1,30
 877 685 877 685 820 623 c 128,-1,31
 763 561 763 561 719 516 c 128,-1,32
 675 471 675 471 597 397.5 c 128,-1,33
 519 324 519 324 463.5 274 c 128,-1,34
 408 224 408 224 312 137 c 1,35,-1
 1056 137 l 1,36,-1
 1056 0 l 1,37,-1
 112 0 l 1,0,-1
EndSplineSet
EndChar

StartChar: three
Encoding: 51 51 22
Width: 1164
Flags: W
LayerCount: 2
Fore
SplineSet
541 -23 m 0,0,1
 396 -23 396 -23 287.5 13.5 c 128,-1,2
 179 50 179 50 128 87 c 1,3,-1
 128 218 l 1,4,-1
 172 218 l 1,5,6
 212 183 212 183 318.5 150.5 c 128,-1,7
 425 118 425 118 549 118 c 0,8,9
 906 118 906 118 906 398 c 0,10,11
 906 552 906 552 809.5 641 c 128,-1,12
 713 730 713 730 511 730 c 2,13,-1
 357 730 l 1,14,-1
 357 854 l 1,15,-1
 500 854 l 2,16,17
 846 854 846 854 846 1111 c 0,18,19
 846 1362 846 1362 542 1362 c 0,20,21
 465 1362 465 1362 399 1353.5 c 128,-1,22
 333 1345 333 1345 294.5 1332.5 c 128,-1,23
 256 1320 256 1320 228 1308 c 128,-1,24
 200 1296 200 1296 189 1288 c 2,25,-1
 178 1279 l 1,26,-1
 128 1279 l 1,27,-1
 128 1399 l 1,28,29
 279 1503 279 1503 546 1503 c 0,30,31
 673 1503 673 1503 768.5 1471.5 c 128,-1,32
 864 1440 864 1440 918.5 1386.5 c 128,-1,33
 973 1333 973 1333 999.5 1269 c 128,-1,34
 1026 1205 1026 1205 1026 1133 c 0,35,36
 1026 995 1026 995 948 910.5 c 128,-1,37
 870 826 870 826 745 797 c 1,38,39
 893 765 893 765 986.5 660 c 128,-1,40
 1080 555 1080 555 1080 404 c 0,41,42
 1080 188 1080 188 939.5 82.5 c 128,-1,43
 799 -23 799 -23 541 -23 c 0,0,1
EndSplineSet
EndChar

StartChar: four
Encoding: 52 52 23
Width: 1192
Flags: W
LayerCount: 2
Fore
SplineSet
785 0 m 1,0,-1
 785 286 l 1,1,-1
 71 286 l 1,2,-1
 71 430 l 1,3,-1
 716 1481 l 1,4,-1
 968 1481 l 1,5,-1
 968 421 l 1,6,-1
 1134 421 l 1,7,-1
 1134 286 l 1,8,-1
 968 286 l 1,9,-1
 968 0 l 1,10,-1
 785 0 l 1,0,-1
251 421 m 1,11,-1
 785 421 l 1,12,-1
 785 1329 l 1,13,-1
 251 421 l 1,11,-1
EndSplineSet
EndChar

StartChar: five
Encoding: 53 53 24
Width: 1214
Flags: W
LayerCount: 2
Fore
SplineSet
592 -23 m 0,0,1
 317 -23 317 -23 142 78 c 1,2,-1
 142 217 l 1,3,-1
 193 217 l 1,4,5
 197 213 197 213 205 206.5 c 128,-1,6
 213 200 213 200 244.5 182.5 c 128,-1,7
 276 165 276 165 315 152 c 128,-1,8
 354 139 354 139 423.5 128.5 c 128,-1,9
 493 118 493 118 573 118 c 0,10,11
 674 118 674 118 748 141 c 128,-1,12
 822 164 822 164 863 205 c 128,-1,13
 904 246 904 246 922.5 294 c 128,-1,14
 941 342 941 342 941 400 c 0,15,16
 941 450 941 450 932.5 489.5 c 128,-1,17
 924 529 924 529 903 570 c 128,-1,18
 882 611 882 611 842 642.5 c 128,-1,19
 802 674 802 674 742.5 701.5 c 128,-1,20
 683 729 683 729 593.5 747 c 128,-1,21
 504 765 504 765 389 774 c 2,22,-1
 182 792 l 1,23,-1
 182 1481 l 1,24,-1
 991 1481 l 1,25,-1
 991 1344 l 1,26,-1
 342 1344 l 1,27,-1
 342 914 l 2,28,29
 342 913 342 913 468 905 c 1,30,31
 776 889 776 889 949 767 c 128,-1,32
 1122 645 1122 645 1122 420 c 0,33,34
 1122 201 1122 201 984.5 89 c 128,-1,35
 847 -23 847 -23 592 -23 c 0,0,1
EndSplineSet
EndChar

StartChar: six
Encoding: 54 54 25
Width: 1234
Flags: W
LayerCount: 2
Fore
SplineSet
630 -23 m 0,0,1
 402 -23 402 -23 262 127.5 c 128,-1,2
 122 278 122 278 122 536 c 0,3,4
 122 650 122 650 144.5 763 c 128,-1,5
 167 876 167 876 210 981.5 c 128,-1,6
 253 1087 253 1087 319 1178 c 128,-1,7
 385 1269 385 1269 467.5 1336.5 c 128,-1,8
 550 1404 550 1404 657.5 1442.5 c 128,-1,9
 765 1481 765 1481 885 1481 c 1,10,-1
 918 1349 l 1,11,12
 790 1348 790 1348 681.5 1293.5 c 128,-1,13
 573 1239 573 1239 497.5 1146.5 c 128,-1,14
 422 1054 422 1054 372.5 941 c 128,-1,15
 323 828 323 828 301 702 c 1,16,17
 328 755 328 755 377 794.5 c 128,-1,18
 426 834 426 834 481 853.5 c 128,-1,19
 536 873 536 873 582.5 881.5 c 128,-1,20
 629 890 629 890 667 890 c 0,21,22
 787 890 787 890 890 840.5 c 128,-1,23
 993 791 993 791 1060 689.5 c 128,-1,24
 1127 588 1127 588 1127 453 c 0,25,26
 1127 238 1127 238 989 107.5 c 128,-1,27
 851 -23 851 -23 630 -23 c 0,0,1
615 118 m 0,28,29
 708 118 708 118 775 145 c 128,-1,30
 842 172 842 172 879 220.5 c 128,-1,31
 916 269 916 269 933 326.5 c 128,-1,32
 950 384 950 384 950 455 c 0,33,34
 950 510 950 510 930.5 562.5 c 128,-1,35
 911 615 911 615 875 658 c 128,-1,36
 839 701 839 701 779.5 727 c 128,-1,37
 720 753 720 753 647 753 c 0,38,39
 559 753 559 753 493 726 c 128,-1,40
 427 699 427 699 388.5 652 c 128,-1,41
 350 605 350 605 331.5 547.5 c 128,-1,42
 313 490 313 490 313 422 c 0,43,44
 313 303 313 303 395 210.5 c 128,-1,45
 477 118 477 118 615 118 c 0,28,29
EndSplineSet
EndChar

StartChar: seven
Encoding: 55 55 26
Width: 1119
Flags: W
LayerCount: 2
Fore
SplineSet
305 0 m 1,0,-1
 841 1344 l 1,1,-1
 284 1344 l 1,2,-1
 284 1151 l 1,3,-1
 116 1151 l 1,4,-1
 116 1481 l 1,5,-1
 1022 1481 l 1,6,-1
 1022 1349 l 1,7,-1
 489 0 l 1,8,-1
 305 0 l 1,0,-1
EndSplineSet
EndChar

StartChar: eight
Encoding: 56 56 27
Width: 1254
Flags: W
LayerCount: 2
Fore
SplineSet
627 -23 m 0,0,1
 506 -23 506 -23 404 9.5 c 128,-1,2
 302 42 302 42 236 96 c 128,-1,3
 170 150 170 150 133 218 c 128,-1,4
 96 286 96 286 96 358 c 0,5,6
 96 422 96 422 120.5 481.5 c 128,-1,7
 145 541 145 541 181 584 c 128,-1,8
 217 627 217 627 271 669.5 c 128,-1,9
 325 712 325 712 370 738.5 c 128,-1,10
 415 765 415 765 472 794 c 1,11,12
 291 887 291 887 215 977.5 c 128,-1,13
 139 1068 139 1068 139 1169 c 0,14,15
 139 1311 139 1311 277 1407 c 128,-1,16
 415 1503 415 1503 629 1503 c 0,17,18
 854 1503 854 1503 987.5 1412 c 128,-1,19
 1121 1321 1121 1321 1121 1178 c 0,20,21
 1121 1057 1121 1057 1058 962 c 128,-1,22
 995 867 995 867 845 780 c 1,23,24
 1158 626 1158 626 1158 419 c 0,25,26
 1158 222 1158 222 1015.5 99.5 c 128,-1,27
 873 -23 873 -23 627 -23 c 0,0,1
636 118 m 0,28,29
 713 118 713 118 774 135 c 128,-1,30
 835 152 835 152 871.5 178.5 c 128,-1,31
 908 205 908 205 932 240.5 c 128,-1,32
 956 276 956 276 965 310 c 128,-1,33
 974 344 974 344 974 379 c 0,34,35
 974 582 974 582 576 727 c 1,36,37
 546 711 546 711 515 692.5 c 128,-1,38
 484 674 484 674 437.5 637.5 c 128,-1,39
 391 601 391 601 356.5 563 c 128,-1,40
 322 525 322 525 296.5 473 c 128,-1,41
 271 421 271 421 271 369 c 0,42,43
 271 118 271 118 636 118 c 0,28,29
740 835 m 1,44,45
 743 838 743 838 765.5 856 c 128,-1,46
 788 874 788 874 803 887.5 c 128,-1,47
 818 901 818 901 843 926 c 128,-1,48
 868 951 868 951 885.5 976 c 128,-1,49
 903 1001 903 1001 920.5 1032 c 128,-1,50
 938 1063 938 1063 947 1099 c 128,-1,51
 956 1135 956 1135 956 1172 c 0,52,53
 956 1265 956 1265 867.5 1313.5 c 128,-1,54
 779 1362 779 1362 643 1362 c 0,55,56
 619 1362 619 1362 597 1361 c 128,-1,57
 575 1360 575 1360 541 1355.5 c 128,-1,58
 507 1351 507 1351 479.5 1343 c 128,-1,59
 452 1335 452 1335 422 1320 c 128,-1,60
 392 1305 392 1305 371.5 1285 c 128,-1,61
 351 1265 351 1265 337.5 1234 c 128,-1,62
 324 1203 324 1203 324 1164 c 0,63,64
 324 1120 324 1120 366 1069 c 128,-1,65
 408 1018 408 1018 472.5 974 c 128,-1,66
 537 930 537 930 607 893.5 c 128,-1,67
 677 857 677 857 740 835 c 1,44,45
EndSplineSet
EndChar

StartChar: nine
Encoding: 57 57 28
Width: 1221
Flags: W
LayerCount: 2
Fore
SplineSet
348 -23 m 1,0,-1
 320 104 l 1,1,2
 447 105 447 105 558 160 c 128,-1,3
 669 215 669 215 745 306 c 128,-1,4
 821 397 821 397 870 511 c 128,-1,5
 919 625 919 625 933 748 c 1,6,7
 906 697 906 697 858 659 c 128,-1,8
 810 621 810 621 755.5 602.5 c 128,-1,9
 701 584 701 584 655.5 576 c 128,-1,10
 610 568 610 568 572 568 c 0,11,12
 483 568 483 568 401 597 c 128,-1,13
 319 626 319 626 254 680 c 128,-1,14
 189 734 189 734 150 818 c 128,-1,15
 111 902 111 902 111 1004 c 0,16,17
 111 1219 111 1219 248.5 1350 c 128,-1,18
 386 1481 386 1481 606 1481 c 0,19,20
 835 1481 835 1481 975 1330.5 c 128,-1,21
 1115 1180 1115 1180 1115 922 c 0,22,23
 1115 776 1115 776 1083 638 c 128,-1,24
 1051 500 1051 500 986.5 380.5 c 128,-1,25
 922 261 922 261 831.5 171 c 128,-1,26
 741 81 741 81 616.5 29 c 128,-1,27
 492 -23 492 -23 348 -23 c 1,0,-1
591 705 m 0,28,29
 679 705 679 705 745 731.5 c 128,-1,30
 811 758 811 758 849 805 c 128,-1,31
 887 852 887 852 905.5 909.5 c 128,-1,32
 924 967 924 967 924 1034 c 0,33,34
 924 1162 924 1162 842 1262 c 128,-1,35
 760 1362 760 1362 623 1362 c 0,36,37
 548 1362 548 1362 489.5 1342.5 c 128,-1,38
 431 1323 431 1323 393.5 1290 c 128,-1,39
 356 1257 356 1257 332 1210.5 c 128,-1,40
 308 1164 308 1164 298 1113 c 128,-1,41
 288 1062 288 1062 288 1003 c 0,42,43
 288 927 288 927 320.5 861 c 128,-1,44
 353 795 353 795 423.5 750 c 128,-1,45
 494 705 494 705 591 705 c 0,28,29
EndSplineSet
EndChar

StartChar: colon
Encoding: 58 58 29
Width: 486
Flags: W
LayerCount: 2
Fore
SplineSet
243 0 m 0,0,1
 180 0 180 0 135.5 44.5 c 128,-1,2
 91 89 91 89 91 151 c 0,3,4
 91 214 91 214 135.5 258.5 c 128,-1,5
 180 303 180 303 243 303 c 0,6,7
 305 303 305 303 350 258.5 c 128,-1,8
 395 214 395 214 395 151 c 0,9,10
 395 89 395 89 350 44.5 c 128,-1,11
 305 0 305 0 243 0 c 0,0,1
243 728 m 0,12,13
 180 728 180 728 135.5 773 c 128,-1,14
 91 818 91 818 91 881 c 0,15,16
 91 943 91 943 135.5 987.5 c 128,-1,17
 180 1032 180 1032 243 1032 c 0,18,19
 305 1032 305 1032 350 987.5 c 128,-1,20
 395 943 395 943 395 881 c 0,21,22
 395 818 395 818 350 773 c 128,-1,23
 305 728 305 728 243 728 c 0,12,13
EndSplineSet
EndChar

StartChar: semicolon
Encoding: 59 59 30
Width: 458
Flags: W
LayerCount: 2
Fore
SplineSet
125 -232 m 1,0,-1
 154 279 l 1,1,-1
 346 279 l 1,2,-1
 233 -232 l 1,3,-1
 125 -232 l 1,0,-1
243 732 m 0,4,5
 180 732 180 732 136 776 c 128,-1,6
 92 820 92 820 92 883 c 0,7,8
 92 945 92 945 136 988.5 c 128,-1,9
 180 1032 180 1032 243 1032 c 0,10,11
 305 1032 305 1032 349 988.5 c 128,-1,12
 393 945 393 945 393 883 c 0,13,14
 393 820 393 820 349 776 c 128,-1,15
 305 732 305 732 243 732 c 0,4,5
EndSplineSet
EndChar

StartChar: less
Encoding: 60 60 31
Width: 1114
Flags: W
LayerCount: 2
Fore
SplineSet
1109 -14 m 1,0,-1
 1 504 l 1,1,-1
 1 641 l 1,2,-1
 1109 1157 l 1,3,-1
 1109 979 l 1,4,-1
 192 569 l 1,5,-1
 1109 155 l 1,6,-1
 1109 -14 l 1,0,-1
EndSplineSet
EndChar

StartChar: equal
Encoding: 61 61 32
Width: 1210
Flags: W
LayerCount: 2
Fore
SplineSet
98 335 m 1,0,-1
 98 460 l 1,1,-1
 1112 460 l 1,2,-1
 1112 335 l 1,3,-1
 98 335 l 1,0,-1
98 793 m 1,4,-1
 98 918 l 1,5,-1
 1112 918 l 1,6,-1
 1112 793 l 1,7,-1
 98 793 l 1,4,-1
EndSplineSet
EndChar

StartChar: greater
Encoding: 62 62 33
Width: 1114
Flags: W
LayerCount: 2
Fore
SplineSet
6 -14 m 1,0,-1
 6 165 l 1,1,-1
 923 575 l 1,2,-1
 6 989 l 1,3,-1
 6 1157 l 1,4,-1
 1114 640 l 1,5,-1
 1114 502 l 1,6,-1
 6 -14 l 1,0,-1
EndSplineSet
EndChar

StartChar: question
Encoding: 63 63 34
Width: 906
Flags: W
LayerCount: 2
Fore
SplineSet
366 459 m 1,0,-1
 307 500 l 1,1,2
 475 732 475 732 525 809 c 0,3,4
 675 1041 675 1041 675 1158 c 0,5,6
 675 1249 675 1249 619.5 1306.5 c 128,-1,7
 564 1364 564 1364 444 1364 c 0,8,9
 352 1364 352 1364 253 1328.5 c 128,-1,10
 154 1293 154 1293 73 1240 c 1,11,-1
 73 1384 l 1,12,13
 271 1503 271 1503 461 1503 c 0,14,15
 646 1503 646 1503 740 1409 c 128,-1,16
 834 1315 834 1315 834 1174 c 0,17,18
 834 1121 834 1121 817 1063 c 128,-1,19
 800 1005 800 1005 777 955.5 c 128,-1,20
 754 906 754 906 710.5 844.5 c 128,-1,21
 667 783 667 783 634.5 742.5 c 128,-1,22
 602 702 602 702 543.5 639.5 c 128,-1,23
 485 577 485 577 455 547.5 c 128,-1,24
 425 518 425 518 366 459 c 1,0,-1
350 -2 m 128,-1,26
 289 -2 289 -2 246 40 c 128,-1,27
 203 82 203 82 203 142 c 0,28,29
 203 203 203 203 246 246 c 128,-1,30
 289 289 289 289 350 289 c 0,31,32
 410 289 410 289 452 246 c 128,-1,33
 494 203 494 203 494 142 c 128,-1,34
 494 81 494 81 452.5 39.5 c 128,-1,25
 411 -2 411 -2 350 -2 c 128,-1,26
EndSplineSet
EndChar

StartChar: at
Encoding: 64 64 35
Width: 1691
Flags: W
LayerCount: 2
Fore
SplineSet
841 -119 m 0,0,1
 495 -119 495 -119 290 81 c 128,-1,2
 85 281 85 281 85 609 c 0,3,4
 85 772 85 772 144.5 912.5 c 128,-1,5
 204 1053 204 1053 308 1152.5 c 128,-1,6
 412 1252 412 1252 558.5 1308.5 c 128,-1,7
 705 1365 705 1365 873 1365 c 0,8,9
 1085 1365 1085 1365 1252.5 1277 c 128,-1,10
 1420 1189 1420 1189 1513 1033 c 128,-1,11
 1606 877 1606 877 1606 682 c 0,12,13
 1606 461 1606 461 1508 315.5 c 128,-1,14
 1410 170 1410 170 1259 170 c 0,15,16
 1176 170 1176 170 1116.5 215.5 c 128,-1,17
 1057 261 1057 261 1044 324 c 1,18,19
 1006 258 1006 258 929 226 c 128,-1,20
 852 194 852 194 770 194 c 0,21,22
 683 194 683 194 614.5 226 c 128,-1,23
 546 258 546 258 504 313.5 c 128,-1,24
 462 369 462 369 440.5 439 c 128,-1,25
 419 509 419 509 419 588 c 0,26,27
 419 787 419 787 525.5 917 c 128,-1,28
 632 1047 632 1047 816 1047 c 0,29,30
 909 1047 909 1047 979 1007.5 c 128,-1,31
 1049 968 1049 968 1083 920 c 1,32,-1
 1104 1015 l 1,33,-1
 1206 1015 l 1,34,-1
 1144 470 l 2,35,36
 1140 439 1140 439 1140 410 c 0,37,38
 1140 360 1140 360 1151 327 c 128,-1,39
 1162 294 1162 294 1182.5 279.5 c 128,-1,40
 1203 265 1203 265 1222 259.5 c 128,-1,41
 1241 254 1241 254 1267 254 c 0,42,43
 1361 254 1361 254 1426 367.5 c 128,-1,44
 1491 481 1491 481 1491 664 c 0,45,46
 1491 761 1491 761 1467 848.5 c 128,-1,47
 1443 936 1443 936 1393 1011.5 c 128,-1,48
 1343 1087 1343 1087 1271 1142.5 c 128,-1,49
 1199 1198 1199 1198 1098 1229.5 c 128,-1,50
 997 1261 997 1261 877 1261 c 0,51,52
 750 1261 750 1261 643.5 1225.5 c 128,-1,53
 537 1190 537 1190 461.5 1128.5 c 128,-1,54
 386 1067 386 1067 333 984 c 128,-1,55
 280 901 280 901 255 806 c 128,-1,56
 230 711 230 711 230 608 c 0,57,58
 230 457 230 457 275.5 338.5 c 128,-1,59
 321 220 321 220 403.5 144.5 c 128,-1,60
 486 69 486 69 597.5 30 c 128,-1,61
 709 -9 709 -9 843 -9 c 0,62,63
 1057 -9 1057 -9 1241 92 c 1,64,-1
 1284 -1 l 1,65,66
 1193 -60 1193 -60 1075.5 -89.5 c 128,-1,67
 958 -119 958 -119 841 -119 c 0,0,1
793 279 m 0,68,69
 841 279 841 279 885 292.5 c 128,-1,70
 929 306 929 306 956 325.5 c 128,-1,71
 983 345 983 345 999 360.5 c 128,-1,72
 1015 376 1015 376 1018 385 c 1,73,-1
 1068 838 l 1,74,75
 1034 886 1034 886 974.5 918.5 c 128,-1,76
 915 951 915 951 835 951 c 0,77,78
 707 951 707 951 632.5 863.5 c 128,-1,79
 558 776 558 776 558 589 c 0,80,81
 558 540 558 540 565 496.5 c 128,-1,82
 572 453 572 453 589 412.5 c 128,-1,83
 606 372 606 372 632 343 c 128,-1,84
 658 314 658 314 699 296.5 c 128,-1,85
 740 279 740 279 793 279 c 0,68,69
EndSplineSet
EndChar

StartChar: A
Encoding: 65 65 36
Width: 1302
Flags: W
LayerCount: 2
Fore
SplineSet
23 0 m 1,0,-1
 524 1481 l 1,1,-1
 759 1481 l 1,2,-1
 1279 0 l 1,3,-1
 1095 0 l 1,4,-1
 964 397 l 1,5,-1
 339 397 l 1,6,-1
 206 0 l 1,7,-1
 23 0 l 1,0,-1
384 533 m 1,8,-1
 915 533 l 1,9,-1
 643 1347 l 1,10,-1
 384 533 l 1,8,-1
EndSplineSet
EndChar

StartChar: B
Encoding: 66 66 37
Width: 1272
Flags: W
LayerCount: 2
Fore
SplineSet
135 0 m 1,0,-1
 135 1481 l 1,1,-1
 556 1481 l 2,2,3
 829 1481 829 1481 964.5 1396 c 128,-1,4
 1100 1311 1100 1311 1100 1106 c 0,5,6
 1100 1010 1100 1010 1037.5 929.5 c 128,-1,7
 975 849 975 849 864 820 c 1,8,-1
 864 813 l 1,9,10
 1013 794 1013 794 1107 691.5 c 128,-1,11
 1201 589 1201 589 1201 451 c 0,12,13
 1201 333 1201 333 1160.5 245 c 128,-1,14
 1120 157 1120 157 1044 104 c 128,-1,15
 968 51 968 51 866 25.5 c 128,-1,16
 764 0 764 0 634 0 c 2,17,-1
 135 0 l 1,0,-1
318 137 m 1,18,-1
 664 137 l 2,19,20
 731 137 731 137 785 148 c 128,-1,21
 839 159 839 159 875 177 c 128,-1,22
 911 195 911 195 938 222 c 128,-1,23
 965 249 965 249 980 275.5 c 128,-1,24
 995 302 995 302 1004 335 c 128,-1,25
 1013 368 1013 368 1015.5 394.5 c 128,-1,26
 1018 421 1018 421 1018 451 c 0,27,28
 1018 571 1018 571 913 649 c 128,-1,29
 808 727 808 727 665 727 c 2,30,-1
 318 727 l 1,31,-1
 318 137 l 1,18,-1
318 856 m 1,32,-1
 607 856 l 2,33,34
 764 856 764 856 840.5 926.5 c 128,-1,35
 917 997 917 997 917 1111 c 0,36,37
 917 1216 917 1216 836 1280 c 128,-1,38
 755 1344 755 1344 604 1344 c 2,39,-1
 318 1344 l 1,40,-1
 318 856 l 1,32,-1
EndSplineSet
EndChar

StartChar: C
Encoding: 67 67 38
Width: 1227
Flags: W
LayerCount: 2
Fore
SplineSet
738 -23 m 0,0,1
 403 -23 403 -23 249 172.5 c 128,-1,2
 95 368 95 368 95 746 c 0,3,4
 95 1110 95 1110 268.5 1306.5 c 128,-1,5
 442 1503 442 1503 745 1503 c 0,6,7
 878 1503 878 1503 992 1465.5 c 128,-1,8
 1106 1428 1106 1428 1162 1384 c 1,9,-1
 1120 1255 l 1,10,11
 1115 1259 1115 1259 1105 1266.5 c 128,-1,12
 1095 1274 1095 1274 1060 1292.5 c 128,-1,13
 1025 1311 1025 1311 985 1325 c 128,-1,14
 945 1339 945 1339 880 1350.5 c 128,-1,15
 815 1362 815 1362 744 1362 c 0,16,17
 661 1362 661 1362 592 1342 c 128,-1,18
 523 1322 523 1322 463 1276 c 128,-1,19
 403 1230 403 1230 361.5 1159.5 c 128,-1,20
 320 1089 320 1089 296.5 983.5 c 128,-1,21
 273 878 273 878 273 743 c 0,22,23
 273 574 273 574 305 452 c 128,-1,24
 337 330 337 330 399.5 257.5 c 128,-1,25
 462 185 462 185 547 151.5 c 128,-1,26
 632 118 632 118 744 118 c 0,27,28
 849 118 849 118 944.5 147 c 128,-1,29
 1040 176 1040 176 1084 204 c 1,30,-1
 1127 233 l 1,31,-1
 1160 105 l 1,32,33
 1094 49 1094 49 986 13 c 128,-1,34
 878 -23 878 -23 738 -23 c 0,0,1
EndSplineSet
EndChar

StartChar: D
Encoding: 68 68 39
Width: 1416
Flags: W
LayerCount: 2
Fore
SplineSet
318 137 m 1,0,-1
 574 137 l 2,1,2
 862 137 862 137 999.5 283.5 c 128,-1,3
 1137 430 1137 430 1137 740 c 0,4,5
 1137 1034 1137 1034 994 1188 c 128,-1,6
 851 1342 851 1342 579 1342 c 2,7,-1
 318 1342 l 1,8,-1
 318 137 l 1,0,-1
135 0 m 1,9,-1
 135 1481 l 1,10,-1
 552 1481 l 2,11,12
 921 1481 921 1481 1120 1296.5 c 128,-1,13
 1319 1112 1319 1112 1319 740 c 0,14,15
 1319 366 1319 366 1128 183 c 128,-1,16
 937 0 937 0 547 0 c 2,17,-1
 135 0 l 1,9,-1
EndSplineSet
EndChar

StartChar: E
Encoding: 69 69 40
Width: 1052
Flags: W
LayerCount: 2
Fore
SplineSet
135 0 m 1,0,-1
 135 1481 l 1,1,-1
 955 1481 l 1,2,-1
 955 1344 l 1,3,-1
 318 1344 l 1,4,-1
 318 851 l 1,5,-1
 890 851 l 1,6,-1
 890 715 l 1,7,-1
 318 715 l 1,8,-1
 318 137 l 1,9,-1
 976 137 l 1,10,-1
 976 0 l 1,11,-1
 135 0 l 1,0,-1
EndSplineSet
EndChar

StartChar: F
Encoding: 70 70 41
Width: 994
Flags: W
LayerCount: 2
Fore
SplineSet
135 0 m 1,0,-1
 135 1481 l 1,1,-1
 965 1481 l 1,2,-1
 965 1343 l 1,3,-1
 318 1343 l 1,4,-1
 318 855 l 1,5,-1
 907 855 l 1,6,-1
 907 717 l 1,7,-1
 318 717 l 1,8,-1
 318 0 l 1,9,-1
 135 0 l 1,0,-1
EndSplineSet
EndChar

StartChar: G
Encoding: 71 71 42
Width: 1412
Flags: W
LayerCount: 2
Fore
SplineSet
776 -23 m 0,0,1
 95 -23 95 -23 95 746 c 0,2,3
 95 1113 95 1113 278.5 1308 c 128,-1,4
 462 1503 462 1503 798 1503 c 0,5,6
 1035 1503 1035 1503 1246 1395 c 1,7,-1
 1206 1259 l 2,8,9
 1206 1260 1206 1260 1185.5 1270.5 c 128,-1,10
 1165 1281 1165 1281 1126 1296.5 c 128,-1,11
 1087 1312 1087 1312 1039 1326.5 c 128,-1,12
 991 1341 991 1341 928 1351.5 c 128,-1,13
 865 1362 865 1362 806 1362 c 0,14,15
 557 1362 557 1362 417 1210.5 c 128,-1,16
 277 1059 277 1059 277 746 c 0,17,18
 277 420 277 420 402 269 c 128,-1,19
 527 118 527 118 799 118 c 0,20,21
 895 118 895 118 977.5 134.5 c 128,-1,22
 1060 151 1060 151 1096.5 166.5 c 128,-1,23
 1133 182 1133 182 1131 184 c 1,24,-1
 1131 665 l 1,25,-1
 731 665 l 1,26,-1
 731 806 l 1,27,-1
 1290 806 l 1,28,-1
 1290 106 l 1,29,30
 1265 89 1265 89 1226 70.5 c 128,-1,31
 1187 52 1187 52 1122.5 29 c 128,-1,32
 1058 6 1058 6 966.5 -8.5 c 128,-1,33
 875 -23 875 -23 776 -23 c 0,0,1
EndSplineSet
EndChar

StartChar: H
Encoding: 72 72 43
Width: 1390
Flags: W
LayerCount: 2
Fore
SplineSet
135 0 m 1,0,-1
 135 1481 l 1,1,-1
 318 1481 l 1,2,-1
 318 830 l 1,3,-1
 1072 830 l 1,4,-1
 1072 1481 l 1,5,-1
 1255 1481 l 1,6,-1
 1255 0 l 1,7,-1
 1072 0 l 1,8,-1
 1072 697 l 1,9,-1
 318 697 l 1,10,-1
 318 0 l 1,11,-1
 135 0 l 1,0,-1
EndSplineSet
EndChar

StartChar: I
Encoding: 73 73 44
Width: 828
Flags: W
LayerCount: 2
Fore
SplineSet
99 0 m 1,0,-1
 99 125 l 1,1,-1
 323 125 l 1,2,-1
 323 1355 l 1,3,-1
 99 1355 l 1,4,-1
 99 1481 l 1,5,-1
 730 1481 l 1,6,-1
 730 1355 l 1,7,-1
 506 1355 l 1,8,-1
 506 125 l 1,9,-1
 730 125 l 1,10,-1
 730 0 l 1,11,-1
 99 0 l 1,0,-1
EndSplineSet
EndChar

StartChar: J
Encoding: 74 74 45
Width: 884
Flags: W
LayerCount: 2
Fore
SplineSet
378 -19 m 0,0,1
 241 -19 241 -19 95 54 c 1,2,-1
 127 184 l 1,3,4
 134 180 l 1,5,6
 142 177 142 177 151 172.5 c 128,-1,7
 160 168 160 168 174.5 162 c 128,-1,8
 189 156 189 156 204 150.5 c 128,-1,9
 219 145 219 145 238 139 c 128,-1,10
 257 133 257 133 275.5 128.5 c 128,-1,11
 294 124 294 124 314.5 121.5 c 128,-1,12
 335 119 335 119 354 119 c 0,13,14
 464 119 464 119 516 188.5 c 128,-1,15
 568 258 568 258 568 432 c 2,16,-1
 568 1344 l 1,17,-1
 329 1344 l 1,18,-1
 329 1481 l 1,19,-1
 751 1481 l 1,20,-1
 751 430 l 2,21,22
 751 202 751 202 663.5 91.5 c 128,-1,23
 576 -19 576 -19 378 -19 c 0,0,1
EndSplineSet
EndChar

StartChar: K
Encoding: 75 75 46
Width: 1253
Flags: W
LayerCount: 2
Fore
SplineSet
135 0 m 1,0,-1
 135 1481 l 1,1,-1
 318 1481 l 1,2,-1
 318 707 l 1,3,-1
 319 707 l 1,4,-1
 602 1029 l 1,5,6
 612 1038 612 1038 707 1151 c 128,-1,7
 802 1264 802 1264 892 1372 c 2,8,-1
 982 1481 l 1,9,-1
 1219 1481 l 1,10,-1
 705 892 l 1,11,-1
 1246 0 l 1,12,-1
 1037 0 l 1,13,14
 948 152 948 152 645 662 c 1,15,-1
 578 772 l 1,16,-1
 318 495 l 1,17,-1
 318 0 l 1,18,-1
 135 0 l 1,0,-1
EndSplineSet
EndChar

StartChar: L
Encoding: 76 76 47
Width: 1021
Flags: W
LayerCount: 2
Fore
SplineSet
135 0 m 1,0,-1
 135 1481 l 1,1,-1
 318 1481 l 1,2,-1
 318 137 l 1,3,-1
 986 137 l 1,4,-1
 986 0 l 1,5,-1
 135 0 l 1,0,-1
EndSplineSet
EndChar

StartChar: M
Encoding: 77 77 48
Width: 1576
Flags: W
LayerCount: 2
Fore
SplineSet
135 0 m 1,0,-1
 135 1481 l 1,1,-1
 318 1481 l 1,2,-1
 793 636 l 1,3,-1
 1266 1481 l 1,4,-1
 1441 1481 l 1,5,-1
 1441 0 l 1,6,-1
 1259 0 l 1,7,-1
 1259 955 l 1,8,-1
 1266 1171 l 1,9,-1
 866 449 l 1,10,-1
 722 449 l 1,11,-1
 311 1171 l 1,12,-1
 318 955 l 1,13,-1
 318 0 l 1,14,-1
 135 0 l 1,0,-1
EndSplineSet
EndChar

StartChar: N
Encoding: 78 78 49
Width: 1500
Flags: W
LayerCount: 2
Fore
SplineSet
135 0 m 1,0,-1
 135 1481 l 1,1,-1
 281 1481 l 1,2,3
 1187 286 1187 286 1189 283 c 1,4,-1
 1183 536 l 1,5,-1
 1183 1481 l 1,6,-1
 1365 1481 l 1,7,-1
 1365 0 l 1,8,-1
 1204 0 l 1,9,-1
 311 1180 l 1,10,-1
 317 981 l 1,11,-1
 317 0 l 1,12,-1
 135 0 l 1,0,-1
EndSplineSet
EndChar

StartChar: O
Encoding: 79 79 50
Width: 1554
Flags: W
LayerCount: 2
Fore
SplineSet
777 118 m 0,0,1
 889 118 889 118 976.5 153 c 128,-1,2
 1064 188 1064 188 1119 245.5 c 128,-1,3
 1174 303 1174 303 1209.5 385 c 128,-1,4
 1245 467 1245 467 1259.5 553.5 c 128,-1,5
 1274 640 1274 640 1274 740 c 0,6,7
 1274 839 1274 839 1260 925.5 c 128,-1,8
 1246 1012 1246 1012 1210.5 1094 c 128,-1,9
 1175 1176 1175 1176 1120 1234 c 128,-1,10
 1065 1292 1065 1292 977.5 1327 c 128,-1,11
 890 1362 890 1362 777 1362 c 0,12,13
 662 1362 662 1362 572.5 1325.5 c 128,-1,14
 483 1289 483 1289 428.5 1230.5 c 128,-1,15
 374 1172 374 1172 339 1088.5 c 128,-1,16
 304 1005 304 1005 291 921 c 128,-1,17
 278 837 278 837 278 740 c 0,18,19
 278 639 278 639 291.5 553 c 128,-1,20
 305 467 305 467 340 384.5 c 128,-1,21
 375 302 375 302 429.5 245 c 128,-1,22
 484 188 484 188 573 153 c 128,-1,23
 662 118 662 118 777 118 c 0,0,1
777 -23 m 0,24,25
 607 -23 607 -23 476 31 c 128,-1,26
 345 85 345 85 262 186 c 128,-1,27
 179 287 179 287 137 426 c 128,-1,28
 95 565 95 565 95 740 c 0,29,30
 95 1098 95 1098 267.5 1300.5 c 128,-1,31
 440 1503 440 1503 777 1503 c 0,32,33
 1003 1503 1003 1503 1157.5 1408.5 c 128,-1,34
 1312 1314 1312 1314 1385.5 1145 c 128,-1,35
 1459 976 1459 976 1459 740 c 0,36,37
 1459 507 1459 507 1386 338 c 128,-1,38
 1313 169 1313 169 1158 73 c 128,-1,39
 1003 -23 1003 -23 777 -23 c 0,24,25
EndSplineSet
EndChar

StartChar: P
Encoding: 80 80 51
Width: 1145
Flags: W
LayerCount: 2
Fore
SplineSet
135 0 m 1,0,-1
 135 1481 l 1,1,-1
 537 1481 l 2,2,3
 810 1481 810 1481 944 1379.5 c 128,-1,4
 1078 1278 1078 1278 1078 1054 c 0,5,6
 1078 908 1078 908 1001.5 810 c 128,-1,7
 925 712 925 712 789.5 667 c 128,-1,8
 654 622 654 622 464 622 c 2,9,-1
 318 622 l 1,10,-1
 318 0 l 1,11,-1
 135 0 l 1,0,-1
318 759 m 1,12,-1
 454 759 l 2,13,14
 680 759 680 759 788 829 c 128,-1,15
 896 899 896 899 896 1056 c 0,16,17
 896 1130 896 1130 879.5 1181 c 128,-1,18
 863 1232 863 1232 823 1270 c 128,-1,19
 783 1308 783 1308 712 1326 c 128,-1,20
 641 1344 641 1344 535 1344 c 2,21,-1
 318 1344 l 1,22,-1
 318 759 l 1,12,-1
EndSplineSet
EndChar

StartChar: Q
Encoding: 81 81 52
Width: 1554
Flags: W
LayerCount: 2
Fore
SplineSet
936 139 m 1,0,1
 1030 166 1030 166 1097.5 225.5 c 128,-1,2
 1165 285 1165 285 1202.5 368 c 128,-1,3
 1240 451 1240 451 1257 542.5 c 128,-1,4
 1274 634 1274 634 1274 740 c 0,5,6
 1274 839 1274 839 1260 925.5 c 128,-1,7
 1246 1012 1246 1012 1210.5 1094 c 128,-1,8
 1175 1176 1175 1176 1120 1234 c 128,-1,9
 1065 1292 1065 1292 977.5 1327 c 128,-1,10
 890 1362 890 1362 777 1362 c 0,11,12
 662 1362 662 1362 572.5 1325.5 c 128,-1,13
 483 1289 483 1289 428.5 1230.5 c 128,-1,14
 374 1172 374 1172 339 1088.5 c 128,-1,15
 304 1005 304 1005 291 921 c 128,-1,16
 278 837 278 837 278 740 c 0,17,18
 278 639 278 639 291.5 553 c 128,-1,19
 305 467 305 467 339.5 385 c 128,-1,20
 374 303 374 303 428.5 246 c 128,-1,21
 483 189 483 189 571 154 c 128,-1,22
 659 119 659 119 773 118 c 1,23,-1
 715 260 l 1,24,-1
 887 260 l 1,25,-1
 936 139 l 1,0,1
777 -23 m 0,26,27
 607 -23 607 -23 476 31 c 128,-1,28
 345 85 345 85 262 186 c 128,-1,29
 179 287 179 287 137 426 c 128,-1,30
 95 565 95 565 95 740 c 0,31,32
 95 1098 95 1098 267.5 1300.5 c 128,-1,33
 440 1503 440 1503 777 1503 c 0,34,35
 1003 1503 1003 1503 1157.5 1408.5 c 128,-1,36
 1312 1314 1312 1314 1385.5 1145 c 128,-1,37
 1459 976 1459 976 1459 740 c 0,38,39
 1459 448 1459 448 1341 255 c 128,-1,40
 1223 62 1223 62 991 2 c 1,41,-1
 1133 -350 l 1,42,-1
 987 -407 l 1,43,-1
 830 -22 l 1,44,45
 813 -23 813 -23 777 -23 c 0,26,27
EndSplineSet
EndChar

StartChar: R
Encoding: 82 82 53
Width: 1257
Flags: W
LayerCount: 2
Fore
SplineSet
135 0 m 1,0,-1
 135 1481 l 1,1,-1
 642 1481 l 2,2,3
 722 1481 722 1481 787.5 1472.5 c 128,-1,4
 853 1464 853 1464 921.5 1439 c 128,-1,5
 990 1414 990 1414 1037 1373.5 c 128,-1,6
 1084 1333 1084 1333 1113.5 1263 c 128,-1,7
 1143 1193 1143 1193 1143 1100 c 0,8,9
 1143 950 1143 950 1070 854 c 128,-1,10
 997 758 997 758 847 708 c 1,11,-1
 1219 47 l 1,12,-1
 1219 0 l 1,13,-1
 1043 0 l 1,14,-1
 666 685 l 1,15,-1
 318 685 l 1,16,-1
 318 0 l 1,17,-1
 135 0 l 1,0,-1
318 822 m 1,18,-1
 641 822 l 2,19,20
 806 822 806 822 886 896 c 128,-1,21
 966 970 966 970 966 1098 c 0,22,23
 966 1214 966 1214 890.5 1279 c 128,-1,24
 815 1344 815 1344 657 1344 c 2,25,-1
 318 1344 l 1,26,-1
 318 822 l 1,18,-1
EndSplineSet
EndChar

StartChar: S
Encoding: 83 83 54
Width: 1209
Flags: W
LayerCount: 2
Fore
SplineSet
591 -23 m 0,0,1
 298 -23 298 -23 82 126 c 1,2,-1
 106 266 l 1,3,-1
 135 266 l 1,4,5
 216 194 216 194 344.5 156 c 128,-1,6
 473 118 473 118 587 118 c 0,7,8
 688 118 688 118 763.5 140 c 128,-1,9
 839 162 839 162 880 199.5 c 128,-1,10
 921 237 921 237 940.5 280 c 128,-1,11
 960 323 960 323 960 373 c 0,12,13
 960 462 960 462 932.5 511.5 c 128,-1,14
 905 561 905 561 818.5 602.5 c 128,-1,15
 732 644 732 644 553 686 c 0,16,17
 317 741 317 741 214.5 833.5 c 128,-1,18
 112 926 112 926 112 1098 c 0,19,20
 112 1282 112 1282 260 1392.5 c 128,-1,21
 408 1503 408 1503 634 1503 c 0,22,23
 902 1503 902 1503 1082 1397 c 1,24,-1
 1067 1259 l 1,25,-1
 1050 1259 l 1,26,27
 991 1297 991 1297 878 1329.5 c 128,-1,28
 765 1362 765 1362 659 1362 c 0,29,30
 472 1362 472 1362 376 1286 c 128,-1,31
 280 1210 280 1210 280 1102 c 0,32,33
 280 1055 280 1055 291.5 1020.5 c 128,-1,34
 303 986 303 986 336.5 950.5 c 128,-1,35
 370 915 370 915 438 886.5 c 128,-1,36
 506 858 506 858 610 834 c 0,37,38
 727 808 727 808 806 782.5 c 128,-1,39
 885 757 885 757 951.5 721.5 c 128,-1,40
 1018 686 1018 686 1055.5 640.5 c 128,-1,41
 1093 595 1093 595 1113.5 532.5 c 128,-1,42
 1134 470 1134 470 1134 387 c 0,43,44
 1134 255 1134 255 1061 161 c 128,-1,45
 988 67 988 67 867 22 c 128,-1,46
 746 -23 746 -23 591 -23 c 0,0,1
EndSplineSet
EndChar

StartChar: T
Encoding: 84 84 55
Width: 1115
Flags: W
LayerCount: 2
Fore
SplineSet
467 0 m 1,0,-1
 467 1344 l 1,1,-1
 23 1344 l 1,2,-1
 23 1481 l 1,3,-1
 1091 1481 l 1,4,-1
 1091 1344 l 1,5,-1
 650 1344 l 1,6,-1
 650 0 l 1,7,-1
 467 0 l 1,0,-1
EndSplineSet
EndChar

StartChar: U
Encoding: 85 85 56
Width: 1423
Flags: W
LayerCount: 2
Fore
SplineSet
710 -23 m 0,0,1
 579 -23 579 -23 470.5 9 c 128,-1,2
 362 41 362 41 283 102.5 c 128,-1,3
 204 164 204 164 160 260 c 128,-1,4
 116 356 116 356 116 478 c 2,5,-1
 116 1481 l 1,6,-1
 298 1481 l 1,7,-1
 298 476 l 2,8,9
 298 118 298 118 710 118 c 0,10,11
 1125 118 1125 118 1125 476 c 2,12,-1
 1125 1481 l 1,13,-1
 1308 1481 l 1,14,-1
 1308 478 l 2,15,16
 1308 234 1308 234 1147.5 105.5 c 128,-1,17
 987 -23 987 -23 710 -23 c 0,0,1
EndSplineSet
EndChar

StartChar: V
Encoding: 86 86 57
Width: 1312
Flags: W
LayerCount: 2
Fore
SplineSet
530 0 m 1,0,-1
 -17 1481 l 1,1,-1
 173 1481 l 1,2,-1
 537 464 l 1,3,-1
 660 115 l 1,4,-1
 661 115 l 1,5,-1
 784 465 l 1,6,-1
 1137 1481 l 1,7,-1
 1329 1481 l 1,8,-1
 792 0 l 1,9,-1
 530 0 l 1,0,-1
EndSplineSet
EndChar

StartChar: W
Encoding: 87 87 58
Width: 1963
Flags: W
LayerCount: 2
Fore
SplineSet
410 0 m 1,0,-1
 12 1481 l 1,1,-1
 190 1481 l 1,2,-1
 441 530 l 1,3,-1
 504 284 l 1,4,-1
 507 284 l 1,5,-1
 577 529 l 1,6,-1
 860 1481 l 1,7,-1
 1119 1481 l 1,8,-1
 1397 526 l 1,9,-1
 1463 285 l 1,10,-1
 1524 525 l 1,11,-1
 1778 1481 l 1,12,-1
 1952 1481 l 1,13,-1
 1542 0 l 1,14,-1
 1366 0 l 1,15,-1
 993 1353 l 1,16,-1
 585 0 l 1,17,-1
 410 0 l 1,0,-1
EndSplineSet
EndChar

StartChar: X
Encoding: 88 88 59
Width: 1371
Flags: W
LayerCount: 2
Fore
SplineSet
-1 0 m 1,0,-1
 581 741 l 1,1,-1
 31 1481 l 1,2,-1
 218 1481 l 1,3,-1
 566 1004 l 1,4,-1
 681 848 l 1,5,-1
 802 1004 l 1,6,-1
 1159 1481 l 1,7,-1
 1372 1481 l 1,8,-1
 783 722 l 1,9,-1
 1337 0 l 1,10,-1
 1144 0 l 1,11,-1
 818 436 l 1,12,-1
 682 617 l 1,13,-1
 541 437 l 1,14,-1
 209 0 l 1,15,-1
 -1 0 l 1,0,-1
EndSplineSet
EndChar

StartChar: Y
Encoding: 89 89 60
Width: 1303
Flags: W
LayerCount: 2
Fore
SplineSet
552 0 m 1,0,-1
 552 683 l 1,1,-1
 -42 1481 l 1,2,-1
 156 1481 l 1,3,-1
 642 827 l 1,4,-1
 1142 1481 l 1,5,-1
 1344 1481 l 1,6,-1
 734 687 l 1,7,-1
 734 0 l 1,8,-1
 552 0 l 1,0,-1
EndSplineSet
EndChar

StartChar: Z
Encoding: 90 90 61
Width: 1101
Flags: W
LayerCount: 2
Fore
SplineSet
91 0 m 1,0,-1
 91 144 l 1,1,-1
 834 1344 l 1,2,-1
 98 1344 l 1,3,-1
 98 1481 l 1,4,-1
 1021 1481 l 1,5,-1
 1021 1345 l 1,6,-1
 284 137 l 1,7,-1
 1045 137 l 1,8,-1
 1045 0 l 1,9,-1
 91 0 l 1,0,-1
EndSplineSet
EndChar

StartChar: bracketleft
Encoding: 91 91 62
Width: 623
Flags: W
LayerCount: 2
Fore
SplineSet
95 -211 m 1,0,-1
 95 1481 l 1,1,-1
 540 1481 l 1,2,-1
 540 1344 l 1,3,-1
 277 1344 l 1,4,-1
 277 -75 l 1,5,-1
 540 -75 l 1,6,-1
 540 -211 l 1,7,-1
 95 -211 l 1,0,-1
EndSplineSet
EndChar

StartChar: backslash
Encoding: 92 92 63
Width: 852
Flags: W
LayerCount: 2
Fore
SplineSet
684 0 m 1,0,-1
 -6 1481 l 1,1,-1
 166 1481 l 1,2,-1
 854 0 l 1,3,-1
 684 0 l 1,0,-1
EndSplineSet
EndChar

StartChar: bracketright
Encoding: 93 93 64
Width: 624
Flags: W
LayerCount: 2
Fore
SplineSet
85 -211 m 1,0,-1
 85 -75 l 1,1,-1
 347 -75 l 1,2,-1
 347 1344 l 1,3,-1
 85 1344 l 1,4,-1
 85 1481 l 1,5,-1
 530 1481 l 1,6,-1
 530 -211 l 1,7,-1
 85 -211 l 1,0,-1
EndSplineSet
EndChar

StartChar: asciicircum
Encoding: 94 94 65
Width: 1358
Flags: W
LayerCount: 2
Fore
SplineSet
75 692 m 1,0,-1
 550 1481 l 1,1,-1
 781 1481 l 1,2,-1
 1284 694 l 1,3,-1
 1059 694 l 1,4,-1
 666 1366 l 1,5,-1
 290 692 l 1,6,-1
 75 692 l 1,0,-1
EndSplineSet
EndChar

StartChar: underscore
Encoding: 95 95 66
Width: 718
Flags: W
LayerCount: 2
Fore
SplineSet
6 -120 m 1,0,-1
 6 0 l 1,1,-1
 712 0 l 1,2,-1
 712 -120 l 1,3,-1
 6 -120 l 1,0,-1
EndSplineSet
EndChar

StartChar: grave
Encoding: 96 96 67
Width: 422
Flags: W
LayerCount: 2
Fore
SplineSet
417 1123 m 1,0,-1
 294 1123 l 1,1,-1
 11 1466 l 1,2,-1
 236 1466 l 1,3,-1
 417 1123 l 1,0,-1
EndSplineSet
EndChar

StartChar: a
Encoding: 97 97 68
Width: 1053
Flags: W
LayerCount: 2
Fore
SplineSet
401 -21 m 0,0,1
 256 -21 256 -21 165.5 60.5 c 128,-1,2
 75 142 75 142 73 274 c 1,3,4
 73 362 73 362 104.5 425.5 c 128,-1,5
 136 489 136 489 191 528.5 c 128,-1,6
 246 568 246 568 335.5 591 c 128,-1,7
 425 614 425 614 524.5 622 c 128,-1,8
 624 630 624 630 762 630 c 1,9,10
 762 790 762 790 709.5 854 c 128,-1,11
 657 918 657 918 527 918 c 0,12,13
 422 918 422 918 321.5 892.5 c 128,-1,14
 221 867 221 867 179 848 c 1,15,-1
 139 981 l 1,16,17
 171 1002 171 1002 287 1030 c 128,-1,18
 403 1058 403 1058 528 1058 c 0,19,20
 630 1058 630 1058 705 1035.5 c 128,-1,21
 780 1013 780 1013 825.5 975.5 c 128,-1,22
 871 938 871 938 898.5 880 c 128,-1,23
 926 822 926 822 935.5 760.5 c 128,-1,24
 945 699 945 699 945 619 c 2,25,-1
 945 0 l 1,26,-1
 762 0 l 1,27,-1
 762 239 l 1,28,29
 717 122 717 122 626 50.5 c 128,-1,30
 535 -21 535 -21 401 -21 c 0,0,1
431 116 m 0,31,32
 586 116 586 116 674 225.5 c 128,-1,33
 762 335 762 335 762 512 c 1,34,35
 609 512 609 512 504.5 495.5 c 128,-1,36
 400 479 400 479 344 447.5 c 128,-1,37
 288 416 288 416 265 376.5 c 128,-1,38
 242 337 242 337 242 282 c 0,39,40
 242 203 242 203 299 159.5 c 128,-1,41
 356 116 356 116 431 116 c 0,31,32
EndSplineSet
EndChar

StartChar: b
Encoding: 98 98 69
Width: 1152
Flags: W
LayerCount: 2
Fore
SplineSet
591 -21 m 0,0,1
 502 -21 502 -21 424.5 12 c 128,-1,2
 347 45 347 45 303 101 c 1,3,-1
 303 0 l 1,4,-1
 121 0 l 1,5,-1
 121 1481 l 1,6,-1
 303 1481 l 1,7,-1
 303 888 l 1,8,9
 343 964 343 964 442 1011 c 128,-1,10
 541 1058 541 1058 630 1058 c 0,11,12
 720 1058 720 1058 797 1025.5 c 128,-1,13
 874 993 874 993 933 930 c 128,-1,14
 992 867 992 867 1025.5 764.5 c 128,-1,15
 1059 662 1059 662 1059 531 c 0,16,17
 1059 271 1059 271 930.5 125 c 128,-1,18
 802 -21 802 -21 591 -21 c 0,0,1
576 119 m 0,19,20
 724 119 724 119 803 228.5 c 128,-1,21
 882 338 882 338 882 517 c 0,22,23
 882 707 882 707 801.5 812.5 c 128,-1,24
 721 918 721 918 589 918 c 0,25,26
 500 918 500 918 411.5 864.5 c 128,-1,27
 323 811 323 811 303 764 c 1,28,-1
 303 198 l 1,29,30
 435 119 435 119 576 119 c 0,19,20
EndSplineSet
EndChar

StartChar: c
Encoding: 99 99 70
Width: 1025
Flags: W
LayerCount: 2
Fore
SplineSet
623 -21 m 0,0,1
 506 -21 506 -21 410.5 11 c 128,-1,2
 315 43 315 43 243.5 107 c 128,-1,3
 172 171 172 171 132.5 274 c 128,-1,4
 93 377 93 377 93 512 c 0,5,6
 93 646 93 646 134 752 c 128,-1,7
 175 858 175 858 246.5 923.5 c 128,-1,8
 318 989 318 989 409.5 1023.5 c 128,-1,9
 501 1058 501 1058 606 1058 c 0,10,11
 799 1058 799 1058 961 966 c 1,12,-1
 925 829 l 1,13,14
 882 858 882 858 800.5 888 c 128,-1,15
 719 918 719 918 623 918 c 0,16,17
 463 918 463 918 366.5 808 c 128,-1,18
 270 698 270 698 270 511 c 0,19,20
 270 329 270 329 362.5 224 c 128,-1,21
 455 119 455 119 623 119 c 0,22,23
 777 119 777 119 919 204 c 1,24,-1
 952 67 l 1,25,26
 810 -21 810 -21 623 -21 c 0,0,1
EndSplineSet
EndChar

StartChar: d
Encoding: 100 100 71
Width: 1151
Flags: W
LayerCount: 2
Fore
SplineSet
547 -21 m 1,0,1
 454 -21 454 -21 373 13 c 128,-1,2
 292 47 292 47 229 111.5 c 128,-1,3
 166 176 166 176 129.5 279 c 128,-1,4
 93 382 93 382 93 511 c 0,5,6
 93 642 93 642 128 747 c 128,-1,7
 163 852 163 852 223 919.5 c 128,-1,8
 283 987 283 987 362 1022.5 c 128,-1,9
 441 1058 441 1058 531 1058 c 0,10,11
 625 1058 625 1058 715 1022.5 c 128,-1,12
 805 987 805 987 848 911 c 1,13,-1
 848 1481 l 1,14,-1
 1030 1481 l 1,15,-1
 1030 0 l 1,16,-1
 848 0 l 1,17,-1
 848 142 l 1,18,19
 811 68 811 68 729 26 c 128,-1,20
 647 -16 647 -16 547 -21 c 1,0,1
573 119 m 0,21,22
 665 119 665 119 748 161.5 c 128,-1,23
 831 204 831 204 848 247 c 1,24,-1
 848 793 l 1,25,26
 828 837 828 837 745.5 877.5 c 128,-1,27
 663 918 663 918 571 918 c 0,28,29
 438 918 438 918 354 813 c 128,-1,30
 270 708 270 708 270 521 c 0,31,32
 270 336 270 336 346 227.5 c 128,-1,33
 422 119 422 119 573 119 c 0,21,22
EndSplineSet
EndChar

StartChar: e
Encoding: 101 101 72
Width: 1115
Flags: W
LayerCount: 2
Fore
SplineSet
625 -21 m 0,0,1
 517 -21 517 -21 422 12.5 c 128,-1,2
 327 46 327 46 253 110 c 128,-1,3
 179 174 179 174 136 277 c 128,-1,4
 93 380 93 380 93 510 c 0,5,6
 93 763 93 763 232 910.5 c 128,-1,7
 371 1058 371 1058 585 1058 c 0,8,9
 698 1058 698 1058 785 1014 c 128,-1,10
 872 970 872 970 924.5 892.5 c 128,-1,11
 977 815 977 815 1003.5 718 c 128,-1,12
 1030 621 1030 621 1030 509 c 2,13,-1
 1030 475 l 1,14,-1
 269 475 l 1,15,16
 278 306 278 306 379.5 212.5 c 128,-1,17
 481 119 481 119 641 119 c 0,18,19
 729 119 729 119 813 149.5 c 128,-1,20
 897 180 897 180 947 228 c 1,21,-1
 967 228 l 1,22,-1
 1011 102 l 1,23,24
 996 86 996 86 969.5 68.5 c 128,-1,25
 943 51 943 51 896.5 29 c 128,-1,26
 850 7 850 7 778.5 -7 c 128,-1,27
 707 -21 707 -21 625 -21 c 0,0,1
272 596 m 1,28,-1
 856 596 l 1,29,30
 854 649 854 649 841 699.5 c 128,-1,31
 828 750 828 750 799.5 802 c 128,-1,32
 771 854 771 854 716.5 886 c 128,-1,33
 662 918 662 918 587 918 c 0,34,35
 457 918 457 918 372 828 c 128,-1,36
 287 738 287 738 272 596 c 1,28,-1
EndSplineSet
EndChar

StartChar: f
Encoding: 102 102 73
Width: 706
Flags: W
LayerCount: 2
Fore
SplineSet
205 0 m 1,0,-1
 205 907 l 1,1,-1
 25 907 l 1,2,-1
 25 1032 l 1,3,-1
 205 1032 l 1,4,-1
 205 1069 l 2,5,6
 205 1167 205 1167 220 1232.5 c 128,-1,7
 235 1298 235 1298 272.5 1344.5 c 128,-1,8
 310 1391 310 1391 375.5 1412 c 128,-1,9
 441 1433 441 1433 540 1433 c 0,10,11
 574 1433 574 1433 592 1432 c 128,-1,12
 610 1431 610 1431 633.5 1427.5 c 128,-1,13
 657 1424 657 1424 672 1422 c 1,14,-1
 672 1281 l 1,15,16
 610 1292 610 1292 570 1292 c 0,17,18
 512 1292 512 1292 479.5 1283.5 c 128,-1,19
 447 1275 447 1275 424.5 1246 c 128,-1,20
 402 1217 402 1217 394.5 1168 c 128,-1,21
 387 1119 387 1119 387 1032 c 1,22,-1
 663 1032 l 1,23,-1
 663 907 l 1,24,-1
 388 907 l 1,25,-1
 388 0 l 1,26,-1
 205 0 l 1,0,-1
EndSplineSet
EndChar

StartChar: g
Encoding: 103 103 74
Width: 1151
Flags: W
LayerCount: 2
Fore
SplineSet
557 -386 m 0,0,1
 474 -386 474 -386 388.5 -366.5 c 128,-1,2
 303 -347 303 -347 267.5 -333 c 128,-1,3
 232 -319 232 -319 219 -311 c 1,4,-1
 254 -179 l 1,5,6
 268 -187 268 -187 293.5 -198.5 c 128,-1,7
 319 -210 319 -210 398.5 -229.5 c 128,-1,8
 478 -249 478 -249 558 -249 c 0,9,10
 715 -249 715 -249 781.5 -175 c 128,-1,11
 848 -101 848 -101 848 56 c 2,12,-1
 848 112 l 1,13,14
 738 -21 738 -21 545 -21 c 0,15,16
 348 -21 348 -21 220.5 120.5 c 128,-1,17
 93 262 93 262 93 517 c 0,18,19
 93 774 93 774 213 916 c 128,-1,20
 333 1058 333 1058 540 1058 c 0,21,22
 632 1058 632 1058 716.5 1012.5 c 128,-1,23
 801 967 801 967 847 892 c 1,24,-1
 847 1032 l 1,25,-1
 1030 1032 l 1,26,-1
 1030 144 l 2,27,28
 1030 -54 1030 -54 979 -170.5 c 128,-1,29
 928 -287 928 -287 826.5 -336.5 c 128,-1,30
 725 -386 725 -386 557 -386 c 0,0,1
564 119 m 0,31,32
 746 119 746 119 847 239 c 1,33,-1
 847 793 l 1,34,35
 798 853 798 853 716 885.5 c 128,-1,36
 634 918 634 918 563 918 c 0,37,38
 482 918 482 918 423 886.5 c 128,-1,39
 364 855 364 855 331.5 798 c 128,-1,40
 299 741 299 741 284.5 672 c 128,-1,41
 270 603 270 603 270 518 c 0,42,43
 270 331 270 331 349 225 c 128,-1,44
 428 119 428 119 564 119 c 0,31,32
EndSplineSet
EndChar

StartChar: h
Encoding: 104 104 75
Width: 1136
Flags: W
LayerCount: 2
Fore
SplineSet
121 0 m 1,0,-1
 121 1481 l 1,1,-1
 303 1481 l 1,2,-1
 303 863 l 1,3,4
 363 957 363 957 469 1007.5 c 128,-1,5
 575 1058 575 1058 688 1058 c 0,6,7
 840 1058 840 1058 935.5 963 c 128,-1,8
 1031 868 1031 868 1031 691 c 2,9,-1
 1031 0 l 1,10,-1
 848 0 l 1,11,-1
 848 703 l 2,12,13
 848 762 848 762 828.5 806 c 128,-1,14
 809 850 809 850 775.5 873.5 c 128,-1,15
 742 897 742 897 705.5 907.5 c 128,-1,16
 669 918 669 918 627 918 c 0,17,18
 564 918 564 918 501.5 897.5 c 128,-1,19
 439 877 439 877 397 848 c 128,-1,20
 355 819 355 819 329 791 c 128,-1,21
 303 763 303 763 303 746 c 2,22,-1
 303 0 l 1,23,-1
 121 0 l 1,0,-1
EndSplineSet
EndChar

StartChar: i
Encoding: 105 105 76
Width: 499
Flags: W
LayerCount: 2
Fore
SplineSet
153 0 m 1,0,-1
 153 1032 l 1,1,-1
 336 1032 l 1,2,-1
 336 0 l 1,3,-1
 153 0 l 1,0,-1
251 1186 m 128,-1,5
 192 1186 192 1186 159 1222 c 128,-1,6
 126 1258 126 1258 126 1307 c 0,7,8
 126 1357 126 1357 158 1392.5 c 128,-1,9
 190 1428 190 1428 251 1428 c 0,10,11
 310 1428 310 1428 342 1392 c 128,-1,12
 374 1356 374 1356 374 1307 c 128,-1,13
 374 1258 374 1258 342 1222 c 128,-1,4
 310 1186 310 1186 251 1186 c 128,-1,5
EndSplineSet
EndChar

StartChar: j
Encoding: 106 106 77
Width: 522
Flags: W
LayerCount: 2
Fore
SplineSet
103 -373 m 0,0,1
 -41 -373 -41 -373 -55 -366 c 1,2,-1
 -55 -228 l 1,3,4
 -38 -229 l 0,5,6
 -20 -230 -20 -230 2.5 -230.5 c 128,-1,7
 25 -231 25 -231 39 -231 c 0,8,9
 71 -231 71 -231 91 -228 c 128,-1,10
 111 -225 111 -225 132 -212.5 c 128,-1,11
 153 -200 153 -200 164 -176.5 c 128,-1,12
 175 -153 175 -153 182 -111.5 c 128,-1,13
 189 -70 189 -70 189 -9 c 2,14,-1
 189 1032 l 1,15,-1
 372 1032 l 1,16,-1
 372 10 l 2,17,18
 372 -62 372 -62 366 -115 c 128,-1,19
 360 -168 360 -168 343 -219 c 128,-1,20
 326 -270 326 -270 297 -302 c 128,-1,21
 268 -334 268 -334 219 -353.5 c 128,-1,22
 170 -373 170 -373 103 -373 c 0,0,1
283 1186 m 128,-1,24
 224 1186 224 1186 191 1222.5 c 128,-1,25
 158 1259 158 1259 158 1307 c 0,26,27
 158 1358 158 1358 190 1393.5 c 128,-1,28
 222 1429 222 1429 283 1429 c 0,29,30
 342 1429 342 1429 374.5 1393 c 128,-1,31
 407 1357 407 1357 407 1307 c 0,32,33
 407 1259 407 1259 374.5 1222.5 c 128,-1,23
 342 1186 342 1186 283 1186 c 128,-1,24
EndSplineSet
EndChar

StartChar: k
Encoding: 107 107 78
Width: 1062
Flags: W
LayerCount: 2
Fore
SplineSet
115 0 m 1,0,-1
 115 1481 l 1,1,-1
 298 1481 l 1,2,-1
 298 583 l 1,3,-1
 827 1032 l 1,4,-1
 1024 1032 l 1,5,-1
 1024 988 l 1,6,-1
 583 607 l 1,7,-1
 1052 51 l 1,8,-1
 1052 0 l 1,9,-1
 878 0 l 1,10,-1
 449 528 l 1,11,-1
 298 410 l 1,12,-1
 298 0 l 1,13,-1
 115 0 l 1,0,-1
EndSplineSet
EndChar

StartChar: l
Encoding: 108 108 79
Width: 567
Flags: W
LayerCount: 2
Fore
SplineSet
453 -9 m 2,0,1
 401 -9 401 -9 358.5 -3.5 c 128,-1,2
 316 2 316 2 284.5 10.5 c 128,-1,3
 253 19 253 19 229 35.5 c 128,-1,4
 205 52 205 52 189.5 66 c 128,-1,5
 174 80 174 80 163 106 c 128,-1,6
 152 132 152 132 146.5 150 c 128,-1,7
 141 168 141 168 138 202 c 128,-1,8
 135 236 135 236 134.5 256.5 c 128,-1,9
 134 277 134 277 134 316 c 2,10,-1
 134 1481 l 1,11,-1
 316 1481 l 1,12,-1
 316 310 l 2,13,14
 316 251 316 251 323.5 219 c 128,-1,15
 331 187 331 187 355.5 166 c 128,-1,16
 380 145 380 145 421 138.5 c 128,-1,17
 462 132 462 132 535 132 c 1,18,-1
 535 -9 l 1,19,-1
 453 -9 l 2,0,1
EndSplineSet
EndChar

StartChar: m
Encoding: 109 109 80
Width: 1685
Flags: W
LayerCount: 2
Fore
SplineSet
121 0 m 1,0,-1
 121 1032 l 1,1,-1
 303 1032 l 1,2,-1
 303 869 l 1,3,4
 352 957 352 957 446.5 1007.5 c 128,-1,5
 541 1058 541 1058 648 1058 c 0,6,7
 851 1058 851 1058 918 882 c 1,8,9
 982 968 982 968 1077.5 1013 c 128,-1,10
 1173 1058 1173 1058 1269 1058 c 0,11,12
 1409 1058 1409 1058 1494.5 963 c 128,-1,13
 1580 868 1580 868 1580 680 c 2,14,-1
 1580 0 l 1,15,-1
 1397 0 l 1,16,-1
 1397 658 l 2,17,18
 1397 918 1397 918 1202 918 c 0,19,20
 1139 918 1139 918 1075.5 886 c 128,-1,21
 1012 854 1012 854 976.5 817.5 c 128,-1,22
 941 781 941 781 941 760 c 2,23,-1
 941 0 l 1,24,-1
 759 0 l 1,25,-1
 759 683 l 2,26,27
 759 799 759 799 705.5 858.5 c 128,-1,28
 652 918 652 918 568 918 c 0,29,30
 481 918 481 918 401.5 861 c 128,-1,31
 322 804 322 804 303 748 c 1,32,-1
 303 0 l 1,33,-1
 121 0 l 1,0,-1
EndSplineSet
EndChar

StartChar: n
Encoding: 110 110 81
Width: 1136
Flags: W
LayerCount: 2
Fore
SplineSet
121 0 m 1,0,-1
 121 1032 l 1,1,-1
 303 1032 l 1,2,-1
 303 863 l 1,3,4
 363 957 363 957 469 1007.5 c 128,-1,5
 575 1058 575 1058 688 1058 c 0,6,7
 840 1058 840 1058 935.5 963 c 128,-1,8
 1031 868 1031 868 1031 691 c 2,9,-1
 1031 0 l 1,10,-1
 848 0 l 1,11,-1
 848 703 l 2,12,13
 848 762 848 762 828.5 806 c 128,-1,14
 809 850 809 850 775.5 873.5 c 128,-1,15
 742 897 742 897 705.5 907.5 c 128,-1,16
 669 918 669 918 627 918 c 0,17,18
 564 918 564 918 501.5 897.5 c 128,-1,19
 439 877 439 877 397 848 c 128,-1,20
 355 819 355 819 329 791 c 128,-1,21
 303 763 303 763 303 746 c 2,22,-1
 303 0 l 1,23,-1
 121 0 l 1,0,-1
EndSplineSet
EndChar

StartChar: o
Encoding: 111 111 82
Width: 1189
Flags: W
LayerCount: 2
Fore
SplineSet
594 119 m 0,0,1
 750 119 750 119 833.5 228.5 c 128,-1,2
 917 338 917 338 917 522 c 0,3,4
 917 713 917 713 830.5 815.5 c 128,-1,5
 744 918 744 918 592 918 c 0,6,7
 451 918 451 918 360.5 814 c 128,-1,8
 270 710 270 710 270 522 c 0,9,10
 270 336 270 336 359.5 227.5 c 128,-1,11
 449 119 449 119 594 119 c 0,0,1
592 -21 m 0,12,13
 514 -21 514 -21 442.5 -2.5 c 128,-1,14
 371 16 371 16 306.5 58 c 128,-1,15
 242 100 242 100 195 162 c 128,-1,16
 148 224 148 224 120.5 316.5 c 128,-1,17
 93 409 93 409 93 522 c 128,-1,18
 93 635 93 635 122 727 c 128,-1,19
 151 819 151 819 198.5 879.5 c 128,-1,20
 246 940 246 940 311.5 981 c 128,-1,21
 377 1022 377 1022 447 1040 c 128,-1,22
 517 1058 517 1058 592 1058 c 0,23,24
 693 1058 693 1058 780.5 1028 c 128,-1,25
 868 998 868 998 940 937 c 128,-1,26
 1012 876 1012 876 1054 769.5 c 128,-1,27
 1096 663 1096 663 1096 522 c 0,28,29
 1096 382 1096 382 1054 274.5 c 128,-1,30
 1012 167 1012 167 940 104.5 c 128,-1,31
 868 42 868 42 780 10.5 c 128,-1,32
 692 -21 692 -21 592 -21 c 0,12,13
EndSplineSet
EndChar

StartChar: p
Encoding: 112 112 83
Width: 1152
Flags: W
LayerCount: 2
Fore
SplineSet
121 -388 m 1,0,-1
 121 1032 l 1,1,-1
 303 1032 l 1,2,-1
 303 890 l 1,3,4
 350 964 350 964 441.5 1011 c 128,-1,5
 533 1058 533 1058 626 1058 c 0,6,7
 832 1058 832 1058 945.5 915.5 c 128,-1,8
 1059 773 1059 773 1059 515 c 128,-1,9
 1059 257 1059 257 937.5 118 c 128,-1,10
 816 -21 816 -21 619 -21 c 0,11,12
 404 -21 404 -21 303 109 c 1,13,-1
 303 -388 l 1,14,-1
 121 -388 l 1,0,-1
589 119 m 0,15,16
 726 119 726 119 801 224 c 128,-1,17
 876 329 876 329 876 516 c 0,18,19
 876 599 876 599 861 668.5 c 128,-1,20
 846 738 846 738 813.5 795.5 c 128,-1,21
 781 853 781 853 724.5 885.5 c 128,-1,22
 668 918 668 918 591 918 c 0,23,24
 522 918 522 918 437 885.5 c 128,-1,25
 352 853 352 853 303 792 c 1,26,-1
 303 236 l 1,27,28
 340 191 340 191 402.5 162.5 c 128,-1,29
 465 134 465 134 509.5 126.5 c 128,-1,30
 554 119 554 119 589 119 c 0,15,16
EndSplineSet
EndChar

StartChar: q
Encoding: 113 113 84
Width: 1151
Flags: W
LayerCount: 2
Fore
SplineSet
848 -388 m 1,0,-1
 848 112 l 1,1,2
 744 -21 744 -21 549 -21 c 0,3,4
 452 -21 452 -21 369.5 15 c 128,-1,5
 287 51 287 51 225 119 c 128,-1,6
 163 187 163 187 128 292.5 c 128,-1,7
 93 398 93 398 93 529 c 0,8,9
 93 778 93 778 214.5 918 c 128,-1,10
 336 1058 336 1058 541 1058 c 0,11,12
 638 1058 638 1058 720.5 1021.5 c 128,-1,13
 803 985 803 985 848 913 c 1,14,-1
 848 1032 l 1,15,-1
 1031 1032 l 1,16,-1
 1031 -388 l 1,17,-1
 848 -388 l 1,0,-1
571 119 m 0,18,19
 634 119 634 119 716.5 147 c 128,-1,20
 799 175 799 175 848 236 c 1,21,-1
 848 792 l 1,22,23
 799 856 799 856 713.5 887 c 128,-1,24
 628 918 628 918 553 918 c 0,25,26
 487 918 487 918 437 896.5 c 128,-1,27
 387 875 387 875 356.5 839 c 128,-1,28
 326 803 326 803 307 749.5 c 128,-1,29
 288 696 288 696 281 640 c 128,-1,30
 274 584 274 584 274 515 c 0,31,32
 274 325 274 325 352.5 222 c 128,-1,33
 431 119 431 119 571 119 c 0,18,19
EndSplineSet
EndChar

StartChar: r
Encoding: 114 114 85
Width: 710
Flags: W
LayerCount: 2
Fore
SplineSet
121 0 m 1,0,-1
 121 1032 l 1,1,-1
 303 1032 l 1,2,-1
 303 904 l 1,3,-1
 304 904 l 1,4,5
 351 958 351 958 431 997 c 128,-1,6
 511 1036 511 1036 600 1036 c 0,7,8
 665 1036 665 1036 703 1016 c 1,9,-1
 681 857 l 1,10,11
 627 880 627 880 551 880 c 0,12,13
 399 880 399 880 303 784 c 1,14,-1
 303 0 l 1,15,-1
 121 0 l 1,0,-1
EndSplineSet
EndChar

StartChar: s
Encoding: 115 115 86
Width: 969
Flags: W
LayerCount: 2
Fore
SplineSet
477 -21 m 0,0,1
 371 -21 371 -21 267 2.5 c 128,-1,2
 163 26 163 26 88 71 c 1,3,-1
 114 200 l 1,4,-1
 141 200 l 1,5,6
 317 119 317 119 479 119 c 0,7,8
 589 119 589 119 660.5 162 c 128,-1,9
 732 205 732 205 732 289 c 0,10,11
 732 323 732 323 723.5 346.5 c 128,-1,12
 715 370 715 370 689 393 c 128,-1,13
 663 416 663 416 611.5 435 c 128,-1,14
 560 454 560 454 479 471 c 0,15,16
 405 486 405 486 357 499 c 128,-1,17
 309 512 309 512 252 536 c 128,-1,18
 195 560 195 560 162 589 c 128,-1,19
 129 618 129 618 106.5 663.5 c 128,-1,20
 84 709 84 709 84 768 c 0,21,22
 84 906 84 906 183.5 982 c 128,-1,23
 283 1058 283 1058 472 1058 c 0,24,25
 675 1058 675 1058 830 984 c 1,26,-1
 818 857 l 1,27,-1
 791 857 l 1,28,29
 630 918 630 918 487 918 c 0,30,31
 445 918 445 918 407.5 911 c 128,-1,32
 370 904 370 904 335 888.5 c 128,-1,33
 300 873 300 873 279.5 843 c 128,-1,34
 259 813 259 813 259 772 c 0,35,36
 259 707 259 707 315 675.5 c 128,-1,37
 371 644 371 644 547 608 c 0,38,39
 733 571 733 571 813 499.5 c 128,-1,40
 893 428 893 428 893 289 c 0,41,42
 893 141 893 141 787 60 c 128,-1,43
 681 -21 681 -21 477 -21 c 0,0,1
EndSplineSet
EndChar

StartChar: t
Encoding: 116 116 87
Width: 793
Flags: W
LayerCount: 2
Fore
SplineSet
528 -13 m 0,0,1
 345 -13 345 -13 268.5 67 c 128,-1,2
 192 147 192 147 192 328 c 2,3,-1
 192 907 l 1,4,-1
 52 907 l 1,5,-1
 52 1032 l 1,6,-1
 192 1032 l 1,7,-1
 192 1312 l 1,8,-1
 375 1362 l 1,9,-1
 375 1032 l 1,10,-1
 712 1032 l 1,11,-1
 712 907 l 1,12,-1
 375 907 l 1,13,-1
 375 326 l 2,14,15
 375 217 375 217 420.5 169 c 128,-1,16
 466 121 466 121 556 121 c 0,17,18
 586 121 586 121 625 124.5 c 128,-1,19
 664 128 664 128 688 131 c 128,-1,20
 712 134 712 134 712 135 c 2,21,-1
 712 5 l 1,22,23
 619 -13 619 -13 528 -13 c 0,0,1
EndSplineSet
EndChar

StartChar: u
Encoding: 117 117 88
Width: 1136
Flags: W
LayerCount: 2
Fore
SplineSet
460 -21 m 0,0,1
 306 -21 306 -21 205.5 72.5 c 128,-1,2
 105 166 105 166 105 341 c 2,3,-1
 105 1032 l 1,4,-1
 288 1032 l 1,5,-1
 288 340 l 2,6,7
 288 227 288 227 351.5 173 c 128,-1,8
 415 119 415 119 504 119 c 0,9,10
 575 119 575 119 636.5 137 c 128,-1,11
 698 155 698 155 737 183 c 128,-1,12
 776 211 776 211 800.5 238.5 c 128,-1,13
 825 266 825 266 833 290 c 1,14,-1
 833 1032 l 1,15,-1
 1016 1032 l 1,16,-1
 1016 0 l 1,17,-1
 833 0 l 1,18,-1
 833 162 l 1,19,20
 773 70 773 70 673.5 24.5 c 128,-1,21
 574 -21 574 -21 460 -21 c 0,0,1
EndSplineSet
EndChar

StartChar: v
Encoding: 118 118 89
Width: 1058
Flags: W
LayerCount: 2
Fore
SplineSet
422 0 m 1,0,-1
 6 1032 l 1,1,-1
 194 1032 l 1,2,-1
 482 286 l 1,3,-1
 536 144 l 1,4,-1
 538 144 l 1,5,-1
 589 286 l 1,6,-1
 854 1032 l 1,7,-1
 1051 1032 l 1,8,-1
 643 0 l 1,9,-1
 422 0 l 1,0,-1
EndSplineSet
EndChar

StartChar: w
Encoding: 119 119 90
Width: 1609
Flags: W
LayerCount: 2
Fore
SplineSet
348 0 m 1,0,-1
 42 1032 l 1,1,-1
 223 1032 l 1,2,-1
 417 333 l 1,3,-1
 461 155 l 1,4,-1
 462 155 l 1,5,-1
 506 333 l 1,6,-1
 696 1032 l 1,7,-1
 921 1032 l 1,8,-1
 1112 340 l 1,9,-1
 1155 164 l 1,10,-1
 1198 339 l 1,11,-1
 1380 1032 l 1,12,-1
 1567 1032 l 1,13,-1
 1259 0 l 1,14,-1
 1046 0 l 1,15,-1
 813 875 l 1,16,-1
 810 875 l 1,17,-1
 566 0 l 1,18,-1
 348 0 l 1,0,-1
EndSplineSet
EndChar

StartChar: x
Encoding: 120 120 91
Width: 1131
Flags: W
LayerCount: 2
Fore
SplineSet
38 0 m 1,0,-1
 459 513 l 1,1,-1
 34 1032 l 1,2,-1
 244 1032 l 1,3,-1
 485 727 l 1,4,-1
 562 633 l 1,5,-1
 638 727 l 1,6,-1
 880 1032 l 1,7,-1
 1097 1032 l 1,8,-1
 669 511 l 1,9,-1
 1093 0 l 1,10,-1
 884 0 l 1,11,-1
 618 331 l 1,12,-1
 566 400 l 1,13,-1
 513 331 l 1,14,-1
 250 0 l 1,15,-1
 38 0 l 1,0,-1
EndSplineSet
EndChar

StartChar: y
Encoding: 121 121 92
Width: 1057
Flags: W
LayerCount: 2
Fore
SplineSet
287 -391 m 1,0,1
 360 -260 360 -260 441 -50 c 1,2,-1
 7 1032 l 1,3,-1
 197 1032 l 1,4,-1
 533 152 l 1,5,-1
 860 1032 l 1,6,-1
 1059 1032 l 1,7,-1
 604 -102 l 2,8,9
 581 -160 581 -160 548.5 -232 c 128,-1,10
 516 -304 516 -304 495 -347.5 c 128,-1,11
 474 -391 474 -391 473 -391 c 2,12,-1
 287 -391 l 1,0,1
EndSplineSet
EndChar

StartChar: z
Encoding: 122 122 93
Width: 961
Flags: W
LayerCount: 2
Fore
SplineSet
91 0 m 1,0,-1
 91 144 l 1,1,-1
 685 907 l 1,2,-1
 117 907 l 1,3,-1
 117 1032 l 1,4,-1
 884 1032 l 1,5,-1
 884 899 l 1,6,-1
 281 125 l 1,7,-1
 890 125 l 1,8,-1
 890 0 l 1,9,-1
 91 0 l 1,0,-1
EndSplineSet
EndChar

StartChar: braceleft
Encoding: 123 123 94
Width: 882
Flags: W
LayerCount: 2
Fore
SplineSet
749 -224 m 2,0,1
 688 -224 688 -224 644.5 -221.5 c 128,-1,2
 601 -219 601 -219 557.5 -211 c 128,-1,3
 514 -203 514 -203 484 -189 c 128,-1,4
 454 -175 454 -175 428 -152.5 c 128,-1,5
 402 -130 402 -130 387 -98 c 128,-1,6
 372 -66 372 -66 363.5 -22 c 128,-1,7
 355 22 355 22 355 79 c 2,8,-1
 355 242 l 2,9,10
 355 401 355 401 283.5 473.5 c 128,-1,11
 212 546 212 546 46 546 c 1,12,-1
 46 711 l 1,13,14
 212 711 212 711 283.5 783 c 128,-1,15
 355 855 355 855 355 1014 c 2,16,-1
 355 1179 l 2,17,18
 355 1258 355 1258 371.5 1312.5 c 128,-1,19
 388 1367 388 1367 417 1400 c 128,-1,20
 446 1433 446 1433 497 1451 c 128,-1,21
 548 1469 548 1469 604 1475 c 128,-1,22
 660 1481 660 1481 744 1481 c 2,23,-1
 832 1481 l 1,24,-1
 832 1344 l 1,25,-1
 677 1344 l 2,26,27
 629 1344 629 1344 601 1335.5 c 128,-1,28
 573 1327 573 1327 558.5 1305 c 128,-1,29
 544 1283 544 1283 540 1257 c 128,-1,30
 536 1231 536 1231 536 1185 c 2,31,-1
 536 1021 l 2,32,33
 536 856 536 856 477 762.5 c 128,-1,34
 418 669 418 669 297 632 c 1,35,-1
 297 625 l 1,36,37
 417 587 417 587 476.5 495 c 128,-1,38
 536 403 536 403 536 240 c 2,39,-1
 536 65 l 2,40,41
 536 18 536 18 540 -7 c 128,-1,42
 544 -32 544 -32 558 -52.5 c 128,-1,43
 572 -73 572 -73 600 -80 c 128,-1,44
 628 -87 628 -87 676 -87 c 2,45,-1
 832 -87 l 1,46,-1
 832 -224 l 1,47,-1
 749 -224 l 2,0,1
EndSplineSet
EndChar

StartChar: bar
Encoding: 124 124 95
Width: 379
Flags: W
LayerCount: 2
Fore
SplineSet
98 -338 m 1,0,-1
 98 1481 l 1,1,-1
 281 1481 l 1,2,-1
 281 -338 l 1,3,-1
 98 -338 l 1,0,-1
EndSplineSet
EndChar

StartChar: braceright
Encoding: 125 125 96
Width: 882
Flags: W
LayerCount: 2
Fore
SplineSet
134 -224 m 2,0,-1
 51 -224 l 1,1,-1
 51 -87 l 1,2,-1
 207 -87 l 2,3,4
 255 -87 255 -87 283 -80 c 128,-1,5
 311 -73 311 -73 325 -52.5 c 128,-1,6
 339 -32 339 -32 343 -7 c 128,-1,7
 347 18 347 18 347 65 c 2,8,-1
 347 240 l 2,9,10
 347 403 347 403 406.5 495 c 128,-1,11
 466 587 466 587 586 625 c 1,12,-1
 586 632 l 1,13,14
 465 669 465 669 406 762.5 c 128,-1,15
 347 856 347 856 347 1021 c 2,16,-1
 347 1185 l 2,17,18
 347 1231 347 1231 343 1257 c 128,-1,19
 339 1283 339 1283 324.5 1305 c 128,-1,20
 310 1327 310 1327 282 1335.5 c 128,-1,21
 254 1344 254 1344 206 1344 c 2,22,-1
 51 1344 l 1,23,-1
 51 1481 l 1,24,-1
 139 1481 l 2,25,26
 223 1481 223 1481 279 1475 c 128,-1,27
 335 1469 335 1469 386 1451 c 128,-1,28
 437 1433 437 1433 466 1400 c 128,-1,29
 495 1367 495 1367 511.5 1312.5 c 128,-1,30
 528 1258 528 1258 528 1179 c 2,31,-1
 528 1014 l 2,32,33
 528 855 528 855 599.5 783 c 128,-1,34
 671 711 671 711 837 711 c 1,35,-1
 837 546 l 1,36,37
 671 546 671 546 599.5 473.5 c 128,-1,38
 528 401 528 401 528 242 c 2,39,-1
 528 79 l 2,40,41
 528 22 528 22 519.5 -22 c 128,-1,42
 511 -66 511 -66 496 -98 c 128,-1,43
 481 -130 481 -130 455 -152.5 c 128,-1,44
 429 -175 429 -175 399 -189 c 128,-1,45
 369 -203 369 -203 325.5 -211 c 128,-1,46
 282 -219 282 -219 238.5 -221.5 c 128,-1,47
 195 -224 195 -224 134 -224 c 2,0,-1
EndSplineSet
EndChar

StartChar: asciitilde
Encoding: 126 126 97
Width: 1347
Flags: W
LayerCount: 2
Fore
SplineSet
959 309 m 0,0,1
 885 309 885 309 806.5 340.5 c 128,-1,2
 728 372 728 372 666 416.5 c 128,-1,3
 604 461 604 461 549 505.5 c 128,-1,4
 494 550 494 550 449.5 581.5 c 128,-1,5
 405 613 405 613 379 613 c 0,6,7
 315 613 315 613 280 535.5 c 128,-1,8
 245 458 245 458 244 315 c 1,9,-1
 63 357 l 1,10,11
 85 814 85 814 371 814 c 0,12,13
 426 814 426 814 490.5 782 c 128,-1,14
 555 750 555 750 614 705 c 128,-1,15
 673 660 673 660 731.5 614.5 c 128,-1,16
 790 569 790 569 851 537 c 128,-1,17
 912 505 912 505 963 505 c 0,18,19
 1004 505 1004 505 1032 528 c 128,-1,20
 1060 551 1060 551 1074.5 594.5 c 128,-1,21
 1089 638 1089 638 1095.5 688.5 c 128,-1,22
 1102 739 1102 739 1103 807 c 1,23,-1
 1286 772 l 1,24,25
 1273 539 1273 539 1198 424 c 128,-1,26
 1123 309 1123 309 959 309 c 0,0,1
EndSplineSet
EndChar

StartChar: exclamdown
Encoding: 161 161 99
Width: 496
Flags: W
LayerCount: 2
Fore
SplineSet
373 1051 m 128,-1,1
 436 1051 436 1051 479.5 1008 c 128,-1,2
 523 965 523 965 523 902 c 0,3,4
 523 840 523 840 479 796.5 c 128,-1,5
 435 753 435 753 373 753 c 128,-1,6
 311 753 311 753 266.5 796.5 c 128,-1,7
 222 840 222 840 222 902 c 0,8,9
 222 965 222 965 266 1008 c 128,-1,0
 310 1051 310 1051 373 1051 c 128,-1,1
404 564 m 1,10,-1
 493 -432 l 1,11,-1
 250 -432 l 1,12,-1
 338 564 l 1,13,-1
 404 564 l 1,10,-1
EndSplineSet
EndChar

StartChar: cent
Encoding: 162 162 100
Width: 997
Flags: W
LayerCount: 2
Fore
SplineSet
477 915 m 1,0,1
 337 899 337 899 253.5 791.5 c 128,-1,2
 170 684 170 684 170 511 c 0,3,4
 170 343 170 343 250 239.5 c 128,-1,5
 330 136 330 136 477 121 c 1,6,-1
 477 915 l 1,0,1
583 1052 m 1,7,8
 728 1039 728 1039 861 966 c 1,9,-1
 825 829 l 1,10,11
 792 852 792 852 726.5 878.5 c 128,-1,12
 661 905 661 905 583 914 c 1,13,-1
 583 122 l 1,14,15
 709 136 709 136 819 204 c 1,16,-1
 852 67 l 1,17,18
 734 -7 734 -7 583 -19 c 1,19,-1
 583 -290 l 1,20,-1
 477 -290 l 1,21,-1
 477 -20 l 1,22,23
 255 -7 255 -7 124 126.5 c 128,-1,24
 -7 260 -7 260 -7 512 c 0,25,26
 -7 641 -7 641 31.5 743.5 c 128,-1,27
 70 846 70 846 137 911.5 c 128,-1,28
 204 977 204 977 290.5 1013 c 128,-1,29
 377 1049 377 1049 477 1054 c 1,30,-1
 477 1304 l 1,31,-1
 583 1304 l 1,32,-1
 583 1052 l 1,7,8
EndSplineSet
EndChar

StartChar: sterling
Encoding: 163 163 101
Width: 1215
Flags: W
LayerCount: 2
Fore
SplineSet
814 -23 m 0,0,1
 744 -23 744 -23 584 -3.5 c 128,-1,2
 424 16 424 16 353 16 c 0,3,4
 314 16 314 16 270.5 11 c 128,-1,5
 227 6 227 6 168.5 -3 c 128,-1,6
 110 -12 110 -12 80 -16 c 1,7,-1
 80 109 l 1,8,9
 97 112 97 112 128.5 116.5 c 128,-1,10
 160 121 160 121 179 124 c 128,-1,11
 198 127 198 127 220.5 132.5 c 128,-1,12
 243 138 243 138 256 144 c 1,13,14
 364 398 364 398 364 579 c 0,15,16
 364 593 364 593 363.5 606.5 c 128,-1,17
 363 620 363 620 361.5 630.5 c 128,-1,18
 360 641 360 641 359 650 c 128,-1,19
 358 659 358 659 356.5 665.5 c 128,-1,20
 355 672 355 672 353.5 676.5 c 128,-1,21
 352 681 352 681 352 684 c 1,22,-1
 351 686 l 1,23,-1
 89 686 l 1,24,-1
 89 810 l 1,25,-1
 325 810 l 1,26,27
 314 864 314 864 271 990 c 128,-1,28
 228 1116 228 1116 228 1173 c 0,29,30
 228 1323 228 1323 362.5 1413.5 c 128,-1,31
 497 1504 497 1504 707 1504 c 0,32,33
 818 1504 818 1504 920.5 1473.5 c 128,-1,34
 1023 1443 1023 1443 1066 1400 c 1,35,-1
 1066 1248 l 1,36,-1
 1007 1248 l 1,37,38
 973 1298 973 1298 921 1326 c 128,-1,39
 869 1354 869 1354 826.5 1360.5 c 128,-1,40
 784 1367 784 1367 728 1367 c 0,41,42
 573 1367 573 1367 503 1306.5 c 128,-1,43
 433 1246 433 1246 433 1131 c 0,44,45
 433 1087 433 1087 475 954 c 128,-1,46
 517 821 517 821 519 810 c 1,47,-1
 964 810 l 1,48,-1
 964 686 l 1,49,-1
 540 686 l 1,50,51
 546 626 546 626 546 570 c 0,52,53
 546 496 546 496 502 362 c 128,-1,54
 458 228 458 228 410 149 c 1,55,56
 452 148 452 148 584 133 c 128,-1,57
 716 118 716 118 763 118 c 0,58,59
 836 118 836 118 938.5 134 c 128,-1,60
 1041 150 1041 150 1109 175 c 1,61,-1
 1144 36 l 1,62,63
 1089 15 1089 15 988.5 -4 c 128,-1,64
 888 -23 888 -23 814 -23 c 0,0,1
EndSplineSet
EndChar

StartChar: currency
Encoding: 164 164 102
Width: 1024
Flags: W
LayerCount: 2
Fore
SplineSet
181 252 m 1,0,-1
 79 352 l 1,1,-1
 173 448 l 1,2,3
 140 488 140 488 119.5 552 c 128,-1,4
 99 616 99 616 99 685 c 0,5,6
 99 828 99 828 173 924 c 1,7,-1
 79 1018 l 1,8,-1
 181 1117 l 1,9,-1
 276 1024 l 1,10,11
 319 1057 319 1057 382 1078 c 128,-1,12
 445 1099 445 1099 514 1099 c 0,13,14
 651 1099 651 1099 750 1026 c 1,15,-1
 845 1117 l 1,16,-1
 944 1018 l 1,17,-1
 852 924 l 1,18,19
 927 824 927 824 927 685 c 0,20,21
 927 616 927 616 906 552.5 c 128,-1,22
 885 489 885 489 852 446 c 1,23,-1
 944 352 l 1,24,-1
 845 252 l 1,25,-1
 750 347 l 1,26,27
 651 272 651 272 514 272 c 0,28,29
 447 272 447 272 383.5 293.5 c 128,-1,30
 320 315 320 315 276 347 c 1,31,-1
 181 252 l 1,0,-1
514 408 m 0,32,33
 634 408 634 408 706.5 483 c 128,-1,34
 779 558 779 558 779 685 c 128,-1,35
 779 812 779 812 706.5 887.5 c 128,-1,36
 634 963 634 963 514 963 c 0,37,38
 395 963 395 963 322.5 887.5 c 128,-1,39
 250 812 250 812 250 685 c 128,-1,40
 250 558 250 558 322.5 483 c 128,-1,41
 395 408 395 408 514 408 c 0,32,33
EndSplineSet
EndChar

StartChar: yen
Encoding: 165 165 103
Width: 1466
Flags: W
LayerCount: 2
Fore
SplineSet
625 0 m 1,0,-1
 625 362 l 1,1,-1
 225 362 l 1,2,-1
 225 458 l 1,3,-1
 625 458 l 1,4,-1
 625 623 l 1,5,-1
 225 623 l 1,6,-1
 225 719 l 1,7,-1
 608 719 l 1,8,-1
 64 1481 l 1,9,-1
 259 1481 l 1,10,-1
 718 825 l 1,11,-1
 1201 1481 l 1,12,-1
 1402 1481 l 1,13,-1
 820 719 l 1,14,-1
 1216 719 l 1,15,-1
 1216 623 l 1,16,-1
 808 623 l 1,17,-1
 808 458 l 1,18,-1
 1216 458 l 1,19,-1
 1216 362 l 1,20,-1
 808 362 l 1,21,-1
 808 0 l 1,22,-1
 625 0 l 1,0,-1
EndSplineSet
EndChar

StartChar: brokenbar
Encoding: 166 166 104
Width: 331
Flags: W
LayerCount: 2
Fore
SplineSet
98 -337 m 1,0,-1
 98 337 l 1,1,-1
 233 337 l 1,2,-1
 233 -337 l 1,3,-1
 98 -337 l 1,0,-1
98 625 m 1,4,-1
 98 1296 l 1,5,-1
 233 1296 l 1,6,-1
 233 625 l 1,7,-1
 98 625 l 1,4,-1
EndSplineSet
EndChar

StartChar: section
Encoding: 167 167 105
Width: 984
Flags: W
LayerCount: 2
Fore
SplineSet
482 -74 m 0,0,1
 376 -74 376 -74 269 -50.5 c 128,-1,2
 162 -27 162 -27 88 17 c 1,3,-1
 114 159 l 1,4,5
 285 71 285 71 479 71 c 0,6,7
 606 71 606 71 669 109.5 c 128,-1,8
 732 148 732 148 732 236 c 0,9,10
 732 271 732 271 724 294 c 128,-1,11
 716 317 716 317 691.5 341.5 c 128,-1,12
 667 366 667 366 616.5 385 c 128,-1,13
 566 404 566 404 485 421 c 0,14,15
 431 432 431 432 397 440 c 128,-1,16
 363 448 363 448 315.5 462 c 128,-1,17
 268 476 268 476 239 490.5 c 128,-1,18
 210 505 210 505 177 527 c 128,-1,19
 144 549 144 549 125.5 574.5 c 128,-1,20
 107 600 107 600 95 635.5 c 128,-1,21
 83 671 83 671 83 713 c 0,22,23
 83 915 83 915 260 976 c 1,24,25
 83 1051 83 1051 83 1212 c 0,26,27
 83 1352 83 1352 174 1427.5 c 128,-1,28
 265 1503 265 1503 451 1503 c 0,29,30
 669 1503 669 1503 828 1427 c 1,31,-1
 815 1287 l 1,32,33
 788 1298 788 1298 740.5 1313 c 128,-1,34
 693 1328 693 1328 611 1345 c 128,-1,35
 529 1362 529 1362 465 1362 c 0,36,37
 422 1362 422 1362 389.5 1356.5 c 128,-1,38
 357 1351 357 1351 326 1336.5 c 128,-1,39
 295 1322 295 1322 278 1292.5 c 128,-1,40
 261 1263 261 1263 261 1220 c 0,41,42
 261 1150 261 1150 316 1119 c 128,-1,43
 371 1088 371 1088 557 1042 c 0,44,45
 658 1018 658 1018 718.5 994.5 c 128,-1,46
 779 971 779 971 823.5 935 c 128,-1,47
 868 899 868 899 885.5 849.5 c 128,-1,48
 903 800 903 800 903 726 c 0,49,50
 903 556 903 556 774 484 c 1,51,52
 841 447 841 447 872 386.5 c 128,-1,53
 903 326 903 326 903 233 c 0,54,55
 903 84 903 84 801.5 6 c 128,-1,56
 700 -72 700 -72 482 -74 c 0,0,1
599 546 m 1,57,-1
 601 546 l 1,58,59
 732 603 732 603 732 735 c 0,60,61
 732 782 732 782 717 810 c 128,-1,62
 702 838 702 838 647.5 864.5 c 128,-1,63
 593 891 593 891 485 913 c 0,64,65
 483 913 483 913 448 921 c 1,66,67
 350 908 350 908 298 859 c 128,-1,68
 246 810 246 810 246 738 c 0,69,70
 246 663 246 663 307.5 628.5 c 128,-1,71
 369 594 369 594 561 555 c 0,72,73
 566 554 566 554 579.5 551 c 128,-1,74
 593 548 593 548 599 546 c 1,57,-1
EndSplineSet
EndChar

StartChar: dieresis
Encoding: 168 168 106
Width: 690
Flags: W
LayerCount: 2
Fore
SplineSet
97 1217 m 1,0,-1
 97 1424 l 1,1,-1
 278 1424 l 1,2,-1
 278 1217 l 1,3,-1
 97 1217 l 1,0,-1
413 1217 m 1,4,-1
 413 1424 l 1,5,-1
 593 1424 l 1,6,-1
 593 1217 l 1,7,-1
 413 1217 l 1,4,-1
EndSplineSet
EndChar

StartChar: copyright
Encoding: 169 169 107
Width: 1728
Flags: W
LayerCount: 2
Fore
SplineSet
863 -21 m 0,0,1
 1033 -21 1033 -21 1183.5 61 c 128,-1,2
 1334 143 1334 143 1428 292.5 c 128,-1,3
 1522 442 1522 442 1522 623 c 0,4,5
 1522 760 1522 760 1466.5 882 c 128,-1,6
 1411 1004 1411 1004 1319.5 1087.5 c 128,-1,7
 1228 1171 1228 1171 1108.5 1219.5 c 128,-1,8
 989 1268 989 1268 863 1268 c 0,9,10
 733 1268 733 1268 611.5 1218 c 128,-1,11
 490 1168 490 1168 399.5 1083 c 128,-1,12
 309 998 309 998 254.5 877.5 c 128,-1,13
 200 757 200 757 200 623 c 0,14,15
 200 485 200 485 256.5 363 c 128,-1,16
 313 241 313 241 405 158 c 128,-1,17
 497 75 497 75 617 27 c 128,-1,18
 737 -21 737 -21 863 -21 c 0,0,1
863 -125 m 0,19,20
 711 -125 711 -125 569 -67.5 c 128,-1,21
 427 -10 427 -10 320.5 88 c 128,-1,22
 214 186 214 186 149.5 326 c 128,-1,23
 85 466 85 466 85 623 c 0,24,25
 85 772 85 772 147.5 910.5 c 128,-1,26
 210 1049 210 1049 314.5 1150 c 128,-1,27
 419 1251 419 1251 563 1311.5 c 128,-1,28
 707 1372 707 1372 863 1372 c 0,29,30
 1015 1372 1015 1372 1158 1312 c 128,-1,31
 1301 1252 1301 1252 1407 1151.5 c 128,-1,32
 1513 1051 1513 1051 1577 912 c 128,-1,33
 1641 773 1641 773 1641 623 c 0,34,35
 1641 474 1641 474 1578.5 336 c 128,-1,36
 1516 198 1516 198 1411.5 97 c 128,-1,37
 1307 -4 1307 -4 1163 -64.5 c 128,-1,38
 1019 -125 1019 -125 863 -125 c 0,19,20
879 218 m 0,39,40
 782 218 782 218 704 253 c 128,-1,41
 626 288 626 288 577.5 346 c 128,-1,42
 529 404 529 404 503.5 476 c 128,-1,43
 478 548 478 548 478 626 c 128,-1,44
 478 704 478 704 503.5 776.5 c 128,-1,45
 529 849 529 849 577.5 907.5 c 128,-1,46
 626 966 626 966 704 1001 c 128,-1,47
 782 1036 782 1036 879 1036 c 0,48,49
 1026 1036 1026 1036 1144 952 c 1,50,-1
 1108 874 l 1,51,52
 1001 945 1001 945 880 945 c 0,53,54
 747 945 747 945 673 851 c 128,-1,55
 599 757 599 757 599 628 c 128,-1,56
 599 499 599 499 673.5 404 c 128,-1,57
 748 309 748 309 880 309 c 0,58,59
 1002 309 1002 309 1108 380 c 1,60,-1
 1144 302 l 1,61,62
 1026 218 1026 218 879 218 c 0,39,40
EndSplineSet
EndChar

StartChar: ordfeminine
Encoding: 170 170 108
Width: 791
Flags: W
LayerCount: 2
Fore
SplineSet
309 655 m 0,0,1
 269 655 269 655 231.5 667.5 c 128,-1,2
 194 680 194 680 160 705 c 128,-1,3
 126 730 126 730 105.5 774.5 c 128,-1,4
 85 819 85 819 85 878 c 0,5,6
 85 948 85 948 116 997 c 128,-1,7
 147 1046 147 1046 210 1074 c 128,-1,8
 273 1102 273 1102 356 1114 c 128,-1,9
 439 1126 439 1126 554 1126 c 1,10,11
 554 1229 554 1229 521.5 1268.5 c 128,-1,12
 489 1308 489 1308 397 1308 c 0,13,14
 261 1308 261 1308 145 1256 c 1,15,-1
 111 1368 l 1,16,17
 235 1429 235 1429 395 1429 c 0,18,19
 565 1429 565 1429 631.5 1358.5 c 128,-1,20
 698 1288 698 1288 698 1140 c 2,21,-1
 698 669 l 1,22,-1
 554 669 l 1,23,-1
 554 748 l 1,24,-1
 552 748 l 1,25,26
 509 705 509 705 444 680 c 128,-1,27
 379 655 379 655 309 655 c 0,0,1
337 777 m 0,28,29
 404 777 404 777 469.5 813 c 128,-1,30
 535 849 535 849 554 882 c 1,31,-1
 554 1025 l 1,32,33
 225 1025 225 1025 225 891 c 0,34,35
 225 777 225 777 337 777 c 0,28,29
EndSplineSet
EndChar

StartChar: guillemotleft
Encoding: 171 171 109
Width: 885
Flags: W
LayerCount: 2
Fore
SplineSet
468 160 m 1,0,1
 95 463 95 463 1 533 c 1,2,-1
 1 635 l 1,3,4
 468 1021 l 1,5,-1
 468 815 l 1,6,-1
 162 582 l 1,7,8
 462 359 462 359 468 354 c 1,9,-1
 468 160 l 1,0,1
879 160 m 1,10,11
 505 463 505 463 411 533 c 1,12,-1
 411 635 l 1,13,14
 879 1021 l 1,15,-1
 879 815 l 1,16,-1
 572 582 l 1,17,18
 874 359 874 359 879 354 c 1,19,-1
 879 160 l 1,10,11
EndSplineSet
EndChar

StartChar: logicalnot
Encoding: 172 172 110
Width: 1182
Flags: W
LayerCount: 2
Fore
SplineSet
956 260 m 1,0,-1
 956 650 l 1,1,-1
 94 650 l 1,2,-1
 94 776 l 1,3,-1
 1084 776 l 1,4,-1
 1084 260 l 1,5,-1
 956 260 l 1,0,-1
EndSplineSet
EndChar

StartChar: uni00AD
Encoding: 173 173 111
Width: 775
Flags: W
LayerCount: 2
Fore
SplineSet
98 513 m 1,0,-1
 98 630 l 1,1,-1
 676 630 l 1,2,-1
 676 513 l 1,3,-1
 98 513 l 1,0,-1
EndSplineSet
EndChar

StartChar: registered
Encoding: 174 174 112
Width: 1729
Flags: W
LayerCount: 2
Fore
SplineSet
555 234 m 1,0,-1
 555 1058 l 1,1,-1
 843 1058 l 2,2,3
 900 1058 900 1058 946 1053 c 128,-1,4
 992 1048 992 1048 1039.5 1032.5 c 128,-1,5
 1087 1017 1087 1017 1119 992.5 c 128,-1,6
 1151 968 1151 968 1171.5 925.5 c 128,-1,7
 1192 883 1192 883 1192 826 c 0,8,9
 1192 730 1192 730 1137 672.5 c 128,-1,10
 1082 615 1082 615 995 607 c 1,11,-1
 1223 277 l 1,12,-1
 1223 234 l 1,13,-1
 1121 234 l 1,14,-1
 878 592 l 1,15,-1
 675 592 l 1,16,-1
 675 234 l 1,17,-1
 555 234 l 1,0,-1
675 683 m 1,18,-1
 900 683 l 2,19,20
 983 683 983 683 1029.5 718.5 c 128,-1,21
 1076 754 1076 754 1076 813 c 0,22,23
 1076 846 1076 846 1073.5 864.5 c 128,-1,24
 1071 883 1071 883 1059 905.5 c 128,-1,25
 1047 928 1047 928 1023.5 938.5 c 128,-1,26
 1000 949 1000 949 955.5 957 c 128,-1,27
 911 965 911 965 845 965 c 2,28,-1
 675 965 l 1,29,-1
 675 683 l 1,18,-1
864 -21 m 0,30,31
 1034 -21 1034 -21 1184.5 61 c 128,-1,32
 1335 143 1335 143 1429 292.5 c 128,-1,33
 1523 442 1523 442 1523 623 c 0,34,35
 1523 760 1523 760 1467.5 882 c 128,-1,36
 1412 1004 1412 1004 1320.5 1087.5 c 128,-1,37
 1229 1171 1229 1171 1109.5 1219.5 c 128,-1,38
 990 1268 990 1268 864 1268 c 0,39,40
 734 1268 734 1268 612.5 1218 c 128,-1,41
 491 1168 491 1168 400.5 1083 c 128,-1,42
 310 998 310 998 255.5 877.5 c 128,-1,43
 201 757 201 757 201 623 c 0,44,45
 201 485 201 485 257.5 363 c 128,-1,46
 314 241 314 241 406 158 c 128,-1,47
 498 75 498 75 618 27 c 128,-1,48
 738 -21 738 -21 864 -21 c 0,30,31
864 -125 m 0,49,50
 712 -125 712 -125 570 -67.5 c 128,-1,51
 428 -10 428 -10 321.5 88 c 128,-1,52
 215 186 215 186 150.5 326 c 128,-1,53
 86 466 86 466 86 623 c 0,54,55
 86 772 86 772 148.5 910.5 c 128,-1,56
 211 1049 211 1049 315.5 1150 c 128,-1,57
 420 1251 420 1251 564 1311.5 c 128,-1,58
 708 1372 708 1372 864 1372 c 0,59,60
 1016 1372 1016 1372 1159 1312 c 128,-1,61
 1302 1252 1302 1252 1408 1151.5 c 128,-1,62
 1514 1051 1514 1051 1578 912 c 128,-1,63
 1642 773 1642 773 1642 623 c 0,64,65
 1642 474 1642 474 1579.5 336 c 128,-1,66
 1517 198 1517 198 1412.5 97 c 128,-1,67
 1308 -4 1308 -4 1164 -64.5 c 128,-1,68
 1020 -125 1020 -125 864 -125 c 0,49,50
EndSplineSet
EndChar

StartChar: macron
Encoding: 175 175 113
Width: 750
Flags: W
LayerCount: 2
Fore
SplineSet
99 1179 m 1,0,-1
 99 1295 l 1,1,-1
 651 1295 l 1,2,-1
 651 1179 l 1,3,-1
 99 1179 l 1,0,-1
EndSplineSet
EndChar

StartChar: degree
Encoding: 176 176 114
Width: 813
Flags: W
LayerCount: 2
Fore
SplineSet
407 847 m 0,0,1
 505 847 505 847 564 911 c 128,-1,2
 623 975 623 975 623 1069 c 0,3,4
 623 1161 623 1161 563.5 1225 c 128,-1,5
 504 1289 504 1289 407 1289 c 128,-1,6
 310 1289 310 1289 250 1225 c 128,-1,7
 190 1161 190 1161 190 1069 c 0,8,9
 190 975 190 975 250 911 c 128,-1,10
 310 847 310 847 407 847 c 0,0,1
407 760 m 0,11,12
 273 760 273 760 181 850 c 128,-1,13
 89 940 89 940 89 1069 c 128,-1,14
 89 1198 89 1198 181.5 1286.5 c 128,-1,15
 274 1375 274 1375 407 1375 c 0,16,17
 542 1375 542 1375 633.5 1286.5 c 128,-1,18
 725 1198 725 1198 725 1069 c 0,19,20
 725 939 725 939 633.5 849.5 c 128,-1,21
 542 760 542 760 407 760 c 0,11,12
EndSplineSet
EndChar

StartChar: plusminus
Encoding: 177 177 115
Width: 1189
Flags: W
LayerCount: 2
Fore
SplineSet
521 286 m 1,0,-1
 521 643 l 1,1,-1
 148 643 l 1,2,-1
 148 778 l 1,3,-1
 521 778 l 1,4,-1
 521 1122 l 1,5,-1
 658 1122 l 1,6,-1
 658 778 l 1,7,-1
 1042 778 l 1,8,-1
 1042 643 l 1,9,-1
 658 643 l 1,10,-1
 658 286 l 1,11,-1
 521 286 l 1,0,-1
162 0 m 1,12,-1
 162 136 l 1,13,-1
 1024 136 l 1,14,-1
 1024 0 l 1,15,-1
 162 0 l 1,12,-1
EndSplineSet
EndChar

StartChar: uni00B2
Encoding: 178 178 116
Width: 1523
Flags: W
LayerCount: 2
Fore
SplineSet
256 0 m 1,0,-1
 1088 1430 l 1,1,-1
 1215 1430 l 1,2,-1
 383 0 l 1,3,-1
 256 0 l 1,0,-1
914 0 m 1,4,-1
 914 98 l 1,5,6
 1279 454 1279 454 1279 601 c 0,7,8
 1279 664 1279 664 1246.5 696 c 128,-1,9
 1214 728 1214 728 1133 728 c 0,10,11
 1092 728 1092 728 1033 706 c 128,-1,12
 974 684 974 684 950 661 c 1,13,-1
 926 756 l 1,14,15
 954 784 954 784 1023 807 c 128,-1,16
 1092 830 1092 830 1152 830 c 0,17,18
 1269 830 1269 830 1332.5 769.5 c 128,-1,19
 1396 709 1396 709 1396 604 c 0,20,21
 1396 546 1396 546 1373.5 487 c 128,-1,22
 1351 428 1351 428 1301.5 362 c 128,-1,23
 1252 296 1252 296 1200 240 c 128,-1,24
 1148 184 1148 184 1064 100 c 1,25,-1
 1399 100 l 1,26,-1
 1399 0 l 1,27,-1
 914 0 l 1,4,-1
10 552 m 1,28,-1
 10 653 l 1,29,-1
 151 653 l 1,30,-1
 151 1240 l 1,31,-1
 -4 1194 l 1,32,-1
 -4 1277 l 1,33,34
 99 1301 99 1301 135 1374 c 1,35,-1
 285 1374 l 1,36,-1
 285 653 l 1,37,-1
 426 653 l 1,38,-1
 426 552 l 1,39,-1
 10 552 l 1,28,-1
EndSplineSet
EndChar

StartChar: acute
Encoding: 180 180 117
Width: 422
Flags: W
LayerCount: 2
Fore
SplineSet
5 1123 m 1,0,-1
 192 1466 l 1,1,-1
 417 1466 l 1,2,-1
 128 1123 l 1,3,-1
 5 1123 l 1,0,-1
EndSplineSet
EndChar

StartChar: paragraph
Encoding: 182 182 118
Width: 1115
Flags: W
LayerCount: 2
Fore
SplineSet
587 -260 m 1,0,-1
 587 815 l 1,1,2
 333 815 333 815 206.5 894.5 c 128,-1,3
 80 974 80 974 80 1151 c 128,-1,4
 80 1328 80 1328 203.5 1404.5 c 128,-1,5
 327 1481 327 1481 605 1481 c 2,6,-1
 1023 1481 l 1,7,-1
 1023 -260 l 1,8,-1
 890 -260 l 1,9,-1
 890 1373 l 1,10,-1
 718 1373 l 1,11,-1
 718 -260 l 1,12,-1
 587 -260 l 1,0,-1
EndSplineSet
EndChar

StartChar: periodcentered
Encoding: 183 183 119
Width: 484
Flags: W
LayerCount: 2
Fore
SplineSet
243 452 m 128,-1,1
 180 452 180 452 135.5 495 c 128,-1,2
 91 538 91 538 91 601 c 0,3,4
 91 663 91 663 136 707 c 128,-1,5
 181 751 181 751 243 751 c 128,-1,6
 305 751 305 751 349 707 c 128,-1,7
 393 663 393 663 393 601 c 0,8,9
 393 538 393 538 349.5 495 c 128,-1,0
 306 452 306 452 243 452 c 128,-1,1
EndSplineSet
EndChar

StartChar: cedilla
Encoding: 184 184 120
Width: 561
Flags: W
LayerCount: 2
Fore
SplineSet
240 -497 m 0,0,1
 201 -497 201 -497 143.5 -484.5 c 128,-1,2
 86 -472 86 -472 49 -454 c 1,3,-1
 81 -366 l 1,4,-1
 112 -366 l 1,5,6
 129 -386 129 -386 167 -399 c 128,-1,7
 205 -412 205 -412 246 -412 c 0,8,9
 310 -412 310 -412 352.5 -380 c 128,-1,10
 395 -348 395 -348 395 -280 c 0,11,12
 395 -240 395 -240 366.5 -212 c 128,-1,13
 338 -184 338 -184 286 -184 c 0,14,15
 265 -184 265 -184 225 -195 c 1,16,17
 190 -184 190 -184 178 -182 c 1,18,-1
 241 2 l 1,19,-1
 321 2 l 1,20,-1
 281 -115 l 1,21,22
 393 -118 393 -118 449 -160.5 c 128,-1,23
 505 -203 505 -203 505 -278 c 0,24,25
 505 -375 505 -375 441.5 -436 c 128,-1,26
 378 -497 378 -497 240 -497 c 0,0,1
EndSplineSet
EndChar

StartChar: ordmasculine
Encoding: 186 186 121
Width: 884
Flags: W
LayerCount: 2
Fore
SplineSet
443 777 m 0,0,1
 638 777 638 777 638 1038 c 0,2,3
 638 1178 638 1178 589.5 1242.5 c 128,-1,4
 541 1307 541 1307 443 1307 c 0,5,6
 399 1307 399 1307 365.5 1295 c 128,-1,7
 332 1283 332 1283 303.5 1254.5 c 128,-1,8
 275 1226 275 1226 260 1171.5 c 128,-1,9
 245 1117 245 1117 245 1038 c 0,10,11
 245 899 245 899 292.5 838 c 128,-1,12
 340 777 340 777 443 777 c 0,0,1
443 645 m 0,13,14
 275 645 275 645 182 747 c 128,-1,15
 89 849 89 849 89 1038 c 0,16,17
 89 1229 89 1229 182.5 1329 c 128,-1,18
 276 1429 276 1429 443 1429 c 0,19,20
 611 1429 611 1429 702.5 1329 c 128,-1,21
 794 1229 794 1229 794 1038 c 0,22,23
 794 849 794 849 702 747 c 128,-1,24
 610 645 610 645 443 645 c 0,13,14
EndSplineSet
EndChar

StartChar: guillemotright
Encoding: 187 187 122
Width: 972
Flags: W
LayerCount: 2
Fore
SplineSet
52 159 m 1,0,-1
 52 367 l 1,1,-1
 360 600 l 1,2,3
 58 823 58 823 52 827 c 1,4,-1
 52 1021 l 1,5,6
 427 718 427 718 521 648 c 1,7,-1
 521 545 l 1,8,9
 52 159 l 1,0,-1
462 159 m 1,10,-1
 462 367 l 1,11,-1
 769 600 l 1,12,13
 468 823 468 823 462 827 c 1,14,-1
 462 1021 l 1,15,16
 837 718 837 718 931 648 c 1,17,-1
 931 545 l 1,18,19
 462 159 l 1,10,-1
EndSplineSet
EndChar

StartChar: onequarter
Encoding: 188 188 123
Width: 1359
Flags: W
LayerCount: 2
Fore
SplineSet
1165 0 m 1,0,-1
 1165 120 l 1,1,-1
 755 120 l 1,2,-1
 755 223 l 1,3,-1
 1103 818 l 1,4,-1
 1274 818 l 1,5,-1
 1274 223 l 1,6,-1
 1360 223 l 1,7,-1
 1360 120 l 1,8,-1
 1274 120 l 1,9,-1
 1274 0 l 1,10,-1
 1165 0 l 1,0,-1
247 0 m 1,11,-1
 1077 1429 l 1,12,-1
 1206 1429 l 1,13,-1
 374 0 l 1,14,-1
 247 0 l 1,11,-1
873 223 m 1,15,-1
 1165 223 l 1,16,-1
 1165 728 l 1,17,-1
 873 223 l 1,15,-1
-30 552 m 1,18,-1
 -30 653 l 1,19,-1
 111 653 l 1,20,-1
 111 1240 l 1,21,-1
 -44 1194 l 1,22,-1
 -44 1277 l 1,23,24
 59 1301 59 1301 95 1374 c 1,25,-1
 245 1374 l 1,26,-1
 245 653 l 1,27,-1
 386 653 l 1,28,-1
 386 552 l 1,29,-1
 -30 552 l 1,18,-1
EndSplineSet
EndChar

StartChar: onehalf
Encoding: 189 189 124
Width: 1539
Flags: W
LayerCount: 2
Fore
SplineSet
263 0 m 1,0,-1
 1095 1429 l 1,1,-1
 1222 1429 l 1,2,-1
 390 0 l 1,3,-1
 263 0 l 1,0,-1
921 0 m 1,4,-1
 921 98 l 1,5,6
 1286 454 1286 454 1286 601 c 0,7,8
 1286 664 1286 664 1253.5 696 c 128,-1,9
 1221 728 1221 728 1140 728 c 0,10,11
 1099 728 1099 728 1040 706 c 128,-1,12
 981 684 981 684 957 661 c 1,13,-1
 933 756 l 1,14,15
 961 784 961 784 1030 807 c 128,-1,16
 1099 830 1099 830 1159 830 c 0,17,18
 1276 830 1276 830 1339.5 769.5 c 128,-1,19
 1403 709 1403 709 1403 604 c 0,20,21
 1403 546 1403 546 1380.5 487 c 128,-1,22
 1358 428 1358 428 1308.5 362 c 128,-1,23
 1259 296 1259 296 1207 240 c 128,-1,24
 1155 184 1155 184 1071 100 c 1,25,-1
 1406 100 l 1,26,-1
 1406 0 l 1,27,-1
 921 0 l 1,4,-1
17 552 m 1,28,-1
 17 653 l 1,29,-1
 158 653 l 1,30,-1
 158 1240 l 1,31,-1
 3 1194 l 1,32,-1
 3 1277 l 1,33,34
 106 1301 106 1301 142 1374 c 1,35,-1
 292 1374 l 1,36,-1
 292 653 l 1,37,-1
 433 653 l 1,38,-1
 433 552 l 1,39,-1
 17 552 l 1,28,-1
EndSplineSet
EndChar

StartChar: threequarters
Encoding: 190 190 125
Width: 1422
Flags: W
LayerCount: 2
Fore
SplineSet
1227 0 m 1,0,-1
 1227 120 l 1,1,-1
 818 120 l 1,2,-1
 818 223 l 1,3,-1
 1165 818 l 1,4,-1
 1335 818 l 1,5,-1
 1335 223 l 1,6,-1
 1422 223 l 1,7,-1
 1422 120 l 1,8,-1
 1335 120 l 1,9,-1
 1335 0 l 1,10,-1
 1227 0 l 1,0,-1
309 0 m 1,11,-1
 1141 1429 l 1,12,-1
 1268 1429 l 1,13,-1
 436 0 l 1,14,-1
 309 0 l 1,11,-1
936 223 m 1,15,-1
 1227 223 l 1,16,-1
 1227 728 l 1,17,-1
 936 223 l 1,15,-1
287 545 m 0,18,19
 206 545 206 545 141.5 564.5 c 128,-1,20
 77 584 77 584 43 607 c 1,21,-1
 43 704 l 1,22,-1
 75 704 l 1,23,24
 77 702 77 702 81.5 698 c 128,-1,25
 86 694 86 694 102.5 683.5 c 128,-1,26
 119 673 119 673 139.5 665.5 c 128,-1,27
 160 658 160 658 196 651.5 c 128,-1,28
 232 645 232 645 273 645 c 0,29,30
 367 645 367 645 418 681 c 128,-1,31
 469 717 469 717 469 784 c 0,32,33
 469 849 469 849 415.5 898.5 c 128,-1,34
 362 948 362 948 254 948 c 2,35,-1
 188 948 l 1,36,-1
 188 1032 l 1,37,-1
 254 1032 l 2,38,39
 438 1032 438 1032 438 1168 c 0,40,41
 438 1220 438 1220 395 1250 c 128,-1,42
 352 1280 352 1280 268 1280 c 0,43,44
 214 1280 214 1280 165.5 1266.5 c 128,-1,45
 117 1253 117 1253 96 1240 c 2,46,-1
 75 1226 l 1,47,-1
 43 1226 l 1,48,-1
 43 1321 l 1,49,50
 81 1348 81 1348 146.5 1365 c 128,-1,51
 212 1382 212 1382 283 1382 c 0,52,53
 425 1382 425 1382 498 1320.5 c 128,-1,54
 571 1259 571 1259 571 1168 c 0,55,56
 571 1097 571 1097 535 1056 c 128,-1,57
 499 1015 499 1015 438 988 c 1,58,59
 502 968 502 968 551 914 c 128,-1,60
 600 860 600 860 600 784 c 0,61,62
 600 677 600 677 516.5 611 c 128,-1,63
 433 545 433 545 287 545 c 0,18,19
EndSplineSet
EndChar

StartChar: questiondown
Encoding: 191 191 126
Width: 1019
Flags: W
LayerCount: 2
Fore
SplineSet
744 590 m 1,0,-1
 803 549 l 1,1,2
 635 317 635 317 585 240 c 0,3,4
 435 8 435 8 435 -109 c 0,5,6
 435 -200 435 -200 490.5 -257.5 c 128,-1,7
 546 -315 546 -315 666 -315 c 0,8,9
 758 -315 758 -315 857 -279.5 c 128,-1,10
 956 -244 956 -244 1037 -191 c 1,11,-1
 1037 -335 l 1,12,13
 839 -454 839 -454 649 -454 c 0,14,15
 464 -454 464 -454 370 -360 c 128,-1,16
 276 -266 276 -266 276 -125 c 0,17,18
 276 -72 276 -72 293 -14 c 128,-1,19
 310 44 310 44 333 93.5 c 128,-1,20
 356 143 356 143 399.5 204.5 c 128,-1,21
 443 266 443 266 475.5 306.5 c 128,-1,22
 508 347 508 347 566.5 409.5 c 128,-1,23
 625 472 625 472 655 501.5 c 128,-1,24
 685 531 685 531 744 590 c 1,0,-1
760 1051 m 128,-1,26
 821 1051 821 1051 864 1009 c 128,-1,27
 907 967 907 967 907 907 c 0,28,29
 907 846 907 846 864 803 c 128,-1,30
 821 760 821 760 760 760 c 0,31,32
 700 760 700 760 658 803 c 128,-1,33
 616 846 616 846 616 907 c 128,-1,34
 616 968 616 968 657.5 1009.5 c 128,-1,25
 699 1051 699 1051 760 1051 c 128,-1,26
EndSplineSet
EndChar

StartChar: AE
Encoding: 198 198 133
Width: 1863
Flags: W
LayerCount: 2
Fore
SplineSet
23 0 m 1,0,-1
 910 1481 l 1,1,-1
 1753 1481 l 1,2,-1
 1753 1344 l 1,3,-1
 1182 1344 l 1,4,-1
 1182 835 l 1,5,-1
 1672 835 l 1,6,-1
 1672 698 l 1,7,-1
 1182 698 l 1,8,-1
 1182 137 l 1,9,-1
 1751 137 l 1,10,-1
 1751 0 l 1,11,-1
 1000 0 l 1,12,-1
 1000 351 l 1,13,-1
 431 351 l 1,14,-1
 219 0 l 1,15,-1
 23 0 l 1,0,-1
509 487 m 1,16,-1
 1000 487 l 1,17,-1
 1000 1330 l 1,18,-1
 997 1330 l 1,19,-1
 509 487 l 1,16,-1
EndSplineSet
EndChar

StartChar: Eth
Encoding: 208 208 143
Width: 1416
Flags: W
LayerCount: 2
Fore
SplineSet
318 137 m 1,0,-1
 574 137 l 2,1,2
 862 137 862 137 999.5 283.5 c 128,-1,3
 1137 430 1137 430 1137 740 c 0,4,5
 1137 1034 1137 1034 994 1188 c 128,-1,6
 851 1342 851 1342 579 1342 c 2,7,-1
 318 1342 l 1,8,-1
 318 840 l 1,9,-1
 687 840 l 1,10,-1
 687 720 l 1,11,-1
 318 720 l 1,12,-1
 318 137 l 1,0,-1
0 720 m 1,13,-1
 0 840 l 1,14,-1
 135 840 l 1,15,-1
 135 1481 l 1,16,-1
 552 1481 l 2,17,18
 921 1481 921 1481 1120 1296.5 c 128,-1,19
 1319 1112 1319 1112 1319 740 c 0,20,21
 1319 366 1319 366 1128 183 c 128,-1,22
 937 0 937 0 547 0 c 2,23,-1
 135 0 l 1,24,-1
 135 720 l 1,25,-1
 0 720 l 1,13,-1
EndSplineSet
EndChar

StartChar: multiply
Encoding: 215 215 150
Width: 1051
Flags: W
LayerCount: 2
Fore
SplineSet
182 40 m 1,0,-1
 76 146 l 1,1,-1
 421 487 l 1,2,-1
 76 830 l 1,3,-1
 182 937 l 1,4,-1
 524 593 l 1,5,-1
 866 937 l 1,6,-1
 974 830 l 1,7,-1
 628 487 l 1,8,-1
 974 146 l 1,9,-1
 866 40 l 1,10,-1
 524 385 l 1,11,-1
 182 40 l 1,0,-1
EndSplineSet
EndChar

StartChar: Oslash
Encoding: 216 216 151
Width: 1565
Flags: W
LayerCount: 2
Fore
SplineSet
783 -23 m 0,0,1
 516 -23 516 -23 345 112 c 1,2,-1
 254 0 l 1,3,-1
 60 0 l 1,4,-1
 241 222 l 1,5,6
 102 416 102 416 102 740 c 0,7,8
 102 916 102 916 144 1055.5 c 128,-1,9
 186 1195 186 1195 269.5 1295.5 c 128,-1,10
 353 1396 353 1396 483 1449.5 c 128,-1,11
 613 1503 613 1503 783 1503 c 0,12,13
 1033 1503 1033 1503 1196 1388 c 1,14,-1
 1271 1481 l 1,15,-1
 1467 1481 l 1,16,-1
 1306 1285 l 1,17,18
 1465 1089 1465 1089 1465 740 c 0,19,20
 1465 507 1465 507 1392 338 c 128,-1,21
 1319 169 1319 169 1164 73 c 128,-1,22
 1009 -23 1009 -23 783 -23 c 0,0,1
357 362 m 1,23,-1
 1094 1263 l 1,24,25
 974 1362 974 1362 783 1362 c 0,26,27
 668 1362 668 1362 578.5 1325.5 c 128,-1,28
 489 1289 489 1289 434.5 1230.5 c 128,-1,29
 380 1172 380 1172 345 1088.5 c 128,-1,30
 310 1005 310 1005 297 921 c 128,-1,31
 284 837 284 837 284 740 c 0,32,33
 284 512 284 512 357 362 c 1,23,-1
783 118 m 0,34,35
 895 118 895 118 982.5 153 c 128,-1,36
 1070 188 1070 188 1125 245.5 c 128,-1,37
 1180 303 1180 303 1215.5 385 c 128,-1,38
 1251 467 1251 467 1265.5 553.5 c 128,-1,39
 1280 640 1280 640 1280 740 c 0,40,41
 1280 994 1280 994 1192 1145 c 1,42,-1
 447 235 l 1,43,44
 570 118 570 118 783 118 c 0,34,35
EndSplineSet
EndChar

StartChar: Thorn
Encoding: 222 222 157
Width: 1151
Flags: W
LayerCount: 2
Fore
SplineSet
176 0 m 1,0,-1
 176 1481 l 1,1,-1
 358 1481 l 1,2,-1
 358 1139 l 1,3,-1
 664 1139 l 2,4,5
 874 1139 874 1139 988.5 1031.5 c 128,-1,6
 1103 924 1103 924 1103 744 c 0,7,8
 1103 562 1103 562 988 455.5 c 128,-1,9
 873 349 873 349 663 349 c 2,10,-1
 358 349 l 1,11,-1
 358 0 l 1,12,-1
 176 0 l 1,0,-1
358 485 m 1,13,-1
 660 485 l 2,14,15
 778 485 778 485 849 546.5 c 128,-1,16
 920 608 920 608 920 744 c 0,17,18
 920 875 920 875 849 939 c 128,-1,19
 778 1003 778 1003 659 1003 c 2,20,-1
 358 1003 l 1,21,-1
 358 485 l 1,13,-1
EndSplineSet
EndChar

StartChar: germandbls
Encoding: 223 223 158
Width: 1234
Flags: W
LayerCount: 2
Fore
SplineSet
121 0 m 1,0,-1
 121 1033 l 2,1,2
 121 1503 121 1503 610 1503 c 0,3,4
 798 1503 798 1503 919.5 1412 c 128,-1,5
 1041 1321 1041 1321 1041 1174 c 0,6,7
 1041 1080 1041 1080 972 996.5 c 128,-1,8
 903 913 903 913 795 896 c 1,9,-1
 795 895 l 1,10,11
 980 845 980 845 1080 718.5 c 128,-1,12
 1180 592 1180 592 1180 436 c 0,13,14
 1180 365 1180 365 1160 301.5 c 128,-1,15
 1140 238 1140 238 1097 182.5 c 128,-1,16
 1054 127 1054 127 991 87 c 128,-1,17
 928 47 928 47 836 23.5 c 128,-1,18
 744 0 744 0 632 0 c 2,19,-1
 510 0 l 1,20,-1
 510 130 l 1,21,-1
 624 130 l 2,22,23
 811 130 811 130 906 219.5 c 128,-1,24
 1001 309 1001 309 1001 442 c 0,25,26
 1001 512 1001 512 974 580 c 128,-1,27
 947 648 947 648 895 705.5 c 128,-1,28
 843 763 843 763 758 798 c 128,-1,29
 673 833 673 833 567 833 c 1,30,-1
 567 948 l 1,31,32
 646 948 646 948 704 966.5 c 128,-1,33
 762 985 762 985 794.5 1018 c 128,-1,34
 827 1051 827 1051 842 1089.5 c 128,-1,35
 857 1128 857 1128 857 1173 c 0,36,37
 857 1255 857 1255 786.5 1311 c 128,-1,38
 716 1367 716 1367 594 1367 c 0,39,40
 533 1367 533 1367 483.5 1352 c 128,-1,41
 434 1337 434 1337 392 1303 c 128,-1,42
 350 1269 350 1269 326.5 1206 c 128,-1,43
 303 1143 303 1143 303 1055 c 2,44,-1
 303 0 l 1,45,-1
 121 0 l 1,0,-1
EndSplineSet
EndChar

StartChar: ae
Encoding: 230 230 165
Width: 1758
Flags: W
LayerCount: 2
Fore
SplineSet
421 -21 m 0,0,1
 373 -21 373 -21 326.5 -11 c 128,-1,2
 280 -1 280 -1 233.5 23 c 128,-1,3
 187 47 187 47 152 82 c 128,-1,4
 117 117 117 117 95 172.5 c 128,-1,5
 73 228 73 228 73 297 c 0,6,7
 73 430 73 430 177 500.5 c 128,-1,8
 281 571 281 571 526 591 c 1,9,10
 638 596 638 596 760 596 c 1,11,12
 758 662 758 662 753 705.5 c 128,-1,13
 748 749 748 749 732.5 793 c 128,-1,14
 717 837 717 837 689.5 862 c 128,-1,15
 662 887 662 887 615.5 902.5 c 128,-1,16
 569 918 569 918 502 918 c 0,17,18
 419 918 419 918 330 897 c 128,-1,19
 241 876 241 876 175 841 c 1,20,-1
 138 973 l 1,21,22
 186 1008 186 1008 292 1033 c 128,-1,23
 398 1058 398 1058 487 1058 c 0,24,25
 557 1058 557 1058 610.5 1049 c 128,-1,26
 664 1040 664 1040 714.5 1017.5 c 128,-1,27
 765 995 765 995 802.5 951.5 c 128,-1,28
 840 908 840 908 863 844 c 1,29,30
 910 939 910 939 1015.5 998.5 c 128,-1,31
 1121 1058 1121 1058 1219 1058 c 0,32,33
 1334 1058 1334 1058 1422.5 1015 c 128,-1,34
 1511 972 1511 972 1565 897 c 128,-1,35
 1619 822 1619 822 1646 725.5 c 128,-1,36
 1673 629 1673 629 1673 515 c 2,37,-1
 1673 480 l 1,38,-1
 929 480 l 1,39,40
 930 317 930 317 1025 218 c 128,-1,41
 1120 119 1120 119 1287 119 c 0,42,43
 1395 119 1395 119 1471.5 150.5 c 128,-1,44
 1548 182 1548 182 1589 219 c 1,45,-1
 1610 219 l 1,46,-1
 1655 100 l 1,47,48
 1590 46 1590 46 1501.5 12.5 c 128,-1,49
 1413 -21 1413 -21 1271 -21 c 0,50,51
 1186 -21 1186 -21 1112 3.5 c 128,-1,52
 1038 28 1038 28 987 67 c 128,-1,53
 936 106 936 106 902.5 148.5 c 128,-1,54
 869 191 869 191 851 234 c 1,55,56
 798 109 798 109 686 44 c 128,-1,57
 574 -21 574 -21 421 -21 c 0,0,1
419 119 m 0,58,59
 595 119 595 119 676.5 207 c 128,-1,60
 758 295 758 295 760 480 c 1,61,62
 626 480 626 480 530 470 c 128,-1,63
 434 460 434 460 379 445 c 128,-1,64
 324 430 324 430 293 405 c 128,-1,65
 262 380 262 380 252.5 356.5 c 128,-1,66
 243 333 243 333 243 300 c 0,67,68
 243 216 243 216 288.5 167.5 c 128,-1,69
 334 119 334 119 419 119 c 0,58,59
932 596 m 1,70,-1
 1498 596 l 1,71,72
 1497 640 1497 640 1488.5 683.5 c 128,-1,73
 1480 727 1480 727 1459.5 770 c 128,-1,74
 1439 813 1439 813 1409.5 845.5 c 128,-1,75
 1380 878 1380 878 1334.5 898 c 128,-1,76
 1289 918 1289 918 1233 918 c 0,77,78
 1161 918 1161 918 1104 889 c 128,-1,79
 1047 860 1047 860 1012 811.5 c 128,-1,80
 977 763 977 763 957.5 708.5 c 128,-1,81
 938 654 938 654 932 596 c 1,70,-1
EndSplineSet
EndChar

StartChar: eth
Encoding: 240 240 175
Width: 1850
Flags: W
LayerCount: 2
Fore
SplineSet
617 -23 m 0,0,1
 397 -23 397 -23 258.5 107.5 c 128,-1,2
 120 238 120 238 120 453 c 0,3,4
 120 588 120 588 187.5 689.5 c 128,-1,5
 255 791 255 791 358.5 840.5 c 128,-1,6
 462 890 462 890 581 890 c 0,7,8
 619 890 619 890 665 881.5 c 128,-1,9
 711 873 711 873 765 854.5 c 128,-1,10
 819 836 819 836 867.5 798 c 128,-1,11
 916 760 916 760 943 709 c 1,12,13
 895 990 895 990 733 1165 c 1,14,-1
 580 1014 l 1,15,-1
 486 1099 l 1,16,-1
 639 1250 l 1,17,18
 502 1348 502 1348 330 1349 c 1,19,20
 358 1481 358 1481 363 1481 c 0,21,22
 576 1481 576 1481 749 1359 c 1,23,-1
 912 1520 l 1,24,-1
 1005 1436 l 1,25,-1
 845 1276 l 1,26,27
 979 1141 979 1141 1052 942 c 128,-1,28
 1125 743 1125 743 1125 534 c 0,29,30
 1125 276 1125 276 985.5 126.5 c 128,-1,31
 846 -23 846 -23 617 -23 c 0,0,1
633 114 m 0,32,33
 726 114 726 114 796.5 160.5 c 128,-1,34
 867 207 867 207 901 276 c 128,-1,35
 935 345 935 345 935 422 c 0,36,37
 935 489 935 489 916.5 547 c 128,-1,38
 898 605 898 605 860 652 c 128,-1,39
 822 699 822 699 756 726 c 128,-1,40
 690 753 690 753 602 753 c 0,41,42
 529 753 529 753 469.5 727 c 128,-1,43
 410 701 410 701 373.5 658 c 128,-1,44
 337 615 337 615 317.5 562.5 c 128,-1,45
 298 510 298 510 298 455 c 0,46,47
 298 399 298 399 308 350.5 c 128,-1,48
 318 302 318 302 342 257.5 c 128,-1,49
 366 213 366 213 403.5 182 c 128,-1,50
 441 151 441 151 499.5 132.5 c 128,-1,51
 558 114 558 114 633 114 c 0,32,33
EndSplineSet
EndChar

StartChar: divide
Encoding: 247 247 182
Width: 1187
Flags: W
LayerCount: 2
Fore
SplineSet
578 0 m 0,0,1
 515 0 515 0 470 45.5 c 128,-1,2
 425 91 425 91 425 154 c 0,3,4
 425 218 425 218 469.5 263.5 c 128,-1,5
 514 309 514 309 578 309 c 128,-1,6
 642 309 642 309 687.5 263.5 c 128,-1,7
 733 218 733 218 733 154 c 0,8,9
 733 91 733 91 687.5 45.5 c 128,-1,10
 642 0 642 0 578 0 c 0,0,1
98 448 m 1,11,-1
 98 604 l 1,12,-1
 1089 604 l 1,13,-1
 1089 448 l 1,14,-1
 98 448 l 1,11,-1
578 737 m 0,15,16
 515 737 515 737 470 783 c 128,-1,17
 425 829 425 829 425 893 c 128,-1,18
 425 957 425 957 469.5 1002 c 128,-1,19
 514 1047 514 1047 578 1047 c 128,-1,20
 642 1047 642 1047 687.5 1002 c 128,-1,21
 733 957 733 957 733 893 c 128,-1,22
 733 829 733 829 687.5 783 c 128,-1,23
 642 737 642 737 578 737 c 0,15,16
EndSplineSet
EndChar

StartChar: oslash
Encoding: 248 248 183
Width: 1178
Flags: W
LayerCount: 2
Fore
SplineSet
588 -21 m 0,0,1
 404 -21 404 -21 276 77 c 1,2,-1
 208 -4 l 1,3,-1
 75 -4 l 1,4,-1
 204 146 l 1,5,6
 89 287 89 287 89 521 c 0,7,8
 89 634 89 634 118 726 c 128,-1,9
 147 818 147 818 195 879 c 128,-1,10
 243 940 243 940 308 981 c 128,-1,11
 373 1022 373 1022 443 1040 c 128,-1,12
 513 1058 513 1058 588 1058 c 0,13,14
 784 1058 784 1058 910 957 c 1,15,-1
 979 1034 l 1,16,-1
 1112 1034 l 1,17,-1
 982 885 l 1,18,19
 1092 746 1092 746 1092 520 c 0,20,21
 1092 407 1092 407 1064.5 315.5 c 128,-1,22
 1037 224 1037 224 989.5 162 c 128,-1,23
 942 100 942 100 877 58 c 128,-1,24
 812 16 812 16 740 -2.5 c 128,-1,25
 668 -21 668 -21 588 -21 c 0,0,1
323 281 m 1,26,-1
 803 832 l 1,27,28
 723 908 723 908 588 908 c 0,29,30
 448 908 448 908 359.5 805.5 c 128,-1,31
 271 703 271 703 271 519 c 0,32,33
 271 376 271 376 323 281 c 1,26,-1
590 126 m 0,34,35
 746 126 746 126 827.5 230 c 128,-1,36
 909 334 909 334 909 517 c 0,37,38
 909 657 909 657 863 749 c 1,39,-1
 386 201 l 1,40,41
 469 126 469 126 590 126 c 0,34,35
EndSplineSet
EndChar

StartChar: thorn
Encoding: 254 254 189
Width: 1157
Flags: W
LayerCount: 2
Fore
SplineSet
132 -388 m 1,0,-1
 132 1481 l 1,1,-1
 313 1481 l 1,2,-1
 313 889 l 1,3,4
 360 964 360 964 445.5 1011 c 128,-1,5
 531 1058 531 1058 623 1058 c 0,6,7
 829 1058 829 1058 949.5 912.5 c 128,-1,8
 1070 767 1070 767 1070 510 c 0,9,10
 1070 254 1070 254 948.5 116.5 c 128,-1,11
 827 -21 827 -21 630 -21 c 0,12,13
 537 -21 537 -21 452 15.5 c 128,-1,14
 367 52 367 52 313 119 c 1,15,-1
 313 -388 l 1,16,-1
 132 -388 l 1,0,-1
600 119 m 0,17,18
 737 119 737 119 812 222 c 128,-1,19
 887 325 887 325 887 511 c 0,20,21
 887 580 887 580 880 636 c 128,-1,22
 873 692 873 692 854 746 c 128,-1,23
 835 800 835 800 804.5 836.5 c 128,-1,24
 774 873 774 873 724 895.5 c 128,-1,25
 674 918 674 918 608 918 c 0,26,27
 536 918 536 918 449 886 c 128,-1,28
 362 854 362 854 313 791 c 1,29,-1
 313 231 l 1,30,31
 350 186 350 186 413 159 c 128,-1,32
 476 132 476 132 519.5 125.5 c 128,-1,33
 563 119 563 119 600 119 c 0,17,18
EndSplineSet
EndChar

StartChar: Dcroat
Encoding: 272 272 207
Width: 1416
Flags: W
LayerCount: 2
Fore
SplineSet
318 137 m 1,0,-1
 574 137 l 2,1,2
 862 137 862 137 999.5 283.5 c 128,-1,3
 1137 430 1137 430 1137 740 c 0,4,5
 1137 1034 1137 1034 994 1188 c 128,-1,6
 851 1342 851 1342 579 1342 c 2,7,-1
 318 1342 l 1,8,-1
 318 840 l 1,9,-1
 687 840 l 1,10,-1
 687 720 l 1,11,-1
 318 720 l 1,12,-1
 318 137 l 1,0,-1
0 720 m 1,13,-1
 0 840 l 1,14,-1
 135 840 l 1,15,-1
 135 1481 l 1,16,-1
 552 1481 l 2,17,18
 921 1481 921 1481 1120 1296.5 c 128,-1,19
 1319 1112 1319 1112 1319 740 c 0,20,21
 1319 366 1319 366 1128 183 c 128,-1,22
 937 0 937 0 547 0 c 2,23,-1
 135 0 l 1,24,-1
 135 720 l 1,25,-1
 0 720 l 1,13,-1
EndSplineSet
EndChar

StartChar: dcroat
Encoding: 273 273 208
Width: 1141
Flags: W
LayerCount: 2
Fore
SplineSet
573 119 m 0,0,1
 665 119 665 119 748 161.5 c 128,-1,2
 831 204 831 204 848 247 c 1,3,-1
 848 793 l 1,4,5
 828 837 828 837 745.5 877.5 c 128,-1,6
 663 918 663 918 571 918 c 0,7,8
 438 918 438 918 354 813 c 128,-1,9
 270 708 270 708 270 521 c 0,10,11
 270 336 270 336 346 227.5 c 128,-1,12
 422 119 422 119 573 119 c 0,0,1
528 1208 m 1,13,-1
 528 1324 l 1,14,-1
 848 1324 l 1,15,-1
 848 1429 l 1,16,-1
 1030 1429 l 1,17,-1
 1030 1324 l 1,18,-1
 1141 1324 l 1,19,-1
 1141 1208 l 1,20,-1
 1030 1208 l 1,21,-1
 1030 0 l 1,22,-1
 848 0 l 1,23,-1
 848 142 l 1,24,25
 810 67 810 67 727.5 23 c 128,-1,26
 645 -21 645 -21 547 -21 c 0,27,28
 454 -21 454 -21 373 13 c 128,-1,29
 292 47 292 47 229 111.5 c 128,-1,30
 166 176 166 176 129.5 279 c 128,-1,31
 93 382 93 382 93 511 c 0,32,33
 93 642 93 642 128 747 c 128,-1,34
 163 852 163 852 223 919.5 c 128,-1,35
 283 987 283 987 362 1022.5 c 128,-1,36
 441 1058 441 1058 531 1058 c 0,37,38
 625 1058 625 1058 715 1022.5 c 128,-1,39
 805 987 805 987 848 911 c 1,40,-1
 848 1208 l 1,41,-1
 528 1208 l 1,13,-1
EndSplineSet
EndChar

StartChar: gcommaaccent
Encoding: 291 291 222
Width: 1151
GlyphClass: 2
Flags: W
LayerCount: 2
Fore
SplineSet
745 1746 m 1,0,-1
 646 1260 l 1,1,-1
 453 1260 l 1,2,-1
 618 1746 l 1,3,-1
 745 1746 l 1,0,-1
557 -386 m 0,4,5
 474 -386 474 -386 388.5 -366.5 c 128,-1,6
 303 -347 303 -347 267.5 -333 c 128,-1,7
 232 -319 232 -319 219 -311 c 1,8,-1
 254 -179 l 1,9,10
 268 -187 268 -187 293.5 -198.5 c 128,-1,11
 319 -210 319 -210 398.5 -229.5 c 128,-1,12
 478 -249 478 -249 558 -249 c 0,13,14
 715 -249 715 -249 781.5 -175 c 128,-1,15
 848 -101 848 -101 848 56 c 2,16,-1
 848 112 l 1,17,18
 738 -21 738 -21 545 -21 c 0,19,20
 348 -21 348 -21 220.5 120.5 c 128,-1,21
 93 262 93 262 93 517 c 0,22,23
 93 774 93 774 213 916 c 128,-1,24
 333 1058 333 1058 540 1058 c 0,25,26
 632 1058 632 1058 716.5 1012.5 c 128,-1,27
 801 967 801 967 847 892 c 1,28,-1
 847 1032 l 1,29,-1
 1030 1032 l 1,30,-1
 1030 144 l 2,31,32
 1030 -54 1030 -54 979 -170.5 c 128,-1,33
 928 -287 928 -287 826.5 -336.5 c 128,-1,34
 725 -386 725 -386 557 -386 c 0,4,5
564 119 m 0,35,36
 746 119 746 119 847 239 c 1,37,-1
 847 793 l 1,38,39
 798 853 798 853 716 885.5 c 128,-1,40
 634 918 634 918 563 918 c 0,41,42
 482 918 482 918 423 886.5 c 128,-1,43
 364 855 364 855 331.5 798 c 128,-1,44
 299 741 299 741 284.5 672 c 128,-1,45
 270 603 270 603 270 518 c 0,46,47
 270 331 270 331 349 225 c 128,-1,48
 428 119 428 119 564 119 c 0,35,36
EndSplineSet
EndChar

StartChar: Hbar
Encoding: 294 294 225
Width: 1390
Flags: W
LayerCount: 2
Fore
SplineSet
1072 1208 m 1,0,-1
 318 1208 l 1,1,-1
 318 830 l 1,2,-1
 1072 830 l 1,3,-1
 1072 1208 l 1,0,-1
55 1208 m 1,4,-1
 55 1324 l 1,5,-1
 135 1324 l 1,6,-1
 135 1481 l 1,7,-1
 318 1481 l 1,8,-1
 318 1324 l 1,9,-1
 1072 1324 l 1,10,-1
 1072 1481 l 1,11,-1
 1255 1481 l 1,12,-1
 1255 1324 l 1,13,-1
 1333 1324 l 1,14,-1
 1333 1208 l 1,15,-1
 1255 1208 l 1,16,-1
 1255 0 l 1,17,-1
 1072 0 l 1,18,-1
 1072 697 l 1,19,-1
 318 697 l 1,20,-1
 318 0 l 1,21,-1
 135 0 l 1,22,-1
 135 1208 l 1,23,-1
 55 1208 l 1,4,-1
EndSplineSet
EndChar

StartChar: hbar
Encoding: 295 295 226
Width: 1136
Flags: W
LayerCount: 2
Fore
SplineSet
0 1208 m 1,0,-1
 0 1324 l 1,1,-1
 121 1324 l 1,2,-1
 121 1434 l 1,3,-1
 303 1434 l 1,4,-1
 303 1324 l 1,5,-1
 687 1324 l 1,6,-1
 687 1208 l 1,7,-1
 303 1208 l 1,8,-1
 303 863 l 1,9,10
 363 957 363 957 469 1007.5 c 128,-1,11
 575 1058 575 1058 688 1058 c 0,12,13
 840 1058 840 1058 935.5 963 c 128,-1,14
 1031 868 1031 868 1031 691 c 2,15,-1
 1031 0 l 1,16,-1
 848 0 l 1,17,-1
 848 703 l 2,18,19
 848 762 848 762 828.5 806 c 128,-1,20
 809 850 809 850 775.5 873.5 c 128,-1,21
 742 897 742 897 705.5 907.5 c 128,-1,22
 669 918 669 918 627 918 c 0,23,24
 564 918 564 918 501.5 897.5 c 128,-1,25
 439 877 439 877 397 848 c 128,-1,26
 355 819 355 819 329 791 c 128,-1,27
 303 763 303 763 303 746 c 2,28,-1
 303 0 l 1,29,-1
 121 0 l 1,30,-1
 121 1208 l 1,31,-1
 0 1208 l 1,0,-1
EndSplineSet
EndChar

StartChar: dotlessi
Encoding: 305 305 236
Width: 497
Flags: W
LayerCount: 2
Fore
SplineSet
151 0 m 1,0,-1
 151 1032 l 1,1,-1
 334 1032 l 1,2,-1
 334 0 l 1,3,-1
 151 0 l 1,0,-1
EndSplineSet
EndChar

StartChar: kgreenlandic
Encoding: 312 312 243
Width: 1062
Flags: W
LayerCount: 2
Fore
SplineSet
115 0 m 1,0,-1
 115 1032 l 1,1,-1
 298 1032 l 1,2,-1
 298 559 l 1,3,-1
 299 559 l 1,4,-1
 827 1032 l 1,5,-1
 1024 1032 l 1,6,-1
 1024 988 l 1,7,-1
 583 592 l 1,8,-1
 1052 51 l 1,9,-1
 1052 0 l 1,10,-1
 878 0 l 1,11,-1
 449 514 l 1,12,-1
 298 387 l 1,13,-1
 298 0 l 1,14,-1
 115 0 l 1,0,-1
EndSplineSet
EndChar

StartChar: Lslash
Encoding: 321 321 252
Width: 1116
Flags: W
LayerCount: 2
Fore
SplineSet
227 0 m 1,0,-1
 227 524 l 1,1,-1
 75 415 l 1,2,-1
 75 567 l 1,3,-1
 227 675 l 1,4,-1
 227 1481 l 1,5,-1
 409 1481 l 1,6,-1
 409 807 l 1,7,-1
 722 1033 l 1,8,-1
 722 882 l 1,9,-1
 409 656 l 1,10,-1
 409 137 l 1,11,-1
 1078 137 l 1,12,-1
 1078 0 l 1,13,-1
 227 0 l 1,0,-1
EndSplineSet
EndChar

StartChar: lslash
Encoding: 322 322 253
Width: 567
Flags: W
LayerCount: 2
Fore
SplineSet
452 -9 m 2,0,1
 360 -9 360 -9 297.5 9 c 128,-1,2
 235 27 235 27 203 51 c 128,-1,3
 171 75 171 75 154.5 125 c 128,-1,4
 138 175 138 175 135.5 210.5 c 128,-1,5
 133 246 133 246 133 316 c 2,6,-1
 133 622 l 1,7,-1
 26 541 l 1,8,-1
 26 683 l 1,9,-1
 133 766 l 1,10,-1
 133 1429 l 1,11,-1
 316 1429 l 1,12,-1
 316 905 l 1,13,-1
 480 1033 l 1,14,-1
 480 890 l 1,15,-1
 316 762 l 1,16,-1
 316 310 l 2,17,18
 316 268 316 268 317.5 245 c 128,-1,19
 319 222 319 222 327 199.5 c 128,-1,20
 335 177 335 177 347.5 167 c 128,-1,21
 360 157 360 157 386 148.5 c 128,-1,22
 412 140 412 140 446 138 c 128,-1,23
 480 136 480 136 534 136 c 1,24,-1
 534 -9 l 1,25,-1
 452 -9 l 2,0,1
EndSplineSet
EndChar

StartChar: OE
Encoding: 338 338 266
Width: 1919
Flags: W
LayerCount: 2
Fore
SplineSet
738 0 m 2,0,1
 643 0 643 0 562 16.5 c 128,-1,2
 481 33 481 33 421 60 c 128,-1,3
 361 87 361 87 312.5 128.5 c 128,-1,4
 264 170 264 170 231 214.5 c 128,-1,5
 198 259 198 259 173 316 c 128,-1,6
 148 373 148 373 134.5 425 c 128,-1,7
 121 477 121 477 112.5 539.5 c 128,-1,8
 104 602 104 602 101.5 651.5 c 128,-1,9
 99 701 99 701 99 759 c 0,10,11
 99 871 99 871 119.5 973.5 c 128,-1,12
 140 1076 140 1076 185.5 1169.5 c 128,-1,13
 231 1263 231 1263 298.5 1331.5 c 128,-1,14
 366 1400 366 1400 467 1440.5 c 128,-1,15
 568 1481 568 1481 692 1481 c 2,16,-1
 1799 1481 l 1,17,-1
 1799 1344 l 1,18,-1
 1175 1344 l 1,19,-1
 1175 854 l 1,20,-1
 1718 854 l 1,21,-1
 1718 717 l 1,22,-1
 1175 717 l 1,23,-1
 1175 136 l 1,24,-1
 1799 136 l 1,25,-1
 1799 0 l 1,26,-1
 738 0 l 2,0,1
707 136 m 2,27,-1
 993 136 l 1,28,-1
 993 1344 l 1,29,-1
 712 1344 l 2,30,31
 594 1344 594 1344 508.5 1298 c 128,-1,32
 423 1252 423 1252 374.5 1169 c 128,-1,33
 326 1086 326 1086 303.5 984 c 128,-1,34
 281 882 281 882 281 757 c 0,35,36
 281 657 281 657 292.5 571 c 128,-1,37
 304 485 304 485 334 403 c 128,-1,38
 364 321 364 321 411 263.5 c 128,-1,39
 458 206 458 206 533.5 171 c 128,-1,40
 609 136 609 136 707 136 c 2,27,-1
EndSplineSet
EndChar

StartChar: oe
Encoding: 339 339 267
Width: 1909
Flags: W
LayerCount: 2
Fore
SplineSet
588 -21 m 0,0,1
 531 -21 531 -21 471.5 -9 c 128,-1,2
 412 3 412 3 342 39.5 c 128,-1,3
 272 76 272 76 218.5 133 c 128,-1,4
 165 190 165 190 129 289 c 128,-1,5
 93 388 93 388 93 515 c 0,6,7
 93 617 93 617 115 701.5 c 128,-1,8
 137 786 137 786 172 841 c 128,-1,9
 207 896 207 896 254.5 937.5 c 128,-1,10
 302 979 302 979 347 1001.5 c 128,-1,11
 392 1024 392 1024 441.5 1037.5 c 128,-1,12
 491 1051 491 1051 523 1054.5 c 128,-1,13
 555 1058 555 1058 582 1058 c 0,14,15
 736 1058 736 1058 845 982.5 c 128,-1,16
 954 907 954 907 995 799 c 1,17,18
 1019 863 1019 863 1067.5 919.5 c 128,-1,19
 1116 976 1116 976 1198 1017 c 128,-1,20
 1280 1058 1280 1058 1375 1058 c 0,21,22
 1487 1058 1487 1058 1574 1015.5 c 128,-1,23
 1661 973 1661 973 1715 897.5 c 128,-1,24
 1769 822 1769 822 1796.5 723 c 128,-1,25
 1824 624 1824 624 1824 505 c 2,26,-1
 1824 475 l 1,27,-1
 1095 475 l 1,28,29
 1095 408 1095 408 1115 346.5 c 128,-1,30
 1135 285 1135 285 1175 233 c 128,-1,31
 1215 181 1215 181 1284 150 c 128,-1,32
 1353 119 1353 119 1443 119 c 0,33,34
 1540 119 1540 119 1625 156 c 128,-1,35
 1710 193 1710 193 1740 228 c 1,36,-1
 1761 228 l 1,37,-1
 1805 101 l 1,38,39
 1669 -21 1669 -21 1419 -21 c 0,40,41
 1290 -21 1290 -21 1173 46 c 128,-1,42
 1056 113 1056 113 1001 217 c 1,43,44
 943 109 943 109 839 44 c 128,-1,45
 735 -21 735 -21 588 -21 c 0,0,1
591 119 m 0,46,47
 636 119 636 119 678 130.5 c 128,-1,48
 720 142 720 142 762.5 170.5 c 128,-1,49
 805 199 805 199 836.5 242.5 c 128,-1,50
 868 286 868 286 887.5 355.5 c 128,-1,51
 907 425 907 425 907 512 c 0,52,53
 907 609 907 609 890 681.5 c 128,-1,54
 873 754 873 754 845 799 c 128,-1,55
 817 844 817 844 774.5 871 c 128,-1,56
 732 898 732 898 686.5 908 c 128,-1,57
 641 918 641 918 584 918 c 0,58,59
 544 918 544 918 504 907 c 128,-1,60
 464 896 464 896 421 867 c 128,-1,61
 378 838 378 838 345 794 c 128,-1,62
 312 750 312 750 291 677.5 c 128,-1,63
 270 605 270 605 270 513 c 0,64,65
 270 427 270 427 290.5 358 c 128,-1,66
 311 289 311 289 344 245.5 c 128,-1,67
 377 202 377 202 420.5 172.5 c 128,-1,68
 464 143 464 143 506 131 c 128,-1,69
 548 119 548 119 591 119 c 0,46,47
1102 596 m 1,70,-1
 1650 596 l 1,71,72
 1648 640 1648 640 1639.5 682 c 128,-1,73
 1631 724 1631 724 1610.5 767.5 c 128,-1,74
 1590 811 1590 811 1560.5 844 c 128,-1,75
 1531 877 1531 877 1485 897.5 c 128,-1,76
 1439 918 1439 918 1382 918 c 0,77,78
 1308 918 1308 918 1253 885.5 c 128,-1,79
 1198 853 1198 853 1168 799 c 128,-1,80
 1138 745 1138 745 1123.5 697 c 128,-1,81
 1109 649 1109 649 1102 596 c 1,70,-1
EndSplineSet
EndChar

StartChar: glyph307
Encoding: 65539 -1 307
Width: 1622
GlyphClass: 2
Flags: W
LayerCount: 2
Fore
SplineSet
344 277 m 1,0,-1
 512 819 l 1,1,-1
 53 1157 l 1,2,-1
 625 1168 l 1,3,-1
 803 1710 l 1,4,-1
 991 1168 l 1,5,-1
 1563 1168 l 1,6,-1
 1102 819 l 1,7,-1
 1272 277 l 1,8,-1
 803 604 l 1,9,-1
 344 277 l 1,0,-1
EndSplineSet
EndChar

StartChar: florin
Encoding: 402 402 308
Width: 1168
Flags: W
LayerCount: 2
Fore
SplineSet
228 -246 m 0,0,1
 156 -246 156 -246 95 -225 c 1,2,-1
 120 -78 l 1,3,4
 167 -99 167 -99 226 -99 c 0,5,6
 262 -99 262 -99 287.5 -89 c 128,-1,7
 313 -79 313 -79 338 -51.5 c 128,-1,8
 363 -24 363 -24 381.5 31.5 c 128,-1,9
 400 87 400 87 414 172 c 0,10,11
 441 335 441 335 499 725 c 1,12,-1
 256 725 l 1,13,-1
 275 830 l 1,14,-1
 514 830 l 1,15,16
 537 984 537 984 551 1066 c 0,17,18
 584 1269 584 1269 690.5 1376 c 128,-1,19
 797 1483 797 1483 966 1483 c 0,20,21
 1037 1483 1037 1483 1089 1465 c 1,22,-1
 1067 1328 l 1,23,24
 1022 1348 1022 1348 948 1348 c 0,25,26
 857 1348 857 1348 813.5 1276 c 128,-1,27
 770 1204 770 1204 739 1025 c 0,28,29
 739 1022 739 1022 735 994.5 c 128,-1,30
 731 967 731 967 724 921.5 c 128,-1,31
 717 876 717 876 710 830 c 1,32,-1
 1003 830 l 1,33,-1
 984 725 l 1,34,-1
 693 725 l 1,35,36
 628 290 628 290 603 138 c 1,37,38
 564 -59 564 -59 474.5 -152.5 c 128,-1,39
 385 -246 385 -246 228 -246 c 0,0,1
EndSplineSet
EndChar

StartChar: uni0237
Encoding: 567 567 351
Width: 522
Flags: W
LayerCount: 2
Fore
SplineSet
103 -373 m 0,0,1
 17 -373 17 -373 -55 -366 c 1,2,-1
 -55 -224 l 1,3,4
 -19 -227 -19 -227 24 -227 c 0,5,6
 68 -227 68 -227 94 -221 c 128,-1,7
 120 -215 120 -215 144.5 -194.5 c 128,-1,8
 169 -174 169 -174 179.5 -128.5 c 128,-1,9
 190 -83 190 -83 190 -9 c 2,10,-1
 190 1032 l 1,11,-1
 372 1032 l 1,12,-1
 372 10 l 2,13,14
 372 -62 372 -62 366 -115 c 128,-1,15
 360 -168 360 -168 343 -219 c 128,-1,16
 326 -270 326 -270 297 -302 c 128,-1,17
 268 -334 268 -334 219 -353.5 c 128,-1,18
 170 -373 170 -373 103 -373 c 0,0,1
EndSplineSet
EndChar

StartChar: circumflex
Encoding: 710 710 352
Width: 858
Flags: W
LayerCount: 2
Fore
SplineSet
76 1164 m 1,0,-1
 363 1506 l 1,1,-1
 494 1506 l 1,2,-1
 782 1164 l 1,3,-1
 630 1164 l 1,4,-1
 427 1398 l 1,5,-1
 228 1164 l 1,6,-1
 76 1164 l 1,0,-1
EndSplineSet
EndChar

StartChar: caron
Encoding: 711 711 353
Width: 872
Flags: W
LayerCount: 2
Fore
SplineSet
368 1094 m 1,0,-1
 79 1435 l 1,1,-1
 235 1435 l 1,2,-1
 428 1204 l 1,3,-1
 645 1435 l 1,4,-1
 793 1435 l 1,5,-1
 486 1094 l 1,6,-1
 368 1094 l 1,0,-1
EndSplineSet
EndChar

StartChar: uni02C9
Encoding: 713 713 354
Width: 989
Flags: W
LayerCount: 2
Fore
SplineSet
216 1159 m 1,0,-1
 216 1293 l 1,1,-1
 771 1293 l 1,2,-1
 771 1159 l 1,3,-1
 216 1159 l 1,0,-1
EndSplineSet
EndChar

StartChar: breve
Encoding: 728 728 355
Width: 857
Flags: W
LayerCount: 2
Fore
SplineSet
746 1464 m 1,0,1
 744 1311 744 1311 659 1229 c 128,-1,2
 574 1147 574 1147 428 1147 c 0,3,4
 273 1147 273 1147 193 1227.5 c 128,-1,5
 113 1308 113 1308 111 1464 c 1,6,-1
 251 1464 l 1,7,8
 258 1381 258 1381 297.5 1335.5 c 128,-1,9
 337 1290 337 1290 428 1290 c 0,10,11
 590 1290 590 1290 603 1464 c 1,12,-1
 746 1464 l 1,0,1
EndSplineSet
EndChar

StartChar: dotaccent
Encoding: 729 729 356
Width: 487
Flags: W
LayerCount: 2
Fore
SplineSet
233 1104 m 128,-1,1
 171 1104 171 1104 127 1148 c 128,-1,2
 83 1192 83 1192 83 1254 c 128,-1,3
 83 1316 83 1316 127 1360.5 c 128,-1,4
 171 1405 171 1405 233 1405 c 128,-1,5
 295 1405 295 1405 339.5 1360.5 c 128,-1,6
 384 1316 384 1316 384 1254 c 128,-1,7
 384 1192 384 1192 339.5 1148 c 128,-1,0
 295 1104 295 1104 233 1104 c 128,-1,1
EndSplineSet
EndChar

StartChar: ring
Encoding: 730 730 357
Width: 659
Flags: W
LayerCount: 2
Fore
SplineSet
330 1049 m 128,-1,1
 392 1049 392 1049 433 1091.5 c 128,-1,2
 474 1134 474 1134 474 1196 c 0,3,4
 474 1257 474 1257 432.5 1300.5 c 128,-1,5
 391 1344 391 1344 330 1344 c 0,6,7
 270 1344 270 1344 228 1301 c 128,-1,8
 186 1258 186 1258 186 1196 c 0,9,10
 186 1133 186 1133 227 1091 c 128,-1,0
 268 1049 268 1049 330 1049 c 128,-1,1
330 977 m 0,11,12
 234 977 234 977 166.5 1041 c 128,-1,13
 99 1105 99 1105 99 1197 c 0,14,15
 99 1288 99 1288 167 1352 c 128,-1,16
 235 1416 235 1416 330 1416 c 0,17,18
 427 1416 427 1416 494 1352.5 c 128,-1,19
 561 1289 561 1289 561 1197 c 0,20,21
 561 1104 561 1104 494 1040.5 c 128,-1,22
 427 977 427 977 330 977 c 0,11,12
EndSplineSet
EndChar

StartChar: ogonek
Encoding: 731 731 358
Width: 533
Flags: W
LayerCount: 2
Fore
SplineSet
285 -407 m 0,0,1
 185 -407 185 -407 131 -353.5 c 128,-1,2
 77 -300 77 -300 75 -209 c 1,3,4
 75 -97 75 -97 163 5 c 1,5,-1
 270 5 l 1,6,7
 210 -89 210 -89 208 -174 c 1,8,9
 208 -227 208 -227 235 -258.5 c 128,-1,10
 262 -290 262 -290 319 -290 c 0,11,12
 363 -290 363 -290 452 -264 c 1,13,-1
 464 -374 l 1,14,15
 365 -407 365 -407 285 -407 c 0,0,1
EndSplineSet
EndChar

StartChar: tilde
Encoding: 732 732 359
Width: 856
Flags: W
LayerCount: 2
Fore
SplineSet
588 1096 m 0,0,1
 548 1096 548 1096 500 1112.5 c 128,-1,2
 452 1129 452 1129 416 1148.5 c 128,-1,3
 380 1168 380 1168 341.5 1184.5 c 128,-1,4
 303 1201 303 1201 278 1201 c 0,5,6
 222 1201 222 1201 217 1097 c 1,7,-1
 78 1097 l 1,8,9
 78 1213 78 1213 128.5 1273.5 c 128,-1,10
 179 1334 179 1334 264 1334 c 0,11,12
 323 1334 323 1334 387.5 1307 c 128,-1,13
 452 1280 452 1280 501 1253.5 c 128,-1,14
 550 1227 550 1227 573 1227 c 0,15,16
 607 1227 607 1227 622 1253 c 128,-1,17
 637 1279 637 1279 640 1335 c 1,18,-1
 778 1335 l 1,19,20
 778 1096 778 1096 588 1096 c 0,0,1
EndSplineSet
EndChar

StartChar: hungarumlaut
Encoding: 733 733 360
Width: 667
Flags: W
LayerCount: 2
Fore
SplineSet
2 1123 m 1,0,-1
 190 1466 l 1,1,-1
 374 1466 l 1,2,-1
 123 1123 l 1,3,-1
 2 1123 l 1,0,-1
253 1123 m 1,4,-1
 453 1466 l 1,5,-1
 665 1466 l 1,6,-1
 375 1123 l 1,7,-1
 253 1123 l 1,4,-1
EndSplineSet
EndChar

StartChar: uni0307
Encoding: 775 775 361
Width: 548
Flags: W
LayerCount: 2
Fore
SplineSet
275 294 m 128,-1,1
 216 294 216 294 183 330 c 128,-1,2
 150 366 150 366 150 415 c 0,3,4
 150 465 150 465 182 500.5 c 128,-1,5
 214 536 214 536 275 536 c 0,6,7
 334 536 334 536 366 500 c 128,-1,8
 398 464 398 464 398 415 c 128,-1,9
 398 366 398 366 366 330 c 128,-1,0
 334 294 334 294 275 294 c 128,-1,1
EndSplineSet
EndChar

StartChar: uni030F
Encoding: 783 783 362
Width: 667
Flags: W
LayerCount: 2
Fore
SplineSet
665 1123 m 1,0,-1
 544 1123 l 1,1,-1
 293 1466 l 1,2,-1
 477 1466 l 1,3,-1
 665 1123 l 1,0,-1
414 1123 m 1,4,-1
 292 1123 l 1,5,-1
 2 1466 l 1,6,-1
 214 1466 l 1,7,-1
 414 1123 l 1,4,-1
EndSplineSet
EndChar

StartChar: uni0311
Encoding: 785 785 363
Width: 857
Flags: W
LayerCount: 2
Fore
SplineSet
111 1147 m 1,0,1
 113 1300 113 1300 198 1382 c 128,-1,2
 283 1464 283 1464 429 1464 c 0,3,4
 584 1464 584 1464 664 1383.5 c 128,-1,5
 744 1303 744 1303 746 1147 c 1,6,-1
 606 1147 l 1,7,8
 599 1230 599 1230 559.5 1275.5 c 128,-1,9
 520 1321 520 1321 429 1321 c 0,10,11
 267 1321 267 1321 254 1147 c 1,12,-1
 111 1147 l 1,0,1
EndSplineSet
EndChar

StartChar: uni0326
Encoding: 806 806 364
Width: 470
Flags: W
LayerCount: 2
Fore
SplineSet
72 -146 m 1,0,-1
 171 340 l 1,1,-1
 364 340 l 1,2,-1
 199 -146 l 1,3,-1
 72 -146 l 1,0,-1
EndSplineSet
EndChar

StartChar: endash
Encoding: 8211 8211 373
Width: 1471
Flags: W
LayerCount: 2
Fore
SplineSet
98 572 m 1,0,-1
 98 713 l 1,1,-1
 1373 713 l 1,2,-1
 1373 572 l 1,3,-1
 98 572 l 1,0,-1
EndSplineSet
EndChar

StartChar: emdash
Encoding: 8212 8212 374
Width: 2117
Flags: W
LayerCount: 2
Fore
SplineSet
98 572 m 1,0,-1
 98 713 l 1,1,-1
 2019 713 l 1,2,-1
 2019 572 l 1,3,-1
 98 572 l 1,0,-1
EndSplineSet
EndChar

StartChar: quoteleft
Encoding: 8216 8216 375
Width: 371
Flags: W
LayerCount: 2
Fore
SplineSet
208 1012 m 1,0,-1
 39 1481 l 1,1,-1
 231 1481 l 1,2,-1
 328 1012 l 1,3,-1
 208 1012 l 1,0,-1
EndSplineSet
EndChar

StartChar: quoteright
Encoding: 8217 8217 376
Width: 373
Flags: W
LayerCount: 2
Fore
SplineSet
43 995 m 1,0,-1
 142 1481 l 1,1,-1
 335 1481 l 1,2,-1
 170 995 l 1,3,-1
 43 995 l 1,0,-1
EndSplineSet
EndChar

StartChar: quotesinglbase
Encoding: 8218 8218 377
Width: 420
Flags: W
LayerCount: 2
Fore
SplineSet
53 -242 m 1,0,-1
 152 244 l 1,1,-1
 345 244 l 1,2,-1
 180 -242 l 1,3,-1
 53 -242 l 1,0,-1
EndSplineSet
EndChar

StartChar: quotedblleft
Encoding: 8220 8220 378
Width: 693
Flags: W
LayerCount: 2
Fore
SplineSet
216 1012 m 1,0,-1
 42 1481 l 1,1,-1
 234 1481 l 1,2,-1
 331 1012 l 1,3,-1
 216 1012 l 1,0,-1
526 1012 m 1,4,-1
 353 1481 l 1,5,-1
 545 1481 l 1,6,-1
 641 1012 l 1,7,-1
 526 1012 l 1,4,-1
EndSplineSet
EndChar

StartChar: quotedblright
Encoding: 8221 8221 379
Width: 694
Flags: W
LayerCount: 2
Fore
SplineSet
52 995 m 1,0,-1
 142 1481 l 1,1,-1
 335 1481 l 1,2,-1
 170 995 l 1,3,-1
 52 995 l 1,0,-1
371 995 m 1,4,-1
 462 1481 l 1,5,-1
 656 1481 l 1,6,-1
 489 995 l 1,7,-1
 371 995 l 1,4,-1
EndSplineSet
EndChar

StartChar: quotedblbase
Encoding: 8222 8222 380
Width: 833
Flags: W
LayerCount: 2
Fore
SplineSet
108 -242 m 1,0,-1
 198 244 l 1,1,-1
 391 244 l 1,2,-1
 226 -242 l 1,3,-1
 108 -242 l 1,0,-1
427 -242 m 1,4,-1
 518 244 l 1,5,-1
 712 244 l 1,6,-1
 545 -242 l 1,7,-1
 427 -242 l 1,4,-1
EndSplineSet
EndChar

StartChar: dagger
Encoding: 8224 8224 381
Width: 1080
Flags: W
LayerCount: 2
Fore
SplineSet
454 0 m 1,0,-1
 454 920 l 1,1,-1
 90 920 l 1,2,-1
 90 1058 l 1,3,-1
 454 1058 l 1,4,-1
 454 1481 l 1,5,-1
 636 1481 l 1,6,-1
 636 1058 l 1,7,-1
 991 1058 l 1,8,-1
 991 920 l 1,9,-1
 636 920 l 1,10,-1
 636 0 l 1,11,-1
 454 0 l 1,0,-1
EndSplineSet
EndChar

StartChar: daggerdbl
Encoding: 8225 8225 382
Width: 1080
Flags: W
LayerCount: 2
Fore
SplineSet
636 388 m 1,0,-1
 636 0 l 1,1,-1
 454 0 l 1,2,-1
 454 388 l 1,3,-1
 90 388 l 1,4,-1
 90 526 l 1,5,-1
 454 526 l 1,6,-1
 454 920 l 1,7,-1
 90 920 l 1,8,-1
 90 1058 l 1,9,-1
 454 1058 l 1,10,-1
 454 1481 l 1,11,-1
 636 1481 l 1,12,-1
 636 1058 l 1,13,-1
 991 1058 l 1,14,-1
 991 920 l 1,15,-1
 636 920 l 1,16,-1
 636 526 l 1,17,-1
 991 526 l 1,18,-1
 991 388 l 1,19,-1
 636 388 l 1,0,-1
EndSplineSet
EndChar

StartChar: bullet
Encoding: 8226 8226 383
Width: 904
Flags: W
LayerCount: 2
Fore
SplineSet
90 655 m 0,0,1
 90 741 90 741 121 811.5 c 128,-1,2
 152 882 152 882 204 925.5 c 128,-1,3
 256 969 256 969 320 992 c 128,-1,4
 384 1015 384 1015 454 1015 c 0,5,6
 523 1015 523 1015 586.5 992 c 128,-1,7
 650 969 650 969 701.5 925.5 c 128,-1,8
 753 882 753 882 783.5 812 c 128,-1,9
 814 742 814 742 814 655 c 128,-1,10
 814 568 814 568 783 498 c 128,-1,11
 752 428 752 428 700 384.5 c 128,-1,12
 648 341 648 341 584 318 c 128,-1,13
 520 295 520 295 451 295 c 128,-1,14
 382 295 382 295 318 318 c 128,-1,15
 254 341 254 341 202.5 384.5 c 128,-1,16
 151 428 151 428 120.5 498 c 128,-1,17
 90 568 90 568 90 655 c 0,0,1
EndSplineSet
EndChar

StartChar: perthousand
Encoding: 8240 8240 385
Width: 2463
Flags: W
LayerCount: 2
Fore
SplineSet
380 824 m 0,0,1
 471 824 471 824 516 893 c 128,-1,2
 561 962 561 962 561 1115 c 0,3,4
 561 1261 561 1261 517 1325.5 c 128,-1,5
 473 1390 473 1390 378 1390 c 0,6,7
 285 1390 285 1390 239.5 1322 c 128,-1,8
 194 1254 194 1254 194 1100 c 0,9,10
 194 955 194 955 239 889.5 c 128,-1,11
 284 824 284 824 380 824 c 0,0,1
378 725 m 0,12,13
 66 725 66 725 66 1100 c 0,14,15
 66 1166 66 1166 75.5 1221 c 128,-1,16
 85 1276 85 1276 108 1325 c 128,-1,17
 131 1374 131 1374 166.5 1408 c 128,-1,18
 202 1442 202 1442 256 1461.5 c 128,-1,19
 310 1481 310 1481 380 1481 c 0,20,21
 687 1481 687 1481 687 1110 c 0,22,23
 687 1027 687 1027 670.5 959.5 c 128,-1,24
 654 892 654 892 619 838 c 128,-1,25
 584 784 584 784 523 754.5 c 128,-1,26
 462 725 462 725 378 725 c 0,12,13
404 0 m 1,27,-1
 1173 1481 l 1,28,-1
 1313 1481 l 1,29,-1
 551 0 l 1,30,-1
 404 0 l 1,27,-1
1343 98 m 0,31,32
 1435 98 1435 98 1481 167 c 128,-1,33
 1527 236 1527 236 1527 388 c 0,34,35
 1527 534 1527 534 1482.5 598 c 128,-1,36
 1438 662 1438 662 1343 662 c 0,37,38
 1250 662 1250 662 1205 595 c 128,-1,39
 1160 528 1160 528 1160 374 c 0,40,41
 1160 230 1160 230 1204.5 164 c 128,-1,42
 1249 98 1249 98 1343 98 c 0,31,32
1343 -1 m 0,43,44
 1031 -1 1031 -1 1031 374 c 0,45,46
 1031 457 1031 457 1047.5 523.5 c 128,-1,47
 1064 590 1064 590 1099 643.5 c 128,-1,48
 1134 697 1134 697 1196 726.5 c 128,-1,49
 1258 756 1258 756 1343 756 c 0,50,51
 1653 756 1653 756 1653 385 c 0,52,53
 1653 302 1653 302 1636.5 234.5 c 128,-1,54
 1620 167 1620 167 1585 113 c 128,-1,55
 1550 59 1550 59 1488.5 29 c 128,-1,56
 1427 -1 1427 -1 1343 -1 c 0,43,44
2087 98 m 0,57,58
 2179 98 2179 98 2225 167 c 128,-1,59
 2271 236 2271 236 2271 388 c 0,60,61
 2271 534 2271 534 2226.5 598 c 128,-1,62
 2182 662 2182 662 2087 662 c 0,63,64
 1994 662 1994 662 1949 595 c 128,-1,65
 1904 528 1904 528 1904 374 c 0,66,67
 1904 230 1904 230 1948.5 164 c 128,-1,68
 1993 98 1993 98 2087 98 c 0,57,58
2087 -1 m 0,69,70
 1775 -1 1775 -1 1775 374 c 0,71,72
 1775 457 1775 457 1791.5 523.5 c 128,-1,73
 1808 590 1808 590 1843 643.5 c 128,-1,74
 1878 697 1878 697 1940 726.5 c 128,-1,75
 2002 756 2002 756 2087 756 c 0,76,77
 2397 756 2397 756 2397 385 c 0,78,79
 2397 302 2397 302 2380.5 234.5 c 128,-1,80
 2364 167 2364 167 2329 113 c 128,-1,81
 2294 59 2294 59 2232.5 29 c 128,-1,82
 2171 -1 2171 -1 2087 -1 c 0,69,70
EndSplineSet
EndChar

StartChar: guilsinglleft
Encoding: 8249 8249 386
Width: 509
Flags: W
LayerCount: 2
Fore
SplineSet
505 159 m 1,0,1
 99 457 99 457 -3 533 c 1,2,-1
 -3 634 l 1,3,4
 43 672 43 672 170 768.5 c 128,-1,5
 297 865 297 865 401 943 c 2,6,-1
 505 1021 l 1,7,-1
 505 814 l 1,8,-1
 158 583 l 1,9,10
 160 581 160 581 214 545.5 c 128,-1,11
 268 510 268 510 331 468.5 c 128,-1,12
 394 427 394 427 449 391 c 128,-1,13
 504 355 504 355 505 354 c 1,14,-1
 505 159 l 1,0,1
EndSplineSet
EndChar

StartChar: guilsinglright
Encoding: 8250 8250 387
Width: 595
Flags: W
LayerCount: 2
Fore
SplineSet
49 159 m 1,0,-1
 49 367 l 1,1,-1
 395 599 l 1,2,3
 392 602 392 602 221.5 713.5 c 128,-1,4
 51 825 51 825 49 827 c 1,5,-1
 49 1021 l 1,6,7
 455 724 455 724 557 648 c 1,8,-1
 557 545 l 1,9,10
 511 507 511 507 384 410.5 c 128,-1,11
 257 314 257 314 153 236 c 2,12,-1
 49 159 l 1,0,-1
EndSplineSet
EndChar

StartChar: fraction
Encoding: 8260 8260 388
Width: 862
Flags: W
LayerCount: 2
Fore
SplineSet
-10 -1 m 1,0,-1
 701 1427 l 1,1,-1
 872 1427 l 1,2,-1
 165 -1 l 1,3,-1
 -10 -1 l 1,0,-1
EndSplineSet
EndChar

StartChar: Euro
Encoding: 8364 8364 389
Width: 1239
Flags: W
LayerCount: 2
Fore
SplineSet
836 -23 m 0,0,1
 551 -23 551 -23 381.5 125.5 c 128,-1,2
 212 274 212 274 152 577 c 1,3,-1
 -10 577 l 1,4,-1
 19 684 l 1,5,-1
 146 684 l 1,6,7
 144 707 144 707 144 751 c 1,8,-1
 146 819 l 1,9,-1
 -8 819 l 1,10,-1
 10 923 l 1,11,-1
 153 923 l 1,12,13
 182 1074 182 1074 243.5 1186.5 c 128,-1,14
 305 1299 305 1299 393.5 1367.5 c 128,-1,15
 482 1436 482 1436 589.5 1469.5 c 128,-1,16
 697 1503 697 1503 826 1503 c 0,17,18
 1081 1503 1081 1503 1236 1365 c 1,19,-1
 1236 1133 l 1,20,-1
 1173 1133 l 1,21,22
 1083 1374 1083 1374 801 1374 c 0,23,24
 745 1374 745 1374 692.5 1363.5 c 128,-1,25
 640 1353 640 1353 579.5 1322.5 c 128,-1,26
 519 1292 519 1292 471 1243.5 c 128,-1,27
 423 1195 423 1195 384 1112.5 c 128,-1,28
 345 1030 345 1030 328 923 c 1,29,-1
 1064 923 l 1,30,-1
 1036 819 l 1,31,-1
 316 819 l 1,32,33
 312 787 312 787 312 721 c 0,34,35
 312 702 312 702 314 684 c 1,36,-1
 1020 684 l 1,37,-1
 993 577 l 1,38,-1
 326 577 l 1,39,40
 340 482 340 482 375 401.5 c 128,-1,41
 410 321 410 321 467.5 256.5 c 128,-1,42
 525 192 525 192 612.5 155.5 c 128,-1,43
 700 119 700 119 808 119 c 0,44,45
 1121 119 1121 119 1156 347 c 1,46,-1
 1236 347 l 1,47,-1
 1236 114 l 1,48,49
 1178 61 1178 61 1099 28.5 c 128,-1,50
 1020 -4 1020 -4 959 -13.5 c 128,-1,51
 898 -23 898 -23 836 -23 c 0,0,1
EndSplineSet
EndChar

StartChar: trademark
Encoding: 8482 8482 390
Width: 1512
Flags: W
LayerCount: 2
Fore
SplineSet
687 770 m 1,0,-1
 687 1481 l 1,1,-1
 873 1481 l 1,2,-1
 1056 1039 l 1,3,-1
 1245 1481 l 1,4,-1
 1420 1481 l 1,5,-1
 1420 770 l 1,6,-1
 1302 770 l 1,7,-1
 1302 1366 l 1,8,-1
 1295 1366 l 1,9,-1
 1100 907 l 1,10,-1
 1010 907 l 1,11,-1
 807 1370 l 1,12,-1
 802 1370 l 1,13,-1
 802 770 l 1,14,-1
 687 770 l 1,0,-1
274 770 m 1,15,-1
 274 1390 l 1,16,-1
 81 1390 l 1,17,-1
 81 1481 l 1,18,-1
 577 1481 l 1,19,-1
 577 1390 l 1,20,-1
 384 1390 l 1,21,-1
 384 770 l 1,22,-1
 274 770 l 1,15,-1
EndSplineSet
EndChar

StartChar: product
Encoding: 8719 8719 391
Width: 1277
Flags: W
LayerCount: 2
Fore
SplineSet
98 0 m 1,0,-1
 98 1481 l 1,1,-1
 1178 1481 l 1,2,-1
 1178 0 l 1,3,-1
 996 0 l 1,4,-1
 996 1342 l 1,5,-1
 280 1342 l 1,6,-1
 280 0 l 1,7,-1
 98 0 l 1,0,-1
EndSplineSet
EndChar

StartChar: minus
Encoding: 8722 8722 392
Width: 1171
Flags: W
LayerCount: 2
Fore
SplineSet
98 411 m 1,0,-1
 98 564 l 1,1,-1
 1073 564 l 1,2,-1
 1073 411 l 1,3,-1
 98 411 l 1,0,-1
EndSplineSet
EndChar

StartChar: uni2215
Encoding: 8725 8725 393
Width: 862
Flags: W
LayerCount: 2
Fore
SplineSet
-10 -1 m 1,0,-1
 701 1427 l 1,1,-1
 872 1427 l 1,2,-1
 165 -1 l 1,3,-1
 -10 -1 l 1,0,-1
EndSplineSet
EndChar

StartChar: uni2219
Encoding: 8729 8729 394
Width: 390
Flags: W
LayerCount: 2
Fore
SplineSet
195 433 m 128,-1,1
 141 433 141 433 103 469.5 c 128,-1,2
 65 506 65 506 65 560 c 128,-1,3
 65 614 65 614 103 651 c 128,-1,4
 141 688 141 688 195 688 c 128,-1,5
 249 688 249 688 285.5 651 c 128,-1,6
 322 614 322 614 322 560 c 128,-1,7
 322 506 322 506 285.5 469.5 c 128,-1,0
 249 433 249 433 195 433 c 128,-1,1
EndSplineSet
EndChar

StartChar: infinity
Encoding: 8734 8734 395
Width: 1531
Flags: W
LayerCount: 2
Fore
SplineSet
1118 203 m 0,0,1
 937 203 937 203 766 463 c 1,2,3
 590 209 590 209 411 209 c 0,4,5
 269 209 269 209 179 306 c 128,-1,6
 89 403 89 403 89 558 c 0,7,8
 89 704 89 704 181 803.5 c 128,-1,9
 273 903 273 903 414 903 c 0,10,11
 601 903 601 903 768 644 c 1,12,13
 945 898 945 898 1123 898 c 1,14,15
 1267 897 1267 897 1354.5 802 c 128,-1,16
 1442 707 1442 707 1442 551 c 0,17,18
 1442 404 1442 404 1348.5 303.5 c 128,-1,19
 1255 203 1255 203 1118 203 c 0,0,1
416 340 m 0,20,21
 483 340 483 340 567 404 c 128,-1,22
 651 468 651 468 707 553 c 1,23,24
 650 644 650 644 566.5 709.5 c 128,-1,25
 483 775 483 775 412 775 c 0,26,27
 334 775 334 775 279 712 c 128,-1,28
 224 649 224 649 224 556 c 0,29,30
 224 462 224 462 280 401 c 128,-1,31
 336 340 336 340 416 340 c 0,20,21
1130 333 m 0,32,33
 1208 333 1208 333 1261.5 392.5 c 128,-1,34
 1315 452 1315 452 1315 549 c 0,35,36
 1315 650 1315 650 1261 709.5 c 128,-1,37
 1207 769 1207 769 1127 769 c 0,38,39
 1059 769 1059 769 967.5 700.5 c 128,-1,40
 876 632 876 632 824 551 c 1,41,42
 886 459 886 459 974.5 396 c 128,-1,43
 1063 333 1063 333 1130 333 c 0,32,33
EndSplineSet
EndChar

StartChar: integral
Encoding: 8747 8747 396
Width: 709
Flags: W
LayerCount: 2
Fore
SplineSet
133 -409 m 0,0,1
 60 -409 60 -409 -7 -386 c 1,2,-1
 -7 -240 l 1,3,4
 45 -262 45 -262 107 -262 c 0,5,6
 154 -262 154 -262 182 -242.5 c 128,-1,7
 210 -223 210 -223 227.5 -162 c 128,-1,8
 245 -101 245 -101 245 10 c 2,9,-1
 245 1103 l 2,10,11
 245 1305 245 1305 330.5 1411.5 c 128,-1,12
 416 1518 416 1518 584 1518 c 0,13,14
 663 1518 663 1518 717 1500 c 1,15,-1
 716 1362 l 1,16,17
 695 1371 695 1371 656 1377.5 c 128,-1,18
 617 1384 617 1384 591 1384 c 0,19,20
 502 1384 502 1384 471 1311.5 c 128,-1,21
 440 1239 440 1239 440 1062 c 2,22,-1
 440 -27 l 1,23,24
 433 -223 433 -223 360.5 -316 c 128,-1,25
 288 -409 288 -409 133 -409 c 0,0,1
EndSplineSet
EndChar

StartChar: approxequal
Encoding: 8776 8776 397
Width: 1045
Flags: W
LayerCount: 2
Fore
SplineSet
196 220 m 1,0,-1
 64 241 l 1,1,2
 81 372 81 372 145 433 c 128,-1,3
 209 494 209 494 328 494 c 0,4,5
 423 494 423 494 549 424 c 1,6,7
 673 350 673 350 723 363 c 1,8,9
 839 380 839 380 852 498 c 1,10,-1
 981 475 l 1,11,12
 963 347 963 347 902 286.5 c 128,-1,13
 841 226 841 226 723 226 c 0,14,15
 633 226 633 226 491 305 c 0,16,17
 380 367 380 367 337 367 c 0,18,19
 224 367 224 367 196 220 c 1,0,-1
196 607 m 1,20,-1
 64 628 l 1,21,22
 81 758 81 758 145 818 c 128,-1,23
 209 878 209 878 329 878 c 0,24,25
 427 878 427 878 549 807 c 0,26,27
 579 789 579 789 619.5 774 c 128,-1,28
 660 759 660 759 686 752 c 128,-1,29
 712 745 712 745 715 746 c 0,30,31
 774 747 774 747 809 782.5 c 128,-1,32
 844 818 844 818 852 882 c 1,33,-1
 981 860 l 1,34,35
 964 732 964 732 902.5 671 c 128,-1,36
 841 610 841 610 724 610 c 0,37,38
 629 610 629 610 491 690 c 1,39,40
 384 750 384 750 337 750 c 0,41,42
 224 750 224 750 196 607 c 1,20,-1
EndSplineSet
EndChar

StartChar: notequal
Encoding: 8800 8800 398
Width: 1094
Flags: W
LayerCount: 2
Fore
SplineSet
208 39 m 1,0,-1
 342 297 l 1,1,-1
 98 297 l 1,2,-1
 90 406 l 1,3,-1
 401 406 l 1,4,-1
 543 688 l 1,5,-1
 98 688 l 1,6,-1
 98 799 l 1,7,-1
 594 799 l 1,8,-1
 733 1054 l 1,9,-1
 860 1053 l 1,10,-1
 725 799 l 1,11,-1
 1000 799 l 1,12,-1
 1000 688 l 1,13,-1
 677 688 l 1,14,-1
 533 406 l 1,15,-1
 992 406 l 1,16,-1
 1000 297 l 1,17,-1
 477 297 l 1,18,-1
 343 38 l 1,19,-1
 208 39 l 1,0,-1
EndSplineSet
EndChar

StartChar: lessequal
Encoding: 8804 8804 399
Width: 1093
Flags: W
LayerCount: 2
Fore
SplineSet
94 1 m 1,0,-1
 94 168 l 1,1,-1
 998 168 l 1,2,-1
 998 1 l 1,3,-1
 94 1 l 1,0,-1
998 295 m 1,4,-1
 94 613 l 1,5,-1
 94 750 l 1,6,-1
 998 1066 l 1,7,-1
 998 888 l 1,8,-1
 282 678 l 1,9,-1
 998 464 l 1,10,-1
 998 295 l 1,4,-1
EndSplineSet
EndChar

StartChar: greaterequal
Encoding: 8805 8805 400
Width: 1093
Flags: W
LayerCount: 2
Fore
SplineSet
1000 1 m 1,0,-1
 96 1 l 1,1,-1
 96 168 l 1,2,-1
 1000 168 l 1,3,-1
 1000 1 l 1,0,-1
96 295 m 1,4,-1
 96 464 l 1,5,-1
 812 678 l 1,6,-1
 96 888 l 1,7,-1
 96 1066 l 1,8,-1
 1000 750 l 1,9,-1
 1000 613 l 1,10,-1
 96 295 l 1,4,-1
EndSplineSet
EndChar

StartChar: lozenge
Encoding: 9674 9674 401
Width: 997
Flags: W
LayerCount: 2
Fore
SplineSet
448 -30 m 1,0,-1
 66 670 l 1,1,-1
 452 1373 l 1,2,-1
 554 1373 l 1,3,-1
 931 672 l 1,4,-1
 543 -30 l 1,5,-1
 448 -30 l 1,0,-1
496 99 m 2,6,7
 496 98 496 98 573 240 c 128,-1,8
 650 382 650 382 726.5 525 c 128,-1,9
 803 668 803 668 803 669 c 0,10,11
 502 1245 502 1245 501 1246 c 1,12,13
 501 1245 501 1245 348 959.5 c 128,-1,14
 195 674 195 674 194 674 c 2,15,-1
 496 99 l 2,6,7
EndSplineSet
EndChar

StartChar: uniFB00
Encoding: 64256 64256 402
Width: 1389
GlyphClass: 2
Flags: W
LayerCount: 2
Fore
SplineSet
888 0 m 1,0,-1
 888 907 l 1,1,2
 388 907 l 1,3,-1
 388 0 l 1,4,-1
 205 0 l 1,5,-1
 205 907 l 1,6,-1
 25 907 l 1,7,-1
 25 1032 l 1,8,-1
 205 1032 l 1,9,-1
 205 1069 l 2,10,11
 205 1167 205 1167 220 1232.5 c 128,-1,12
 235 1298 235 1298 272.5 1344.5 c 128,-1,13
 310 1391 310 1391 375.5 1412 c 128,-1,14
 441 1433 441 1433 540 1433 c 0,15,16
 574 1433 574 1433 592 1432 c 128,-1,17
 610 1431 610 1431 633.5 1427.5 c 128,-1,18
 657 1424 657 1424 672 1422 c 1,19,-1
 672 1281 l 1,20,21
 610 1292 610 1292 570 1292 c 0,22,23
 512 1292 512 1292 479.5 1283.5 c 128,-1,24
 447 1275 447 1275 424.5 1246 c 128,-1,25
 402 1217 402 1217 394.5 1168 c 128,-1,26
 387 1119 387 1119 387 1032 c 1,27,-1
 888 1032 l 1,28,-1
 888 1069 l 2,29,30
 888 1167 888 1167 903 1232.5 c 128,-1,31
 918 1298 918 1298 955.5 1344.5 c 128,-1,32
 993 1391 993 1391 1058.5 1412 c 128,-1,33
 1124 1433 1124 1433 1223 1433 c 0,34,35
 1257 1433 1257 1433 1275 1432 c 128,-1,36
 1293 1431 1293 1431 1316.5 1427.5 c 128,-1,37
 1340 1424 1340 1424 1355 1422 c 1,38,-1
 1355 1281 l 1,39,40
 1293 1292 1293 1292 1253 1292 c 0,41,42
 1195 1292 1195 1292 1162.5 1283.5 c 128,-1,43
 1130 1275 1130 1275 1107.5 1246 c 128,-1,44
 1085 1217 1085 1217 1077.5 1168 c 128,-1,45
 1070 1119 1070 1119 1070 1032 c 1,46,-1
 1346 1032 l 1,47,-1
 1346 907 l 1,48,-1
 1071 907 l 1,49,-1
 1071 0 l 1,50,-1
 888 0 l 1,0,-1
EndSplineSet
EndChar

StartChar: uniFB01
Encoding: 64257 64257 403
Width: 1205
GlyphClass: 2
Flags: W
LayerCount: 2
Fore
SplineSet
957 1186 m 128,-1,1
 898 1186 898 1186 865 1222 c 128,-1,2
 832 1258 832 1258 832 1307 c 0,3,4
 832 1357 832 1357 864 1392.5 c 128,-1,5
 896 1428 896 1428 957 1428 c 0,6,7
 1016 1428 1016 1428 1048 1392 c 128,-1,8
 1080 1356 1080 1356 1080 1307 c 128,-1,9
 1080 1258 1080 1258 1048 1222 c 128,-1,0
 1016 1186 1016 1186 957 1186 c 128,-1,1
205 0 m 1,10,-1
 205 907 l 1,11,-1
 25 907 l 1,12,-1
 25 1032 l 1,13,-1
 205 1032 l 1,14,-1
 205 1069 l 2,15,16
 205 1167 205 1167 220 1232.5 c 128,-1,17
 235 1298 235 1298 272.5 1344.5 c 128,-1,18
 310 1391 310 1391 375.5 1412 c 128,-1,19
 441 1433 441 1433 540 1433 c 0,20,21
 574 1433 574 1433 592 1432 c 128,-1,22
 610 1431 610 1431 633.5 1427.5 c 128,-1,23
 657 1424 657 1424 672 1422 c 1,24,-1
 672 1281 l 1,25,26
 610 1292 610 1292 570 1292 c 0,27,28
 512 1292 512 1292 479.5 1283.5 c 128,-1,29
 447 1275 447 1275 424.5 1246 c 128,-1,30
 402 1217 402 1217 394.5 1168 c 128,-1,31
 387 1119 387 1119 387 1032 c 1,32,-1
 1042 1032 l 1,33,-1
 1042 0 l 1,34,-1
 859 0 l 1,35,-1
 859 907 l 1,36,-1
 388 907 l 1,37,-1
 388 0 l 1,38,-1
 205 0 l 1,10,-1
EndSplineSet
EndChar

StartChar: uniFB02
Encoding: 64258 64258 404
Width: 1273
GlyphClass: 2
Flags: W
LayerCount: 2
Fore
SplineSet
205 0 m 1,0,-1
 205 907 l 1,1,-1
 25 907 l 1,2,-1
 25 1032 l 1,3,-1
 205 1032 l 1,4,-1
 205 1069 l 2,5,6
 205 1167 205 1167 220 1232.5 c 128,-1,7
 235 1298 235 1298 272.5 1344.5 c 128,-1,8
 310 1391 310 1391 375.5 1412 c 128,-1,9
 441 1433 441 1433 540 1433 c 0,10,11
 729 1433 729 1433 1022 1404 c 1,12,-1
 1022 310 l 2,13,14
 1022 251 1022 251 1029.5 219 c 128,-1,15
 1037 187 1037 187 1061.5 166 c 128,-1,16
 1086 145 1086 145 1127 138.5 c 128,-1,17
 1168 132 1168 132 1241 132 c 1,18,-1
 1241 -9 l 1,19,-1
 1159 -9 l 2,20,21
 1107 -9 1107 -9 1064.5 -3.5 c 128,-1,22
 1022 2 1022 2 990.5 10.5 c 128,-1,23
 959 19 959 19 935 35.5 c 128,-1,24
 911 52 911 52 895.5 66 c 128,-1,25
 880 80 880 80 869 106 c 128,-1,26
 858 132 858 132 852.5 150 c 128,-1,27
 847 168 847 168 844 202 c 128,-1,28
 841 236 841 236 840.5 256.5 c 128,-1,29
 840 277 840 277 840 316 c 2,30,-1
 840 1281 l 1,31,32
 609 1292 609 1292 570 1292 c 0,33,34
 512 1292 512 1292 479.5 1283.5 c 128,-1,35
 447 1275 447 1275 424.5 1246 c 128,-1,36
 402 1217 402 1217 394.5 1168 c 128,-1,37
 387 1119 387 1119 387 1032 c 1,38,-1
 663 1032 l 1,39,-1
 663 907 l 1,40,-1
 388 907 l 1,41,-1
 388 0 l 1,42,-1
 205 0 l 1,0,-1
EndSplineSet
EndChar

StartChar: uniFB03
Encoding: 64259 64259 405
Width: 1911
GlyphClass: 2
Flags: W
LayerCount: 2
Fore
SplineSet
1663 1186 m 128,-1,1
 1604 1186 1604 1186 1571 1222 c 128,-1,2
 1538 1258 1538 1258 1538 1307 c 0,3,4
 1538 1357 1538 1357 1570 1392.5 c 128,-1,5
 1602 1428 1602 1428 1663 1428 c 0,6,7
 1722 1428 1722 1428 1754 1392 c 128,-1,8
 1786 1356 1786 1356 1786 1307 c 128,-1,9
 1786 1258 1786 1258 1754 1222 c 128,-1,0
 1722 1186 1722 1186 1663 1186 c 128,-1,1
205 0 m 1,10,-1
 205 907 l 1,11,-1
 25 907 l 1,12,-1
 25 1032 l 1,13,-1
 205 1032 l 1,14,-1
 205 1069 l 2,15,16
 205 1167 205 1167 220 1232.5 c 128,-1,17
 235 1298 235 1298 272.5 1344.5 c 128,-1,18
 310 1391 310 1391 375.5 1412 c 128,-1,19
 441 1433 441 1433 540 1433 c 0,20,21
 574 1433 574 1433 592 1432 c 128,-1,22
 610 1431 610 1431 633.5 1427.5 c 128,-1,23
 657 1424 657 1424 672 1422 c 1,24,-1
 672 1281 l 1,25,26
 610 1292 610 1292 570 1292 c 0,27,28
 512 1292 512 1292 479.5 1283.5 c 128,-1,29
 447 1275 447 1275 424.5 1246 c 128,-1,30
 402 1217 402 1217 394.5 1168 c 128,-1,31
 387 1119 387 1119 387 1032 c 1,32,-1
 911 1032 l 1,33,-1
 911 1069 l 2,34,35
 911 1167 911 1167 926 1232.5 c 128,-1,36
 941 1298 941 1298 978.5 1344.5 c 128,-1,37
 1016 1391 1016 1391 1081.5 1412 c 128,-1,38
 1147 1433 1147 1433 1246 1433 c 0,39,40
 1280 1433 1280 1433 1298 1432 c 128,-1,41
 1316 1431 1316 1431 1339.5 1427.5 c 128,-1,42
 1363 1424 1363 1424 1378 1422 c 1,43,-1
 1378 1281 l 1,44,45
 1316 1292 1316 1292 1276 1292 c 0,46,47
 1218 1292 1218 1292 1185.5 1283.5 c 128,-1,48
 1153 1275 1153 1275 1130.5 1246 c 128,-1,49
 1108 1217 1108 1217 1100.5 1168 c 128,-1,50
 1093 1119 1093 1119 1093 1032 c 1,51,-1
 1748 1032 l 1,52,-1
 1748 0 l 1,53,-1
 1565 0 l 1,54,-1
 1565 907 l 1,55,-1
 1094 907 l 1,56,-1
 1094 0 l 1,57,-1
 911 0 l 1,58,-1
 911 907 l 1,59,-1
 388 907 l 1,60,-1
 388 0 l 1,61,-1
 205 0 l 1,10,-1
EndSplineSet
EndChar

StartChar: uniFB04
Encoding: 64260 64260 406
Width: 1901
GlyphClass: 2
Flags: W
LayerCount: 2
Fore
SplineSet
833 0 m 1,0,-1
 833 907 l 1,1,2
 388 907 l 1,3,-1
 388 0 l 1,4,-1
 205 0 l 1,5,-1
 205 907 l 1,6,-1
 25 907 l 1,7,-1
 25 1032 l 1,8,-1
 205 1032 l 1,9,-1
 205 1069 l 2,10,11
 205 1167 205 1167 220 1232.5 c 128,-1,12
 235 1298 235 1298 272.5 1344.5 c 128,-1,13
 310 1391 310 1391 375.5 1412 c 128,-1,14
 441 1433 441 1433 540 1433 c 0,15,16
 574 1433 574 1433 592 1432 c 128,-1,17
 610 1431 610 1431 633.5 1427.5 c 128,-1,18
 657 1424 657 1424 672 1422 c 1,19,-1
 672 1281 l 1,20,21
 610 1292 610 1292 570 1292 c 0,22,23
 512 1292 512 1292 479.5 1283.5 c 128,-1,24
 447 1275 447 1275 424.5 1246 c 128,-1,25
 402 1217 402 1217 394.5 1168 c 128,-1,26
 387 1119 387 1119 387 1032 c 1,27,-1
 833 1032 l 1,28,-1
 833 1069 l 2,29,30
 833 1167 833 1167 848 1232.5 c 128,-1,31
 863 1298 863 1298 900.5 1344.5 c 128,-1,32
 938 1391 938 1391 1003.5 1412 c 128,-1,33
 1069 1433 1069 1433 1168 1433 c 0,34,35
 1364 1433 1364 1433 1650 1404 c 1,36,-1
 1650 310 l 2,37,38
 1650 251 1650 251 1657.5 219 c 128,-1,39
 1665 187 1665 187 1689.5 166 c 128,-1,40
 1714 145 1714 145 1755 138.5 c 128,-1,41
 1796 132 1796 132 1869 132 c 1,42,-1
 1869 -9 l 1,43,-1
 1787 -9 l 2,44,45
 1735 -9 1735 -9 1692.5 -3.5 c 128,-1,46
 1650 2 1650 2 1618.5 10.5 c 128,-1,47
 1587 19 1587 19 1563 35.5 c 128,-1,48
 1539 52 1539 52 1523.5 66 c 128,-1,49
 1508 80 1508 80 1497 106 c 128,-1,50
 1486 132 1486 132 1480.5 150 c 128,-1,51
 1475 168 1475 168 1472 202 c 128,-1,52
 1469 236 1469 236 1468.5 256.5 c 128,-1,53
 1468 277 1468 277 1468 316 c 2,54,-1
 1468 1281 l 1,55,56
 1215 1292 1215 1292 1198 1292 c 0,57,58
 1140 1292 1140 1292 1107.5 1283.5 c 128,-1,59
 1075 1275 1075 1275 1052.5 1246 c 128,-1,60
 1030 1217 1030 1217 1022.5 1168 c 128,-1,61
 1015 1119 1015 1119 1015 1032 c 1,62,-1
 1291 1032 l 1,63,-1
 1291 907 l 1,64,-1
 1016 907 l 1,65,-1
 1016 0 l 1,66,-1
 833 0 l 1,0,-1
EndSplineSet
EndChar

StartChar: glyph407
Encoding: 65540 -1 407
Width: 667
Flags: W
LayerCount: 2
Fore
SplineSet
665 1123 m 1,0,-1
 544 1123 l 1,1,-1
 293 1466 l 1,2,-1
 477 1466 l 1,3,-1
 665 1123 l 1,0,-1
414 1123 m 1,4,-1
 292 1123 l 1,5,-1
 2 1466 l 1,6,-1
 214 1466 l 1,7,-1
 414 1123 l 1,4,-1
EndSplineSet
EndChar
